%FSLAX46Y46*%
G04 Gerber Fmt 4.6, Leading zero omitted, Abs format (unit mm)*
G04 Created by KiCad (PCBNEW (2014-10-22 BZR 5216)-product) date Tue 10 Feb 2015 01:20:12 PM EST*
%MOMM*%
G01*
G04 APERTURE LIST*
%ADD10C,0.100000*%
%ADD11C,3.810000*%
%ADD12R,1.524000X1.524000*%
%ADD13C,1.524000*%
%ADD14R,2.032000X2.032000*%
%ADD15O,2.032000X2.032000*%
%ADD16C,2.700020*%
%ADD17R,2.032000X1.727200*%
%ADD18O,2.032000X1.727200*%
%ADD19C,1.143000*%
%ADD20C,0.889000*%
%ADD21C,0.203200*%
%ADD22C,0.254000*%
G04 APERTURE END LIST*
D10*
D11*
X155527000Y-97630000D03*
X130127000Y-97630000D03*
D12*
X148288000Y-100170000D03*
D13*
X145494000Y-100170000D03*
X142700000Y-100170000D03*
X140033000Y-100170000D03*
X137239000Y-100170000D03*
X138636000Y-97630000D03*
X141430000Y-97630000D03*
X144097000Y-97630000D03*
X146891000Y-97630000D03*
D14*
X158000000Y-133730000D03*
D15*
X158000000Y-136270000D03*
D13*
X134570000Y-136701000D03*
X132030000Y-136701000D03*
X132030000Y-138699980D03*
X134570000Y-138699980D03*
D16*
X139299480Y-141400000D03*
X127300520Y-141400000D03*
D17*
X158000000Y-150080000D03*
D18*
X158000000Y-147540000D03*
X158000000Y-145000000D03*
X158000000Y-142460000D03*
X158000000Y-139920000D03*
D19*
X143984500Y-149409000D03*
X146778500Y-128136500D03*
X146334000Y-124453500D03*
D20*
X136834400Y-122739000D03*
X133684800Y-123501000D03*
X133507000Y-132568800D03*
X137698000Y-133813400D03*
X148366000Y-131184500D03*
X132675000Y-117300000D03*
X138396500Y-118738500D03*
X145200000Y-142900000D03*
X148100000Y-143059000D03*
X137647200Y-132264000D03*
X133275000Y-114425000D03*
X143050000Y-111150000D03*
X131550000Y-130125000D03*
X145275000Y-139300000D03*
X137825000Y-128136500D03*
X137761500Y-126676000D03*
X146969000Y-130295500D03*
X133100000Y-103000000D03*
X157050000Y-118150000D03*
X154300000Y-106600000D03*
X133900000Y-108150000D03*
X135856500Y-123628000D03*
D21*
X136834400Y-122739000D02*
X136809000Y-122713600D01*
X136809000Y-122713600D02*
X134472200Y-122713600D01*
X134472200Y-122713600D02*
X133684800Y-123501000D01*
X133507000Y-132568800D02*
X134751600Y-133813400D01*
X134751600Y-133813400D02*
X137698000Y-133813400D01*
X150911500Y-133730000D02*
X148366000Y-131184500D01*
X158000000Y-133730000D02*
X150911500Y-133730000D01*
X134113500Y-118738500D02*
X132775000Y-117400000D01*
X132775000Y-117400000D02*
X132675000Y-117300000D01*
X138396500Y-118738500D02*
X134113500Y-118738500D01*
X141220980Y-138834980D02*
X145200000Y-142814000D01*
X134523000Y-138834980D02*
X141220980Y-138834980D01*
X148100000Y-143059000D02*
X148112000Y-143059000D01*
X145200000Y-142814000D02*
X145445000Y-143059000D01*
X145445000Y-143059000D02*
X148100000Y-143059000D01*
X145200000Y-142900000D02*
X145200000Y-142814000D01*
X145243000Y-142857000D02*
X145200000Y-142900000D01*
X145200000Y-142900000D02*
X145243000Y-142857000D01*
X141300000Y-114400000D02*
X141250000Y-114400000D01*
X141250000Y-114400000D02*
X133300000Y-114400000D01*
X133275000Y-114425000D02*
X133300000Y-114400000D01*
X141725000Y-114400000D02*
X141250000Y-114400000D01*
X143050000Y-113075000D02*
X143050000Y-111150000D01*
X141725000Y-114400000D02*
X143050000Y-113075000D01*
X131550000Y-130125000D02*
X131925000Y-129750000D01*
X131925000Y-129750000D02*
X135133200Y-129750000D01*
X135133200Y-129750000D02*
X137647200Y-132264000D01*
X145178500Y-139300000D02*
X142714500Y-136836000D01*
X134523000Y-136836000D02*
X142714500Y-136836000D01*
X145275000Y-139300000D02*
X145178500Y-139300000D01*
X157519500Y-141979500D02*
X158000000Y-142460000D01*
X151668000Y-141979500D02*
X137825000Y-128136500D01*
X157519500Y-141979500D02*
X151668000Y-141979500D01*
X136900000Y-127537500D02*
X137761500Y-126676000D01*
X136900000Y-129300000D02*
X136900000Y-127537500D01*
X136900000Y-129300000D02*
X136900000Y-129300000D01*
X158000000Y-147540000D02*
X157682500Y-147540000D01*
X136900000Y-129775000D02*
X150150000Y-143025000D01*
X150150000Y-143025000D02*
X153485000Y-143025000D01*
X153485000Y-143025000D02*
X158000000Y-147540000D01*
X136900000Y-129300000D02*
X136900000Y-129775000D01*
X152308500Y-136270000D02*
X147350000Y-131311500D01*
X147350000Y-130676500D02*
X147350000Y-131311500D01*
X146969000Y-130295500D02*
X147350000Y-130676500D01*
X158000000Y-136270000D02*
X152308500Y-136270000D01*
X142664000Y-103000000D02*
X145494000Y-100170000D01*
X133100000Y-103000000D02*
X142664000Y-103000000D01*
X157050000Y-111750000D02*
X157050000Y-109350000D01*
X157050000Y-118150000D02*
X157050000Y-111750000D01*
X157050000Y-109350000D02*
X154300000Y-106600000D01*
X135100000Y-106600000D02*
X154300000Y-106600000D01*
X133900000Y-108150000D02*
X133900000Y-107800000D01*
X133900000Y-107800000D02*
X135100000Y-106600000D01*
X138777500Y-123628000D02*
X135856500Y-123628000D01*
X152500000Y-137350500D02*
X138777500Y-123628000D01*
X152493500Y-137344000D02*
X152500000Y-137350500D01*
X155069500Y-139920000D02*
X154569500Y-139420000D01*
X154569500Y-139420000D02*
X152500000Y-137350500D01*
X158000000Y-139920000D02*
X155069500Y-139920000D01*
D22*
G36*
X158147000Y-145127000D02*
X158127000Y-145127000D01*
X158127000Y-145147000D01*
X157873000Y-145147000D01*
X157873000Y-145127000D01*
X157853000Y-145127000D01*
X157853000Y-144873000D01*
X157873000Y-144873000D01*
X157873000Y-144853000D01*
X158127000Y-144853000D01*
X158127000Y-144873000D01*
X158147000Y-144873000D01*
X158147000Y-145127000D01*
X158147000Y-145127000D01*
G37*
X158147000Y-145127000D02*
X158127000Y-145127000D01*
X158127000Y-145147000D01*
X157873000Y-145147000D01*
X157873000Y-145127000D01*
X157853000Y-145127000D01*
X157853000Y-144873000D01*
X157873000Y-144873000D01*
X157873000Y-144853000D01*
X158127000Y-144853000D01*
X158127000Y-144873000D01*
X158147000Y-144873000D01*
X158147000Y-145127000D01*
G36*
X159615000Y-132500779D02*
X159554327Y-132354302D01*
X159375699Y-132175673D01*
X159142310Y-132079000D01*
X158889691Y-132079000D01*
X158129687Y-132079000D01*
X158129687Y-117936216D01*
X158067440Y-117785566D01*
X158067440Y-97126979D01*
X157681563Y-96193085D01*
X156967673Y-95477948D01*
X156034454Y-95090441D01*
X155023979Y-95089560D01*
X154090085Y-95475437D01*
X153374948Y-96189327D01*
X152987441Y-97122546D01*
X152986560Y-98133021D01*
X153372437Y-99066915D01*
X154086327Y-99782052D01*
X155019546Y-100169559D01*
X156030021Y-100170440D01*
X156963915Y-99784563D01*
X157679052Y-99070673D01*
X158066559Y-98137454D01*
X158067440Y-97126979D01*
X158067440Y-117785566D01*
X157965689Y-117539311D01*
X157786600Y-117359909D01*
X157786600Y-111750000D01*
X157786600Y-109350000D01*
X157730530Y-109068115D01*
X157570855Y-108829145D01*
X155379467Y-106637757D01*
X155379687Y-106386216D01*
X155215689Y-105989311D01*
X154912286Y-105685378D01*
X154515668Y-105520687D01*
X154086216Y-105520313D01*
X153689311Y-105684311D01*
X153509909Y-105863400D01*
X149685000Y-105863400D01*
X149685000Y-101058310D01*
X149685000Y-100805691D01*
X149685000Y-99281691D01*
X149588327Y-99048302D01*
X149409699Y-98869673D01*
X149176310Y-98773000D01*
X148923691Y-98773000D01*
X147723386Y-98773000D01*
X148074629Y-98422370D01*
X148287757Y-97909100D01*
X148288242Y-97353339D01*
X148076010Y-96839697D01*
X147683370Y-96446371D01*
X147170100Y-96233243D01*
X146614339Y-96232758D01*
X146100697Y-96444990D01*
X145707371Y-96837630D01*
X145494243Y-97350900D01*
X145494240Y-97353336D01*
X145282010Y-96839697D01*
X144889370Y-96446371D01*
X144376100Y-96233243D01*
X143820339Y-96232758D01*
X143306697Y-96444990D01*
X142913371Y-96837630D01*
X142763394Y-97198814D01*
X142615010Y-96839697D01*
X142222370Y-96446371D01*
X141709100Y-96233243D01*
X141153339Y-96232758D01*
X140639697Y-96444990D01*
X140246371Y-96837630D01*
X140033243Y-97350900D01*
X140033240Y-97353336D01*
X139821010Y-96839697D01*
X139428370Y-96446371D01*
X138915100Y-96233243D01*
X138359339Y-96232758D01*
X137845697Y-96444990D01*
X137452371Y-96837630D01*
X137239243Y-97350900D01*
X137238758Y-97906661D01*
X137450990Y-98420303D01*
X137843630Y-98813629D01*
X138356900Y-99026757D01*
X138912661Y-99027242D01*
X139426303Y-98815010D01*
X139819629Y-98422370D01*
X140032757Y-97909100D01*
X140032759Y-97906663D01*
X140244990Y-98420303D01*
X140637630Y-98813629D01*
X141150900Y-99026757D01*
X141706661Y-99027242D01*
X142220303Y-98815010D01*
X142613629Y-98422370D01*
X142763605Y-98061185D01*
X142911990Y-98420303D01*
X143304630Y-98813629D01*
X143817900Y-99026757D01*
X144373661Y-99027242D01*
X144887303Y-98815010D01*
X145280629Y-98422370D01*
X145493757Y-97909100D01*
X145493759Y-97906663D01*
X145705990Y-98420303D01*
X146098630Y-98813629D01*
X146611900Y-99026757D01*
X147008870Y-99027103D01*
X146987673Y-99048301D01*
X146891000Y-99281690D01*
X146891000Y-99534309D01*
X146891000Y-99892753D01*
X146679010Y-99379697D01*
X146286370Y-98986371D01*
X145773100Y-98773243D01*
X145217339Y-98772758D01*
X144703697Y-98984990D01*
X144310371Y-99377630D01*
X144097243Y-99890900D01*
X144097240Y-99893336D01*
X143885010Y-99379697D01*
X143492370Y-98986371D01*
X142979100Y-98773243D01*
X142423339Y-98772758D01*
X141909697Y-98984990D01*
X141516371Y-99377630D01*
X141366394Y-99738814D01*
X141218010Y-99379697D01*
X140825370Y-98986371D01*
X140312100Y-98773243D01*
X139756339Y-98772758D01*
X139242697Y-98984990D01*
X138849371Y-99377630D01*
X138636243Y-99890900D01*
X138636240Y-99893336D01*
X138424010Y-99379697D01*
X138031370Y-98986371D01*
X137518100Y-98773243D01*
X136962339Y-98772758D01*
X136448697Y-98984990D01*
X136055371Y-99377630D01*
X135842243Y-99890900D01*
X135841758Y-100446661D01*
X136053990Y-100960303D01*
X136446630Y-101353629D01*
X136959900Y-101566757D01*
X137515661Y-101567242D01*
X138029303Y-101355010D01*
X138422629Y-100962370D01*
X138635757Y-100449100D01*
X138635759Y-100446663D01*
X138847990Y-100960303D01*
X139240630Y-101353629D01*
X139753900Y-101566757D01*
X140309661Y-101567242D01*
X140823303Y-101355010D01*
X141216629Y-100962370D01*
X141366605Y-100601185D01*
X141514990Y-100960303D01*
X141907630Y-101353629D01*
X142420900Y-101566757D01*
X142976661Y-101567242D01*
X143110242Y-101512047D01*
X142358890Y-102263400D01*
X133889997Y-102263400D01*
X133712286Y-102085378D01*
X133315668Y-101920687D01*
X132886216Y-101920313D01*
X132667440Y-102010709D01*
X132667440Y-97126979D01*
X132281563Y-96193085D01*
X131567673Y-95477948D01*
X130634454Y-95090441D01*
X129623979Y-95089560D01*
X128690085Y-95475437D01*
X127974948Y-96189327D01*
X127587441Y-97122546D01*
X127586560Y-98133021D01*
X127972437Y-99066915D01*
X128686327Y-99782052D01*
X129619546Y-100169559D01*
X130630021Y-100170440D01*
X131563915Y-99784563D01*
X132279052Y-99070673D01*
X132666559Y-98137454D01*
X132667440Y-97126979D01*
X132667440Y-102010709D01*
X132489311Y-102084311D01*
X132185378Y-102387714D01*
X132020687Y-102784332D01*
X132020313Y-103213784D01*
X132184311Y-103610689D01*
X132487714Y-103914622D01*
X132884332Y-104079313D01*
X133313784Y-104079687D01*
X133710689Y-103915689D01*
X133890090Y-103736600D01*
X142664000Y-103736600D01*
X142945885Y-103680530D01*
X143184855Y-103520855D01*
X145161236Y-101544473D01*
X145214900Y-101566757D01*
X145770661Y-101567242D01*
X146284303Y-101355010D01*
X146677629Y-100962370D01*
X146890757Y-100449100D01*
X146891000Y-100170646D01*
X146891000Y-101058309D01*
X146987673Y-101291698D01*
X147166301Y-101470327D01*
X147399690Y-101567000D01*
X147652309Y-101567000D01*
X149176309Y-101567000D01*
X149409698Y-101470327D01*
X149588327Y-101291699D01*
X149685000Y-101058310D01*
X149685000Y-105863400D01*
X135100000Y-105863400D01*
X134818115Y-105919470D01*
X134579145Y-106079145D01*
X133518803Y-107139486D01*
X133289311Y-107234311D01*
X132985378Y-107537714D01*
X132820687Y-107934332D01*
X132820313Y-108363784D01*
X132984311Y-108760689D01*
X133287714Y-109064622D01*
X133684332Y-109229313D01*
X134113784Y-109229687D01*
X134510689Y-109065689D01*
X134814622Y-108762286D01*
X134979313Y-108365668D01*
X134979687Y-107936216D01*
X134928756Y-107812953D01*
X135405110Y-107336600D01*
X153510002Y-107336600D01*
X153687714Y-107514622D01*
X154084332Y-107679313D01*
X154337823Y-107679533D01*
X156313400Y-109655110D01*
X156313400Y-111750000D01*
X156313400Y-117360002D01*
X156135378Y-117537714D01*
X155970687Y-117934332D01*
X155970313Y-118363784D01*
X156134311Y-118760689D01*
X156437714Y-119064622D01*
X156834332Y-119229313D01*
X157263784Y-119229687D01*
X157660689Y-119065689D01*
X157964622Y-118762286D01*
X158129313Y-118365668D01*
X158129687Y-117936216D01*
X158129687Y-132079000D01*
X156857691Y-132079000D01*
X156624302Y-132175673D01*
X156445673Y-132354301D01*
X156349000Y-132587690D01*
X156349000Y-132840309D01*
X156349000Y-132993400D01*
X151216610Y-132993400D01*
X149445467Y-131222257D01*
X149445687Y-130970716D01*
X149281689Y-130573811D01*
X148978286Y-130269878D01*
X148581668Y-130105187D01*
X148152216Y-130104813D01*
X148048629Y-130147614D01*
X148048687Y-130081716D01*
X147884689Y-129684811D01*
X147581286Y-129380878D01*
X147254587Y-129245220D01*
X147461035Y-129159918D01*
X147800725Y-128820820D01*
X147984790Y-128377541D01*
X147985209Y-127897565D01*
X147801918Y-127453965D01*
X147540709Y-127192299D01*
X147540709Y-124214565D01*
X147357418Y-123770965D01*
X147018320Y-123431275D01*
X146575041Y-123247210D01*
X146095065Y-123246791D01*
X145651465Y-123430082D01*
X145311775Y-123769180D01*
X145127710Y-124212459D01*
X145127291Y-124692435D01*
X145310582Y-125136035D01*
X145649680Y-125475725D01*
X146092959Y-125659790D01*
X146572935Y-125660209D01*
X147016535Y-125476918D01*
X147356225Y-125137820D01*
X147540290Y-124694541D01*
X147540709Y-124214565D01*
X147540709Y-127192299D01*
X147462820Y-127114275D01*
X147019541Y-126930210D01*
X146539565Y-126929791D01*
X146095965Y-127113082D01*
X145756275Y-127452180D01*
X145572210Y-127895459D01*
X145571791Y-128375435D01*
X145755082Y-128819035D01*
X146094180Y-129158725D01*
X146492794Y-129324243D01*
X146358311Y-129379811D01*
X146054378Y-129683214D01*
X146001578Y-129810368D01*
X139476187Y-123284977D01*
X139476187Y-118524716D01*
X139312189Y-118127811D01*
X139008786Y-117823878D01*
X138612168Y-117659187D01*
X138182716Y-117658813D01*
X137785811Y-117822811D01*
X137606409Y-118001900D01*
X134418609Y-118001900D01*
X133754467Y-117337757D01*
X133754687Y-117086216D01*
X133590689Y-116689311D01*
X133287286Y-116385378D01*
X132890668Y-116220687D01*
X132461216Y-116220313D01*
X132064311Y-116384311D01*
X131760378Y-116687714D01*
X131595687Y-117084332D01*
X131595313Y-117513784D01*
X131759311Y-117910689D01*
X132062714Y-118214622D01*
X132459332Y-118379313D01*
X132712823Y-118379533D01*
X133592645Y-119259355D01*
X133831615Y-119419030D01*
X133831616Y-119419030D01*
X134113500Y-119475100D01*
X137606502Y-119475100D01*
X137784214Y-119653122D01*
X138180832Y-119817813D01*
X138610284Y-119818187D01*
X139007189Y-119654189D01*
X139311122Y-119350786D01*
X139475813Y-118954168D01*
X139476187Y-118524716D01*
X139476187Y-123284977D01*
X139298355Y-123107145D01*
X139059385Y-122947470D01*
X138777500Y-122891400D01*
X137913768Y-122891400D01*
X137914087Y-122525216D01*
X137750089Y-122128311D01*
X137446686Y-121824378D01*
X137050068Y-121659687D01*
X136620616Y-121659313D01*
X136223711Y-121823311D01*
X136069753Y-121977000D01*
X134472200Y-121977000D01*
X134190315Y-122033070D01*
X133951345Y-122192745D01*
X133722557Y-122421532D01*
X133471016Y-122421313D01*
X133074111Y-122585311D01*
X132770178Y-122888714D01*
X132605487Y-123285332D01*
X132605113Y-123714784D01*
X132769111Y-124111689D01*
X133072514Y-124415622D01*
X133469132Y-124580313D01*
X133898584Y-124580687D01*
X134295489Y-124416689D01*
X134599422Y-124113286D01*
X134764113Y-123716668D01*
X134764333Y-123463176D01*
X134777153Y-123450356D01*
X134776813Y-123841784D01*
X134940811Y-124238689D01*
X135244214Y-124542622D01*
X135640832Y-124707313D01*
X136070284Y-124707687D01*
X136467189Y-124543689D01*
X136646590Y-124364600D01*
X138472390Y-124364600D01*
X151972644Y-137864854D01*
X151972645Y-137864855D01*
X151979145Y-137871355D01*
X154048645Y-139940855D01*
X154548645Y-140440855D01*
X154787615Y-140600530D01*
X154787616Y-140600530D01*
X155069500Y-140656600D01*
X156539716Y-140656600D01*
X156755585Y-140979670D01*
X157070365Y-141190000D01*
X156991195Y-141242900D01*
X151973110Y-141242900D01*
X138904467Y-128174257D01*
X138904687Y-127922716D01*
X138740689Y-127525811D01*
X138589699Y-127374557D01*
X138676122Y-127288286D01*
X138840813Y-126891668D01*
X138841187Y-126462216D01*
X138677189Y-126065311D01*
X138373786Y-125761378D01*
X137977168Y-125596687D01*
X137547716Y-125596313D01*
X137150811Y-125760311D01*
X136846878Y-126063714D01*
X136682187Y-126460332D01*
X136681966Y-126713823D01*
X136379145Y-127016645D01*
X136219470Y-127255615D01*
X136163400Y-127537500D01*
X136163400Y-129300000D01*
X136163400Y-129775000D01*
X136219470Y-130056885D01*
X136379145Y-130295855D01*
X142182690Y-136099400D01*
X138777687Y-136099400D01*
X138777687Y-133599616D01*
X138613689Y-133202711D01*
X138310286Y-132898778D01*
X137913668Y-132734087D01*
X137484216Y-132733713D01*
X137087311Y-132897711D01*
X136907909Y-133076800D01*
X135056710Y-133076800D01*
X134586467Y-132606557D01*
X134586687Y-132355016D01*
X134422689Y-131958111D01*
X134119286Y-131654178D01*
X133722668Y-131489487D01*
X133293216Y-131489113D01*
X132896311Y-131653111D01*
X132592378Y-131956514D01*
X132427687Y-132353132D01*
X132427313Y-132782584D01*
X132591311Y-133179489D01*
X132894714Y-133483422D01*
X133291332Y-133648113D01*
X133544823Y-133648333D01*
X134230745Y-134334255D01*
X134469715Y-134493930D01*
X134751600Y-134550000D01*
X136908002Y-134550000D01*
X137085714Y-134728022D01*
X137482332Y-134892713D01*
X137911784Y-134893087D01*
X138308689Y-134729089D01*
X138612622Y-134425686D01*
X138777313Y-134029068D01*
X138777687Y-133599616D01*
X138777687Y-136099400D01*
X135832980Y-136099400D01*
X135755010Y-135910697D01*
X135362370Y-135517371D01*
X134849100Y-135304243D01*
X134293339Y-135303758D01*
X133779697Y-135515990D01*
X133386371Y-135908630D01*
X133300050Y-136116512D01*
X133215010Y-135910697D01*
X132822370Y-135517371D01*
X132309100Y-135304243D01*
X131753339Y-135303758D01*
X131239697Y-135515990D01*
X130846371Y-135908630D01*
X130633243Y-136421900D01*
X130632758Y-136977661D01*
X130844990Y-137491303D01*
X131053832Y-137700510D01*
X130846371Y-137907610D01*
X130633243Y-138420880D01*
X130632758Y-138976641D01*
X130844990Y-139490283D01*
X131237630Y-139883609D01*
X131750900Y-140096737D01*
X132306661Y-140097222D01*
X132820303Y-139884990D01*
X133213629Y-139492350D01*
X133293394Y-139300252D01*
X133347603Y-139431123D01*
X133589787Y-139500588D01*
X134390395Y-138699980D01*
X133589787Y-137899372D01*
X133347603Y-137968837D01*
X133297491Y-138109297D01*
X133215010Y-137909677D01*
X133006167Y-137700469D01*
X133213629Y-137493370D01*
X133299949Y-137285487D01*
X133384990Y-137491303D01*
X133777630Y-137884629D01*
X134045471Y-137995846D01*
X134570000Y-138520375D01*
X135094564Y-137995810D01*
X135360303Y-137886010D01*
X135674260Y-137572600D01*
X142409390Y-137572600D01*
X144195448Y-139358658D01*
X144195313Y-139513784D01*
X144359311Y-139910689D01*
X144662714Y-140214622D01*
X145059332Y-140379313D01*
X145488784Y-140379687D01*
X145885689Y-140215689D01*
X146092514Y-140009224D01*
X149629145Y-143545855D01*
X149868115Y-143705530D01*
X149868116Y-143705530D01*
X150150000Y-143761600D01*
X153179889Y-143761600D01*
X156423109Y-147004819D01*
X156316655Y-147540000D01*
X156430729Y-148113489D01*
X156755585Y-148599670D01*
X156777780Y-148614500D01*
X156624302Y-148678073D01*
X156445673Y-148856701D01*
X156349000Y-149090090D01*
X156349000Y-149342709D01*
X156349000Y-151069909D01*
X156367677Y-151115000D01*
X154535006Y-151115000D01*
X154535006Y-147901759D01*
X154248686Y-147208809D01*
X153718979Y-146678178D01*
X153026531Y-146390648D01*
X152276759Y-146389994D01*
X151583809Y-146676314D01*
X151053178Y-147206021D01*
X150765648Y-147898469D01*
X150764994Y-148648241D01*
X151051314Y-149341191D01*
X151581021Y-149871822D01*
X152273469Y-150159352D01*
X153023241Y-150160006D01*
X153716191Y-149873686D01*
X154246822Y-149343979D01*
X154534352Y-148651531D01*
X154535006Y-147901759D01*
X154535006Y-151115000D01*
X145191209Y-151115000D01*
X145191209Y-149170065D01*
X145007918Y-148726465D01*
X144668820Y-148386775D01*
X144225541Y-148202710D01*
X143745565Y-148202291D01*
X143301965Y-148385582D01*
X142962275Y-148724680D01*
X142778210Y-149167959D01*
X142777791Y-149647935D01*
X142961082Y-150091535D01*
X143300180Y-150431225D01*
X143743459Y-150615290D01*
X144223435Y-150615709D01*
X144667035Y-150432418D01*
X145006725Y-150093320D01*
X145190790Y-149650041D01*
X145191209Y-149170065D01*
X145191209Y-151115000D01*
X141284834Y-151115000D01*
X141284834Y-141006889D01*
X140983271Y-140277051D01*
X140425366Y-139718171D01*
X139696055Y-139415335D01*
X138906369Y-139414646D01*
X138176531Y-139716209D01*
X137617651Y-140274114D01*
X137314815Y-141003425D01*
X137314126Y-141793111D01*
X137615689Y-142522949D01*
X138173594Y-143081829D01*
X138902905Y-143384665D01*
X139692591Y-143385354D01*
X140422429Y-143083791D01*
X140981309Y-142525886D01*
X141284145Y-141796575D01*
X141284834Y-141006889D01*
X141284834Y-151115000D01*
X135979144Y-151115000D01*
X135979144Y-138907678D01*
X135951362Y-138352612D01*
X135792397Y-137968837D01*
X135550213Y-137899372D01*
X134749605Y-138699980D01*
X135550213Y-139500588D01*
X135792397Y-139431123D01*
X135979144Y-138907678D01*
X135979144Y-151115000D01*
X135370608Y-151115000D01*
X135370608Y-139680193D01*
X134570000Y-138879585D01*
X133769392Y-139680193D01*
X133838857Y-139922377D01*
X134362302Y-140109124D01*
X134917368Y-140081342D01*
X135301143Y-139922377D01*
X135370608Y-139680193D01*
X135370608Y-151115000D01*
X130260006Y-151115000D01*
X130260006Y-116076759D01*
X129973686Y-115383809D01*
X129443979Y-114853178D01*
X128751531Y-114565648D01*
X128001759Y-114564994D01*
X127308809Y-114851314D01*
X126778178Y-115381021D01*
X126490648Y-116073469D01*
X126489994Y-116823241D01*
X126776314Y-117516191D01*
X127306021Y-118046822D01*
X127998469Y-118334352D01*
X128748241Y-118335006D01*
X129441191Y-118048686D01*
X129971822Y-117518979D01*
X130259352Y-116826531D01*
X130260006Y-116076759D01*
X130260006Y-151115000D01*
X129285874Y-151115000D01*
X129285874Y-141006889D01*
X128984311Y-140277051D01*
X128426406Y-139718171D01*
X127697095Y-139415335D01*
X126907409Y-139414646D01*
X126177571Y-139716209D01*
X125618691Y-140274114D01*
X125315855Y-141003425D01*
X125315166Y-141793111D01*
X125616729Y-142522949D01*
X126174634Y-143081829D01*
X126903945Y-143384665D01*
X127693631Y-143385354D01*
X128423469Y-143083791D01*
X128982349Y-142525886D01*
X129285185Y-141796575D01*
X129285874Y-141006889D01*
X129285874Y-151115000D01*
X125027000Y-151115000D01*
X125027000Y-91385000D01*
X159615000Y-91385000D01*
X159615000Y-132500779D01*
X159615000Y-132500779D01*
G37*
X159615000Y-132500779D02*
X159554327Y-132354302D01*
X159375699Y-132175673D01*
X159142310Y-132079000D01*
X158889691Y-132079000D01*
X158129687Y-132079000D01*
X158129687Y-117936216D01*
X158067440Y-117785566D01*
X158067440Y-97126979D01*
X157681563Y-96193085D01*
X156967673Y-95477948D01*
X156034454Y-95090441D01*
X155023979Y-95089560D01*
X154090085Y-95475437D01*
X153374948Y-96189327D01*
X152987441Y-97122546D01*
X152986560Y-98133021D01*
X153372437Y-99066915D01*
X154086327Y-99782052D01*
X155019546Y-100169559D01*
X156030021Y-100170440D01*
X156963915Y-99784563D01*
X157679052Y-99070673D01*
X158066559Y-98137454D01*
X158067440Y-97126979D01*
X158067440Y-117785566D01*
X157965689Y-117539311D01*
X157786600Y-117359909D01*
X157786600Y-111750000D01*
X157786600Y-109350000D01*
X157730530Y-109068115D01*
X157570855Y-108829145D01*
X155379467Y-106637757D01*
X155379687Y-106386216D01*
X155215689Y-105989311D01*
X154912286Y-105685378D01*
X154515668Y-105520687D01*
X154086216Y-105520313D01*
X153689311Y-105684311D01*
X153509909Y-105863400D01*
X149685000Y-105863400D01*
X149685000Y-101058310D01*
X149685000Y-100805691D01*
X149685000Y-99281691D01*
X149588327Y-99048302D01*
X149409699Y-98869673D01*
X149176310Y-98773000D01*
X148923691Y-98773000D01*
X147723386Y-98773000D01*
X148074629Y-98422370D01*
X148287757Y-97909100D01*
X148288242Y-97353339D01*
X148076010Y-96839697D01*
X147683370Y-96446371D01*
X147170100Y-96233243D01*
X146614339Y-96232758D01*
X146100697Y-96444990D01*
X145707371Y-96837630D01*
X145494243Y-97350900D01*
X145494240Y-97353336D01*
X145282010Y-96839697D01*
X144889370Y-96446371D01*
X144376100Y-96233243D01*
X143820339Y-96232758D01*
X143306697Y-96444990D01*
X142913371Y-96837630D01*
X142763394Y-97198814D01*
X142615010Y-96839697D01*
X142222370Y-96446371D01*
X141709100Y-96233243D01*
X141153339Y-96232758D01*
X140639697Y-96444990D01*
X140246371Y-96837630D01*
X140033243Y-97350900D01*
X140033240Y-97353336D01*
X139821010Y-96839697D01*
X139428370Y-96446371D01*
X138915100Y-96233243D01*
X138359339Y-96232758D01*
X137845697Y-96444990D01*
X137452371Y-96837630D01*
X137239243Y-97350900D01*
X137238758Y-97906661D01*
X137450990Y-98420303D01*
X137843630Y-98813629D01*
X138356900Y-99026757D01*
X138912661Y-99027242D01*
X139426303Y-98815010D01*
X139819629Y-98422370D01*
X140032757Y-97909100D01*
X140032759Y-97906663D01*
X140244990Y-98420303D01*
X140637630Y-98813629D01*
X141150900Y-99026757D01*
X141706661Y-99027242D01*
X142220303Y-98815010D01*
X142613629Y-98422370D01*
X142763605Y-98061185D01*
X142911990Y-98420303D01*
X143304630Y-98813629D01*
X143817900Y-99026757D01*
X144373661Y-99027242D01*
X144887303Y-98815010D01*
X145280629Y-98422370D01*
X145493757Y-97909100D01*
X145493759Y-97906663D01*
X145705990Y-98420303D01*
X146098630Y-98813629D01*
X146611900Y-99026757D01*
X147008870Y-99027103D01*
X146987673Y-99048301D01*
X146891000Y-99281690D01*
X146891000Y-99534309D01*
X146891000Y-99892753D01*
X146679010Y-99379697D01*
X146286370Y-98986371D01*
X145773100Y-98773243D01*
X145217339Y-98772758D01*
X144703697Y-98984990D01*
X144310371Y-99377630D01*
X144097243Y-99890900D01*
X144097240Y-99893336D01*
X143885010Y-99379697D01*
X143492370Y-98986371D01*
X142979100Y-98773243D01*
X142423339Y-98772758D01*
X141909697Y-98984990D01*
X141516371Y-99377630D01*
X141366394Y-99738814D01*
X141218010Y-99379697D01*
X140825370Y-98986371D01*
X140312100Y-98773243D01*
X139756339Y-98772758D01*
X139242697Y-98984990D01*
X138849371Y-99377630D01*
X138636243Y-99890900D01*
X138636240Y-99893336D01*
X138424010Y-99379697D01*
X138031370Y-98986371D01*
X137518100Y-98773243D01*
X136962339Y-98772758D01*
X136448697Y-98984990D01*
X136055371Y-99377630D01*
X135842243Y-99890900D01*
X135841758Y-100446661D01*
X136053990Y-100960303D01*
X136446630Y-101353629D01*
X136959900Y-101566757D01*
X137515661Y-101567242D01*
X138029303Y-101355010D01*
X138422629Y-100962370D01*
X138635757Y-100449100D01*
X138635759Y-100446663D01*
X138847990Y-100960303D01*
X139240630Y-101353629D01*
X139753900Y-101566757D01*
X140309661Y-101567242D01*
X140823303Y-101355010D01*
X141216629Y-100962370D01*
X141366605Y-100601185D01*
X141514990Y-100960303D01*
X141907630Y-101353629D01*
X142420900Y-101566757D01*
X142976661Y-101567242D01*
X143110242Y-101512047D01*
X142358890Y-102263400D01*
X133889997Y-102263400D01*
X133712286Y-102085378D01*
X133315668Y-101920687D01*
X132886216Y-101920313D01*
X132667440Y-102010709D01*
X132667440Y-97126979D01*
X132281563Y-96193085D01*
X131567673Y-95477948D01*
X130634454Y-95090441D01*
X129623979Y-95089560D01*
X128690085Y-95475437D01*
X127974948Y-96189327D01*
X127587441Y-97122546D01*
X127586560Y-98133021D01*
X127972437Y-99066915D01*
X128686327Y-99782052D01*
X129619546Y-100169559D01*
X130630021Y-100170440D01*
X131563915Y-99784563D01*
X132279052Y-99070673D01*
X132666559Y-98137454D01*
X132667440Y-97126979D01*
X132667440Y-102010709D01*
X132489311Y-102084311D01*
X132185378Y-102387714D01*
X132020687Y-102784332D01*
X132020313Y-103213784D01*
X132184311Y-103610689D01*
X132487714Y-103914622D01*
X132884332Y-104079313D01*
X133313784Y-104079687D01*
X133710689Y-103915689D01*
X133890090Y-103736600D01*
X142664000Y-103736600D01*
X142945885Y-103680530D01*
X143184855Y-103520855D01*
X145161236Y-101544473D01*
X145214900Y-101566757D01*
X145770661Y-101567242D01*
X146284303Y-101355010D01*
X146677629Y-100962370D01*
X146890757Y-100449100D01*
X146891000Y-100170646D01*
X146891000Y-101058309D01*
X146987673Y-101291698D01*
X147166301Y-101470327D01*
X147399690Y-101567000D01*
X147652309Y-101567000D01*
X149176309Y-101567000D01*
X149409698Y-101470327D01*
X149588327Y-101291699D01*
X149685000Y-101058310D01*
X149685000Y-105863400D01*
X135100000Y-105863400D01*
X134818115Y-105919470D01*
X134579145Y-106079145D01*
X133518803Y-107139486D01*
X133289311Y-107234311D01*
X132985378Y-107537714D01*
X132820687Y-107934332D01*
X132820313Y-108363784D01*
X132984311Y-108760689D01*
X133287714Y-109064622D01*
X133684332Y-109229313D01*
X134113784Y-109229687D01*
X134510689Y-109065689D01*
X134814622Y-108762286D01*
X134979313Y-108365668D01*
X134979687Y-107936216D01*
X134928756Y-107812953D01*
X135405110Y-107336600D01*
X153510002Y-107336600D01*
X153687714Y-107514622D01*
X154084332Y-107679313D01*
X154337823Y-107679533D01*
X156313400Y-109655110D01*
X156313400Y-111750000D01*
X156313400Y-117360002D01*
X156135378Y-117537714D01*
X155970687Y-117934332D01*
X155970313Y-118363784D01*
X156134311Y-118760689D01*
X156437714Y-119064622D01*
X156834332Y-119229313D01*
X157263784Y-119229687D01*
X157660689Y-119065689D01*
X157964622Y-118762286D01*
X158129313Y-118365668D01*
X158129687Y-117936216D01*
X158129687Y-132079000D01*
X156857691Y-132079000D01*
X156624302Y-132175673D01*
X156445673Y-132354301D01*
X156349000Y-132587690D01*
X156349000Y-132840309D01*
X156349000Y-132993400D01*
X151216610Y-132993400D01*
X149445467Y-131222257D01*
X149445687Y-130970716D01*
X149281689Y-130573811D01*
X148978286Y-130269878D01*
X148581668Y-130105187D01*
X148152216Y-130104813D01*
X148048629Y-130147614D01*
X148048687Y-130081716D01*
X147884689Y-129684811D01*
X147581286Y-129380878D01*
X147254587Y-129245220D01*
X147461035Y-129159918D01*
X147800725Y-128820820D01*
X147984790Y-128377541D01*
X147985209Y-127897565D01*
X147801918Y-127453965D01*
X147540709Y-127192299D01*
X147540709Y-124214565D01*
X147357418Y-123770965D01*
X147018320Y-123431275D01*
X146575041Y-123247210D01*
X146095065Y-123246791D01*
X145651465Y-123430082D01*
X145311775Y-123769180D01*
X145127710Y-124212459D01*
X145127291Y-124692435D01*
X145310582Y-125136035D01*
X145649680Y-125475725D01*
X146092959Y-125659790D01*
X146572935Y-125660209D01*
X147016535Y-125476918D01*
X147356225Y-125137820D01*
X147540290Y-124694541D01*
X147540709Y-124214565D01*
X147540709Y-127192299D01*
X147462820Y-127114275D01*
X147019541Y-126930210D01*
X146539565Y-126929791D01*
X146095965Y-127113082D01*
X145756275Y-127452180D01*
X145572210Y-127895459D01*
X145571791Y-128375435D01*
X145755082Y-128819035D01*
X146094180Y-129158725D01*
X146492794Y-129324243D01*
X146358311Y-129379811D01*
X146054378Y-129683214D01*
X146001578Y-129810368D01*
X139476187Y-123284977D01*
X139476187Y-118524716D01*
X139312189Y-118127811D01*
X139008786Y-117823878D01*
X138612168Y-117659187D01*
X138182716Y-117658813D01*
X137785811Y-117822811D01*
X137606409Y-118001900D01*
X134418609Y-118001900D01*
X133754467Y-117337757D01*
X133754687Y-117086216D01*
X133590689Y-116689311D01*
X133287286Y-116385378D01*
X132890668Y-116220687D01*
X132461216Y-116220313D01*
X132064311Y-116384311D01*
X131760378Y-116687714D01*
X131595687Y-117084332D01*
X131595313Y-117513784D01*
X131759311Y-117910689D01*
X132062714Y-118214622D01*
X132459332Y-118379313D01*
X132712823Y-118379533D01*
X133592645Y-119259355D01*
X133831615Y-119419030D01*
X133831616Y-119419030D01*
X134113500Y-119475100D01*
X137606502Y-119475100D01*
X137784214Y-119653122D01*
X138180832Y-119817813D01*
X138610284Y-119818187D01*
X139007189Y-119654189D01*
X139311122Y-119350786D01*
X139475813Y-118954168D01*
X139476187Y-118524716D01*
X139476187Y-123284977D01*
X139298355Y-123107145D01*
X139059385Y-122947470D01*
X138777500Y-122891400D01*
X137913768Y-122891400D01*
X137914087Y-122525216D01*
X137750089Y-122128311D01*
X137446686Y-121824378D01*
X137050068Y-121659687D01*
X136620616Y-121659313D01*
X136223711Y-121823311D01*
X136069753Y-121977000D01*
X134472200Y-121977000D01*
X134190315Y-122033070D01*
X133951345Y-122192745D01*
X133722557Y-122421532D01*
X133471016Y-122421313D01*
X133074111Y-122585311D01*
X132770178Y-122888714D01*
X132605487Y-123285332D01*
X132605113Y-123714784D01*
X132769111Y-124111689D01*
X133072514Y-124415622D01*
X133469132Y-124580313D01*
X133898584Y-124580687D01*
X134295489Y-124416689D01*
X134599422Y-124113286D01*
X134764113Y-123716668D01*
X134764333Y-123463176D01*
X134777153Y-123450356D01*
X134776813Y-123841784D01*
X134940811Y-124238689D01*
X135244214Y-124542622D01*
X135640832Y-124707313D01*
X136070284Y-124707687D01*
X136467189Y-124543689D01*
X136646590Y-124364600D01*
X138472390Y-124364600D01*
X151972644Y-137864854D01*
X151972645Y-137864855D01*
X151979145Y-137871355D01*
X154048645Y-139940855D01*
X154548645Y-140440855D01*
X154787615Y-140600530D01*
X154787616Y-140600530D01*
X155069500Y-140656600D01*
X156539716Y-140656600D01*
X156755585Y-140979670D01*
X157070365Y-141190000D01*
X156991195Y-141242900D01*
X151973110Y-141242900D01*
X138904467Y-128174257D01*
X138904687Y-127922716D01*
X138740689Y-127525811D01*
X138589699Y-127374557D01*
X138676122Y-127288286D01*
X138840813Y-126891668D01*
X138841187Y-126462216D01*
X138677189Y-126065311D01*
X138373786Y-125761378D01*
X137977168Y-125596687D01*
X137547716Y-125596313D01*
X137150811Y-125760311D01*
X136846878Y-126063714D01*
X136682187Y-126460332D01*
X136681966Y-126713823D01*
X136379145Y-127016645D01*
X136219470Y-127255615D01*
X136163400Y-127537500D01*
X136163400Y-129300000D01*
X136163400Y-129775000D01*
X136219470Y-130056885D01*
X136379145Y-130295855D01*
X142182690Y-136099400D01*
X138777687Y-136099400D01*
X138777687Y-133599616D01*
X138613689Y-133202711D01*
X138310286Y-132898778D01*
X137913668Y-132734087D01*
X137484216Y-132733713D01*
X137087311Y-132897711D01*
X136907909Y-133076800D01*
X135056710Y-133076800D01*
X134586467Y-132606557D01*
X134586687Y-132355016D01*
X134422689Y-131958111D01*
X134119286Y-131654178D01*
X133722668Y-131489487D01*
X133293216Y-131489113D01*
X132896311Y-131653111D01*
X132592378Y-131956514D01*
X132427687Y-132353132D01*
X132427313Y-132782584D01*
X132591311Y-133179489D01*
X132894714Y-133483422D01*
X133291332Y-133648113D01*
X133544823Y-133648333D01*
X134230745Y-134334255D01*
X134469715Y-134493930D01*
X134751600Y-134550000D01*
X136908002Y-134550000D01*
X137085714Y-134728022D01*
X137482332Y-134892713D01*
X137911784Y-134893087D01*
X138308689Y-134729089D01*
X138612622Y-134425686D01*
X138777313Y-134029068D01*
X138777687Y-133599616D01*
X138777687Y-136099400D01*
X135832980Y-136099400D01*
X135755010Y-135910697D01*
X135362370Y-135517371D01*
X134849100Y-135304243D01*
X134293339Y-135303758D01*
X133779697Y-135515990D01*
X133386371Y-135908630D01*
X133300050Y-136116512D01*
X133215010Y-135910697D01*
X132822370Y-135517371D01*
X132309100Y-135304243D01*
X131753339Y-135303758D01*
X131239697Y-135515990D01*
X130846371Y-135908630D01*
X130633243Y-136421900D01*
X130632758Y-136977661D01*
X130844990Y-137491303D01*
X131053832Y-137700510D01*
X130846371Y-137907610D01*
X130633243Y-138420880D01*
X130632758Y-138976641D01*
X130844990Y-139490283D01*
X131237630Y-139883609D01*
X131750900Y-140096737D01*
X132306661Y-140097222D01*
X132820303Y-139884990D01*
X133213629Y-139492350D01*
X133293394Y-139300252D01*
X133347603Y-139431123D01*
X133589787Y-139500588D01*
X134390395Y-138699980D01*
X133589787Y-137899372D01*
X133347603Y-137968837D01*
X133297491Y-138109297D01*
X133215010Y-137909677D01*
X133006167Y-137700469D01*
X133213629Y-137493370D01*
X133299949Y-137285487D01*
X133384990Y-137491303D01*
X133777630Y-137884629D01*
X134045471Y-137995846D01*
X134570000Y-138520375D01*
X135094564Y-137995810D01*
X135360303Y-137886010D01*
X135674260Y-137572600D01*
X142409390Y-137572600D01*
X144195448Y-139358658D01*
X144195313Y-139513784D01*
X144359311Y-139910689D01*
X144662714Y-140214622D01*
X145059332Y-140379313D01*
X145488784Y-140379687D01*
X145885689Y-140215689D01*
X146092514Y-140009224D01*
X149629145Y-143545855D01*
X149868115Y-143705530D01*
X149868116Y-143705530D01*
X150150000Y-143761600D01*
X153179889Y-143761600D01*
X156423109Y-147004819D01*
X156316655Y-147540000D01*
X156430729Y-148113489D01*
X156755585Y-148599670D01*
X156777780Y-148614500D01*
X156624302Y-148678073D01*
X156445673Y-148856701D01*
X156349000Y-149090090D01*
X156349000Y-149342709D01*
X156349000Y-151069909D01*
X156367677Y-151115000D01*
X154535006Y-151115000D01*
X154535006Y-147901759D01*
X154248686Y-147208809D01*
X153718979Y-146678178D01*
X153026531Y-146390648D01*
X152276759Y-146389994D01*
X151583809Y-146676314D01*
X151053178Y-147206021D01*
X150765648Y-147898469D01*
X150764994Y-148648241D01*
X151051314Y-149341191D01*
X151581021Y-149871822D01*
X152273469Y-150159352D01*
X153023241Y-150160006D01*
X153716191Y-149873686D01*
X154246822Y-149343979D01*
X154534352Y-148651531D01*
X154535006Y-147901759D01*
X154535006Y-151115000D01*
X145191209Y-151115000D01*
X145191209Y-149170065D01*
X145007918Y-148726465D01*
X144668820Y-148386775D01*
X144225541Y-148202710D01*
X143745565Y-148202291D01*
X143301965Y-148385582D01*
X142962275Y-148724680D01*
X142778210Y-149167959D01*
X142777791Y-149647935D01*
X142961082Y-150091535D01*
X143300180Y-150431225D01*
X143743459Y-150615290D01*
X144223435Y-150615709D01*
X144667035Y-150432418D01*
X145006725Y-150093320D01*
X145190790Y-149650041D01*
X145191209Y-149170065D01*
X145191209Y-151115000D01*
X141284834Y-151115000D01*
X141284834Y-141006889D01*
X140983271Y-140277051D01*
X140425366Y-139718171D01*
X139696055Y-139415335D01*
X138906369Y-139414646D01*
X138176531Y-139716209D01*
X137617651Y-140274114D01*
X137314815Y-141003425D01*
X137314126Y-141793111D01*
X137615689Y-142522949D01*
X138173594Y-143081829D01*
X138902905Y-143384665D01*
X139692591Y-143385354D01*
X140422429Y-143083791D01*
X140981309Y-142525886D01*
X141284145Y-141796575D01*
X141284834Y-141006889D01*
X141284834Y-151115000D01*
X135979144Y-151115000D01*
X135979144Y-138907678D01*
X135951362Y-138352612D01*
X135792397Y-137968837D01*
X135550213Y-137899372D01*
X134749605Y-138699980D01*
X135550213Y-139500588D01*
X135792397Y-139431123D01*
X135979144Y-138907678D01*
X135979144Y-151115000D01*
X135370608Y-151115000D01*
X135370608Y-139680193D01*
X134570000Y-138879585D01*
X133769392Y-139680193D01*
X133838857Y-139922377D01*
X134362302Y-140109124D01*
X134917368Y-140081342D01*
X135301143Y-139922377D01*
X135370608Y-139680193D01*
X135370608Y-151115000D01*
X130260006Y-151115000D01*
X130260006Y-116076759D01*
X129973686Y-115383809D01*
X129443979Y-114853178D01*
X128751531Y-114565648D01*
X128001759Y-114564994D01*
X127308809Y-114851314D01*
X126778178Y-115381021D01*
X126490648Y-116073469D01*
X126489994Y-116823241D01*
X126776314Y-117516191D01*
X127306021Y-118046822D01*
X127998469Y-118334352D01*
X128748241Y-118335006D01*
X129441191Y-118048686D01*
X129971822Y-117518979D01*
X130259352Y-116826531D01*
X130260006Y-116076759D01*
X130260006Y-151115000D01*
X129285874Y-151115000D01*
X129285874Y-141006889D01*
X128984311Y-140277051D01*
X128426406Y-139718171D01*
X127697095Y-139415335D01*
X126907409Y-139414646D01*
X126177571Y-139716209D01*
X125618691Y-140274114D01*
X125315855Y-141003425D01*
X125315166Y-141793111D01*
X125616729Y-142522949D01*
X126174634Y-143081829D01*
X126903945Y-143384665D01*
X127693631Y-143385354D01*
X128423469Y-143083791D01*
X128982349Y-142525886D01*
X129285185Y-141796575D01*
X129285874Y-141006889D01*
X129285874Y-151115000D01*
X125027000Y-151115000D01*
X125027000Y-91385000D01*
X159615000Y-91385000D01*
X159615000Y-132500779D01*
M02*
