%FSLAX46Y46*%
G04 Gerber Fmt 4.6, Leading zero omitted, Abs format (unit mm)*
G04 Created by KiCad (PCBNEW (2014-10-22 BZR 5216)-product) date Tue 10 Feb 2015 01:20:12 PM EST*
%MOMM*%
G01*
G04 APERTURE LIST*
%ADD10C,0.100000*%
%ADD11C,3.810000*%
%ADD12R,1.524000X1.524000*%
%ADD13C,1.524000*%
%ADD14R,2.032000X2.032000*%
%ADD15O,2.032000X2.032000*%
%ADD16C,2.700020*%
%ADD17R,2.032000X1.727200*%
%ADD18O,2.032000X1.727200*%
%ADD19R,1.143000X0.635000*%
%ADD20C,1.143000*%
%ADD21R,0.250000X1.300000*%
%ADD22R,1.300000X0.250000*%
%ADD23R,0.762000X0.508000*%
%ADD24R,1.143000X0.508000*%
%ADD25R,5.600700X2.100580*%
%ADD26R,0.750000X0.800000*%
%ADD27R,0.800000X0.750000*%
%ADD28R,1.270000X3.680000*%
%ADD29C,0.889000*%
%ADD30C,0.203200*%
%ADD31C,0.254000*%
G04 APERTURE END LIST*
D10*
D11*
X155527000Y-97630000D03*
X130127000Y-97630000D03*
D12*
X148288000Y-100170000D03*
D13*
X145494000Y-100170000D03*
X142700000Y-100170000D03*
X140033000Y-100170000D03*
X137239000Y-100170000D03*
X138636000Y-97630000D03*
X141430000Y-97630000D03*
X144097000Y-97630000D03*
X146891000Y-97630000D03*
D14*
X158000000Y-133730000D03*
D15*
X158000000Y-136270000D03*
D13*
X134570000Y-136701000D03*
X132030000Y-136701000D03*
X132030000Y-138699980D03*
X134570000Y-138699980D03*
D16*
X139299480Y-141400000D03*
X127300520Y-141400000D03*
D17*
X158000000Y-150080000D03*
D18*
X158000000Y-147540000D03*
X158000000Y-145000000D03*
X158000000Y-142460000D03*
X158000000Y-139920000D03*
D19*
X153200000Y-136338000D03*
X153200000Y-137862000D03*
D20*
X143984500Y-149409000D03*
X146778500Y-128136500D03*
X146334000Y-124453500D03*
D21*
X138860500Y-121119500D03*
X138360500Y-121119500D03*
X137860500Y-121119500D03*
X137360500Y-121119500D03*
X136860500Y-121119500D03*
X136360500Y-121119500D03*
X135860500Y-121119500D03*
X135360500Y-121119500D03*
X134860500Y-121119500D03*
X134360500Y-121119500D03*
X133860500Y-121119500D03*
X133360500Y-121119500D03*
D22*
X131760500Y-122719500D03*
X131760500Y-123219500D03*
X131760500Y-123719500D03*
X131760500Y-124219500D03*
X131760500Y-124719500D03*
X131760500Y-125219500D03*
X131760500Y-125719500D03*
X131760500Y-126219500D03*
X131760500Y-126719500D03*
X131760500Y-127219500D03*
X131760500Y-127719500D03*
X131760500Y-128219500D03*
D21*
X133360500Y-129819500D03*
X133860500Y-129819500D03*
X134360500Y-129819500D03*
X134860500Y-129819500D03*
X135360500Y-129819500D03*
X135860500Y-129819500D03*
X136360500Y-129819500D03*
X136860500Y-129819500D03*
X137360500Y-129819500D03*
X137860500Y-129819500D03*
X138360500Y-129819500D03*
X138860500Y-129819500D03*
D22*
X140460500Y-128219500D03*
X140460500Y-127719500D03*
X140460500Y-127219500D03*
X140460500Y-126719500D03*
X140460500Y-126219500D03*
X140460500Y-125719500D03*
X140460500Y-125219500D03*
X140460500Y-124719500D03*
X140460500Y-124219500D03*
X140460500Y-123719500D03*
X140460500Y-123219500D03*
X140460500Y-122719500D03*
D23*
X144238500Y-145535500D03*
X144238500Y-147440500D03*
X146778500Y-145535500D03*
X144238500Y-146488000D03*
X146778500Y-147440500D03*
D24*
X155287500Y-124390000D03*
X155287500Y-125660000D03*
X155287500Y-126930000D03*
X155287500Y-128200000D03*
X148937500Y-128200000D03*
X148937500Y-126930000D03*
X148937500Y-125660000D03*
X148937500Y-124390000D03*
D25*
X143771140Y-116389000D03*
X153468860Y-116389000D03*
D26*
X142905000Y-121100000D03*
X142905000Y-122600000D03*
X144683000Y-121100000D03*
X144683000Y-122600000D03*
X146461000Y-121100000D03*
X146461000Y-122600000D03*
X131538500Y-133204500D03*
X131538500Y-131704500D03*
D27*
X149450000Y-121200000D03*
X150950000Y-121200000D03*
D26*
X129697000Y-133204500D03*
X129697000Y-131704500D03*
X127919000Y-133204500D03*
X127919000Y-131704500D03*
D27*
X134217500Y-118040000D03*
X135717500Y-118040000D03*
X155550000Y-121200000D03*
X154050000Y-121200000D03*
X134225000Y-116350000D03*
X135725000Y-116350000D03*
X142702500Y-133534000D03*
X141202500Y-133534000D03*
X142702500Y-135756500D03*
X141202500Y-135756500D03*
X139996000Y-119056000D03*
X141496000Y-119056000D03*
D26*
X142333500Y-144976000D03*
X142333500Y-146476000D03*
X148493000Y-144849000D03*
X148493000Y-146349000D03*
D27*
X152799000Y-130168500D03*
X151299000Y-130168500D03*
D19*
X129379500Y-124453500D03*
X129379500Y-122929500D03*
X129379500Y-125787000D03*
X129379500Y-127311000D03*
X129379500Y-120135500D03*
X129379500Y-121659500D03*
X129375000Y-130112000D03*
X129375000Y-128588000D03*
X158800000Y-116562000D03*
X158800000Y-115038000D03*
D28*
X156130000Y-111020000D03*
X156130000Y-106580000D03*
X158670000Y-111020000D03*
X158670000Y-106580000D03*
X126130000Y-111020000D03*
X126130000Y-106580000D03*
X128670000Y-111020000D03*
X128670000Y-106580000D03*
X136130000Y-111020000D03*
X136130000Y-106580000D03*
X138670000Y-111020000D03*
X138670000Y-106580000D03*
X146130000Y-111020000D03*
X146130000Y-106580000D03*
X148670000Y-111020000D03*
X148670000Y-106580000D03*
D29*
X136834400Y-122739000D03*
X133684800Y-123501000D03*
X133507000Y-132568800D03*
X137698000Y-133813400D03*
X148366000Y-131184500D03*
X132675000Y-117300000D03*
X138396500Y-118738500D03*
X145200000Y-142900000D03*
X148100000Y-143059000D03*
X137647200Y-132264000D03*
X133275000Y-114425000D03*
X143050000Y-111150000D03*
X131550000Y-130125000D03*
X145275000Y-139300000D03*
X137825000Y-128136500D03*
X137761500Y-126676000D03*
X146969000Y-130295500D03*
X133100000Y-103000000D03*
X157050000Y-118150000D03*
X154300000Y-106600000D03*
X133900000Y-108150000D03*
X135856500Y-123628000D03*
D30*
X148695500Y-120008500D02*
X148695500Y-119957000D01*
X151175000Y-144849000D02*
X148493000Y-144849000D01*
X151199000Y-144849000D02*
X151175000Y-144849000D01*
X138880000Y-121100000D02*
X138860500Y-121119500D01*
X140460500Y-122719500D02*
X140714000Y-122719500D01*
X134860500Y-118683000D02*
X134217500Y-118040000D01*
X134860500Y-121119500D02*
X134860500Y-118683000D01*
X147806500Y-145535500D02*
X148493000Y-144849000D01*
X146778500Y-145535500D02*
X147806500Y-145535500D01*
X140397000Y-129819500D02*
X142702500Y-132125000D01*
X142702500Y-132125000D02*
X142702500Y-133534000D01*
X138860500Y-129819500D02*
X140397000Y-129819500D01*
X142702500Y-135756500D02*
X142702500Y-133534000D01*
X142702500Y-137902800D02*
X142702500Y-135756500D01*
X142702500Y-137903500D02*
X142702500Y-137902800D01*
X146778500Y-141979500D02*
X142702500Y-137903500D01*
X146778500Y-145535500D02*
X146778500Y-141979500D01*
X138860500Y-120191500D02*
X139996000Y-119056000D01*
X138860500Y-121119500D02*
X138860500Y-120191500D01*
X146461000Y-121100000D02*
X144683000Y-121100000D01*
X144683000Y-121100000D02*
X142905000Y-121100000D01*
X142080000Y-121100000D02*
X140460500Y-122719500D01*
X142905000Y-121100000D02*
X142080000Y-121100000D01*
X142885500Y-121119500D02*
X142905000Y-121100000D01*
X138860500Y-121119500D02*
X142885500Y-121119500D01*
X131760500Y-128993500D02*
X131760500Y-128219500D01*
X132618000Y-129851000D02*
X131760500Y-128993500D01*
X132618000Y-132645000D02*
X132618000Y-129851000D01*
X132618000Y-132645000D02*
X132618000Y-132645000D01*
X132058500Y-133204500D02*
X132618000Y-132645000D01*
X131538500Y-133204500D02*
X132058500Y-133204500D01*
X131538500Y-133204500D02*
X129697000Y-133204500D01*
X129697000Y-133204500D02*
X127919000Y-133204500D01*
X133697500Y-127565000D02*
X133043000Y-128219500D01*
X133697500Y-123501000D02*
X133697500Y-127565000D01*
X133043000Y-128219500D02*
X131760500Y-128219500D01*
X134860500Y-122338000D02*
X133697500Y-123501000D01*
X134860500Y-121119500D02*
X134860500Y-122338000D01*
X136853900Y-122719500D02*
X136834400Y-122739000D01*
X133684800Y-123501000D02*
X133697500Y-123501000D01*
X140460500Y-122719500D02*
X136853900Y-122719500D01*
X133430800Y-132645000D02*
X133507000Y-132568800D01*
X137698000Y-133813400D02*
X138129800Y-134245200D01*
X138129800Y-134245200D02*
X139298200Y-134245200D01*
X139298200Y-134245200D02*
X139806200Y-134753200D01*
X139806200Y-134753200D02*
X139806200Y-136988400D01*
X139806200Y-136988400D02*
X140720600Y-137902800D01*
X140720600Y-137902800D02*
X142702500Y-137902800D01*
X132618000Y-132645000D02*
X133430800Y-132645000D01*
X148366000Y-131184500D02*
X146016500Y-133534000D01*
X146016500Y-133534000D02*
X142702500Y-133534000D01*
X158000000Y-150080000D02*
X157780000Y-150080000D01*
X154699000Y-144849000D02*
X156150000Y-146300000D01*
X156150000Y-148450000D02*
X157780000Y-150080000D01*
X156150000Y-148450000D02*
X156150000Y-146300000D01*
X151175000Y-144849000D02*
X154699000Y-144849000D01*
X132675000Y-117300000D02*
X133625000Y-116350000D01*
X133625000Y-116350000D02*
X134225000Y-116350000D01*
X139996000Y-119056000D02*
X138714000Y-119056000D01*
X138714000Y-119056000D02*
X138396500Y-118738500D01*
X153200000Y-137862000D02*
X153200000Y-137959000D01*
X153200000Y-137959000D02*
X148100000Y-143059000D01*
X135360500Y-118397000D02*
X135717500Y-118040000D01*
X135360500Y-121119500D02*
X135360500Y-118397000D01*
X152176000Y-125660000D02*
X148937500Y-125660000D01*
X153446000Y-124390000D02*
X152176000Y-125660000D01*
X155287500Y-124390000D02*
X153446000Y-124390000D01*
X142285500Y-123219500D02*
X142905000Y-122600000D01*
X140460500Y-123219500D02*
X142285500Y-123219500D01*
X142905000Y-122600000D02*
X144683000Y-122600000D01*
X148302500Y-122600000D02*
X148314500Y-122600000D01*
X147477000Y-122600000D02*
X148302500Y-122600000D01*
X146461000Y-122600000D02*
X147477000Y-122600000D01*
X144377500Y-146349000D02*
X144238500Y-146488000D01*
X144226500Y-146476000D02*
X144238500Y-146488000D01*
X142333500Y-146476000D02*
X144226500Y-146476000D01*
X140492000Y-133534000D02*
X141202500Y-133534000D01*
X139200000Y-132242000D02*
X140492000Y-133534000D01*
X138360500Y-131402500D02*
X139200000Y-132242000D01*
X138360500Y-129819500D02*
X138360500Y-131402500D01*
X141202500Y-135756500D02*
X141202500Y-133534000D01*
X127919000Y-131704500D02*
X129697000Y-131704500D01*
X135360500Y-122854000D02*
X135031000Y-123183500D01*
X135031000Y-123183500D02*
X135031000Y-124199500D01*
X135031000Y-124199500D02*
X135412000Y-124580500D01*
X135412000Y-124580500D02*
X136555000Y-124580500D01*
X136555000Y-124580500D02*
X137916000Y-123219500D01*
X137916000Y-123219500D02*
X140460500Y-123219500D01*
X135360500Y-121119500D02*
X135360500Y-122854000D01*
X146207000Y-119056000D02*
X147477000Y-120326000D01*
X147477000Y-120326000D02*
X147477000Y-122600000D01*
X141496000Y-119056000D02*
X146207000Y-119056000D01*
X152112500Y-125596500D02*
X152176000Y-125660000D01*
X149116000Y-122600000D02*
X152112500Y-125596500D01*
X148302500Y-122600000D02*
X149116000Y-122600000D01*
X144683000Y-122600000D02*
X146461000Y-122600000D01*
X152112500Y-125660000D02*
X152112500Y-125596500D01*
X152176000Y-125660000D02*
X152112500Y-125660000D01*
X149116000Y-122600000D02*
X152176000Y-125660000D01*
X146461000Y-122600000D02*
X149116000Y-122600000D01*
X152799000Y-126283000D02*
X152176000Y-125660000D01*
X152799000Y-130168500D02*
X152799000Y-126283000D01*
X142333500Y-150107500D02*
X143032000Y-150806000D01*
X143032000Y-150806000D02*
X146905500Y-150806000D01*
X146905500Y-150806000D02*
X148493000Y-149218500D01*
X148493000Y-149218500D02*
X148493000Y-146349000D01*
X142333500Y-146476000D02*
X142333500Y-150107500D01*
X146249000Y-146349000D02*
X145200000Y-145300000D01*
X145200000Y-145300000D02*
X145200000Y-142900000D01*
X148493000Y-146349000D02*
X146249000Y-146349000D01*
X137178000Y-146476000D02*
X142333500Y-146476000D01*
X134523000Y-143821000D02*
X137178000Y-146476000D01*
X134523000Y-138834980D02*
X134523000Y-143821000D01*
X152559000Y-143059000D02*
X148100000Y-143059000D01*
X154050000Y-121200000D02*
X150950000Y-121200000D01*
X148128250Y-136271750D02*
X149700000Y-134700000D01*
X148128250Y-143030750D02*
X148100000Y-143059000D01*
X148128250Y-141328250D02*
X148128250Y-143030750D01*
X152799000Y-130168500D02*
X152799000Y-131601000D01*
X149700000Y-134700000D02*
X152799000Y-131601000D01*
X148128250Y-141328250D02*
X148128250Y-136271750D01*
X139200000Y-132300000D02*
X139200000Y-132242000D01*
X139200000Y-132286000D02*
X139200000Y-132300000D01*
X139222000Y-132264000D02*
X139200000Y-132286000D01*
X137647200Y-132264000D02*
X139222000Y-132264000D01*
X146130000Y-111020000D02*
X148670000Y-111020000D01*
X155884000Y-143059000D02*
X152559000Y-143059000D01*
X157825000Y-145000000D02*
X155884000Y-143059000D01*
X158000000Y-145000000D02*
X157825000Y-145000000D01*
X135725000Y-118032500D02*
X135717500Y-118040000D01*
X135725000Y-116350000D02*
X135725000Y-118032500D01*
X131925000Y-118125000D02*
X131925000Y-116150000D01*
X131925000Y-116150000D02*
X133150000Y-114925000D01*
X133175000Y-114925000D02*
X135125000Y-114925000D01*
X133150000Y-114925000D02*
X133175000Y-114925000D01*
X135125000Y-114925000D02*
X135725000Y-115525000D01*
X135725000Y-115525000D02*
X135725000Y-116350000D01*
X129914500Y-120135500D02*
X131925000Y-118125000D01*
X129379500Y-120135500D02*
X129914500Y-120135500D01*
X144750000Y-111020000D02*
X146130000Y-111020000D01*
X144680000Y-111020000D02*
X144750000Y-111020000D01*
X133175000Y-114525000D02*
X133275000Y-114425000D01*
X133175000Y-114925000D02*
X133175000Y-114525000D01*
X143180000Y-111020000D02*
X143050000Y-111150000D01*
X144750000Y-111020000D02*
X143180000Y-111020000D01*
X129375000Y-130112000D02*
X129738000Y-130112000D01*
X131741000Y-127700000D02*
X131760500Y-127719500D01*
X131538500Y-130136500D02*
X131550000Y-130125000D01*
X131538500Y-131704500D02*
X131538500Y-130136500D01*
X131538500Y-131704500D02*
X129697000Y-131704500D01*
X129375000Y-131382500D02*
X129697000Y-131704500D01*
X129375000Y-130112000D02*
X129375000Y-131382500D01*
X130500000Y-129910000D02*
X130298000Y-130112000D01*
X130298000Y-130112000D02*
X129375000Y-130112000D01*
X130500000Y-128050000D02*
X130850000Y-127700000D01*
X130500000Y-129350000D02*
X130500000Y-128050000D01*
X131741000Y-127700000D02*
X130850000Y-127700000D01*
X130500000Y-129350000D02*
X130500000Y-129910000D01*
X127919000Y-121596000D02*
X129379500Y-120135500D01*
X127919000Y-131704500D02*
X127919000Y-121596000D01*
X136237500Y-138550500D02*
X134523000Y-136836000D01*
X142333500Y-144976000D02*
X138662500Y-144976000D01*
X143679000Y-144976000D02*
X144238500Y-145535500D01*
X142333500Y-144976000D02*
X143679000Y-144976000D01*
X143984500Y-147694500D02*
X144238500Y-147440500D01*
X143984500Y-149409000D02*
X143984500Y-147694500D01*
X151299000Y-127831000D02*
X150398000Y-126930000D01*
X150398000Y-126930000D02*
X148937500Y-126930000D01*
X151299000Y-130168500D02*
X151299000Y-127831000D01*
X151299000Y-130168500D02*
X151299000Y-130537500D01*
X144683000Y-145535500D02*
X145318000Y-146170500D01*
X145318000Y-146170500D02*
X145318000Y-146996000D01*
X145318000Y-146996000D02*
X144873500Y-147440500D01*
X144873500Y-147440500D02*
X144238500Y-147440500D01*
X144238500Y-145535500D02*
X144683000Y-145535500D01*
X136237500Y-142551000D02*
X136237500Y-138550500D01*
X138662500Y-144976000D02*
X136237500Y-142551000D01*
X151299000Y-130537500D02*
X151299000Y-130168500D01*
X145275000Y-139300000D02*
X145275000Y-136561500D01*
X145275000Y-136561500D02*
X151299000Y-130537500D01*
X131983000Y-135820000D02*
X136860500Y-130942500D01*
X136860500Y-130942500D02*
X136860500Y-129819500D01*
X131983000Y-136836000D02*
X131983000Y-135820000D01*
X133189500Y-135502500D02*
X137360500Y-131331500D01*
X133189500Y-137852000D02*
X133189500Y-135502500D01*
X132206520Y-138834980D02*
X133189500Y-137852000D01*
X131983000Y-138834980D02*
X132206520Y-138834980D01*
X137360500Y-131331500D02*
X137360500Y-129819500D01*
X137860500Y-128172000D02*
X137860500Y-129819500D01*
X137825000Y-128136500D02*
X137860500Y-128172000D01*
X139305000Y-128219500D02*
X140460500Y-128219500D01*
X137761500Y-126676000D02*
X139305000Y-128219500D01*
X146842000Y-128200000D02*
X146778500Y-128136500D01*
X148937500Y-128200000D02*
X146842000Y-128200000D01*
X142861500Y-124219500D02*
X146778500Y-128136500D01*
X140460500Y-124219500D02*
X142861500Y-124219500D01*
X143123500Y-123719500D02*
X143857500Y-124453500D01*
X143857500Y-124453500D02*
X146334000Y-124453500D01*
X140460500Y-123719500D02*
X143123500Y-123719500D01*
X148874000Y-124453500D02*
X148937500Y-124390000D01*
X146334000Y-124453500D02*
X148874000Y-124453500D01*
X143644140Y-116262000D02*
X143771140Y-116389000D01*
X136860500Y-119512500D02*
X137317000Y-119056000D01*
X137317000Y-119056000D02*
X137317000Y-118103500D01*
X137317000Y-118103500D02*
X139031500Y-116389000D01*
X139031500Y-116389000D02*
X143771140Y-116389000D01*
X136860500Y-121119500D02*
X136860500Y-119512500D01*
X145127500Y-116389000D02*
X143771140Y-116389000D01*
X145789000Y-116389000D02*
X143771140Y-116389000D01*
X149450000Y-120050000D02*
X145789000Y-116389000D01*
X149450000Y-121200000D02*
X149450000Y-120050000D01*
X153370500Y-116487360D02*
X153468860Y-116389000D01*
X136360500Y-119187000D02*
X136745500Y-118802000D01*
X136745500Y-118802000D02*
X136745500Y-115627000D01*
X136745500Y-115627000D02*
X137825000Y-114547500D01*
X137825000Y-114547500D02*
X151627360Y-114547500D01*
X151627360Y-114547500D02*
X153468860Y-116389000D01*
X136360500Y-121119500D02*
X136360500Y-119187000D01*
X155550000Y-118470140D02*
X153468860Y-116389000D01*
X155550000Y-121200000D02*
X155550000Y-118470140D01*
X129824000Y-124453500D02*
X129379500Y-124453500D01*
X130590000Y-125219500D02*
X129824000Y-124453500D01*
X131760500Y-125219500D02*
X130590000Y-125219500D01*
X129379500Y-122929500D02*
X129379500Y-121659500D01*
X131693000Y-125787000D02*
X131760500Y-125719500D01*
X129379500Y-125787000D02*
X131693000Y-125787000D01*
X129379500Y-128583500D02*
X129375000Y-128588000D01*
X129379500Y-127311000D02*
X129379500Y-128583500D01*
X141393000Y-124719500D02*
X140460500Y-124719500D01*
X141393000Y-124719500D02*
X146969000Y-130295500D01*
X157878500Y-136391500D02*
X158000000Y-136270000D01*
X153200000Y-136338000D02*
X157878500Y-136391500D01*
X148670000Y-100437000D02*
X148239000Y-100006000D01*
X148670000Y-100552000D02*
X148288000Y-100170000D01*
X148670000Y-106580000D02*
X148670000Y-100552000D01*
X134680000Y-106580000D02*
X133100000Y-105000000D01*
X133100000Y-105000000D02*
X133100000Y-103000000D01*
X136130000Y-106580000D02*
X134680000Y-106580000D01*
X135300000Y-98800000D02*
X141445000Y-98800000D01*
X141445000Y-98800000D02*
X142651000Y-100006000D01*
X128670000Y-105430000D02*
X135300000Y-98800000D01*
X128670000Y-106580000D02*
X128670000Y-105430000D01*
X146130000Y-103600000D02*
X142700000Y-100170000D01*
X146130000Y-106580000D02*
X146130000Y-103600000D01*
X156670000Y-126930000D02*
X158800000Y-124800000D01*
X158800000Y-124800000D02*
X158800000Y-116562000D01*
X155287500Y-126930000D02*
X156670000Y-126930000D01*
X136130000Y-111020000D02*
X138670000Y-111020000D01*
X155738000Y-113500000D02*
X141150000Y-113500000D01*
X141150000Y-113500000D02*
X138670000Y-111020000D01*
X158800000Y-116562000D02*
X155738000Y-113500000D01*
X157300000Y-113538000D02*
X157300000Y-112190000D01*
X157300000Y-112190000D02*
X156130000Y-111020000D01*
X158800000Y-115038000D02*
X157300000Y-113538000D01*
X155287500Y-125660000D02*
X156390000Y-125660000D01*
X157050000Y-125000000D02*
X157050000Y-118150000D01*
X156390000Y-125660000D02*
X157050000Y-125000000D01*
X126130000Y-111020000D02*
X128670000Y-111020000D01*
X154300000Y-106600000D02*
X154320000Y-106580000D01*
X155287500Y-125660000D02*
X155327500Y-125700000D01*
X128670000Y-111020000D02*
X131030000Y-111020000D01*
X131030000Y-111020000D02*
X133900000Y-108150000D01*
X156110000Y-106600000D02*
X154300000Y-106600000D01*
X156130000Y-106580000D02*
X156110000Y-106600000D01*
X138670000Y-101601000D02*
X137239000Y-100170000D01*
X138670000Y-106580000D02*
X138670000Y-101601000D01*
X135860500Y-123624000D02*
X135856500Y-123628000D01*
X135860500Y-123624000D02*
X135860500Y-121119500D01*
X129900000Y-102300000D02*
X127400000Y-102300000D01*
X127400000Y-102300000D02*
X126130000Y-103570000D01*
X126130000Y-103570000D02*
X126130000Y-106580000D01*
X136500000Y-95700000D02*
X142282000Y-95700000D01*
X144048000Y-97466000D02*
X142282000Y-95700000D01*
X136500000Y-95700000D02*
X129900000Y-102300000D01*
D31*
G36*
X139175500Y-127048290D02*
X138840967Y-126713757D01*
X138841187Y-126462216D01*
X138677189Y-126065311D01*
X138373786Y-125761378D01*
X137977168Y-125596687D01*
X137547716Y-125596313D01*
X137150811Y-125760311D01*
X136846878Y-126063714D01*
X136682187Y-126460332D01*
X136681813Y-126889784D01*
X136845811Y-127286689D01*
X136996800Y-127437942D01*
X136910378Y-127524214D01*
X136745687Y-127920832D01*
X136745313Y-128350284D01*
X136821429Y-128534500D01*
X136611810Y-128534500D01*
X136609191Y-128534500D01*
X136359191Y-128534500D01*
X136111810Y-128534500D01*
X136109191Y-128534500D01*
X135859191Y-128534500D01*
X135611810Y-128534500D01*
X135609191Y-128534500D01*
X135359191Y-128534500D01*
X135111810Y-128534500D01*
X135109191Y-128534500D01*
X134859191Y-128534500D01*
X134611810Y-128534500D01*
X134609191Y-128534500D01*
X134359191Y-128534500D01*
X134111810Y-128534500D01*
X134109191Y-128534500D01*
X133859191Y-128534500D01*
X133769710Y-128534500D01*
X134218355Y-128085855D01*
X134378030Y-127846885D01*
X134378030Y-127846884D01*
X134434100Y-127565000D01*
X134434100Y-124278319D01*
X134599422Y-124113286D01*
X134764113Y-123716668D01*
X134764322Y-123475887D01*
X134777142Y-123463067D01*
X134776813Y-123841784D01*
X134940811Y-124238689D01*
X135244214Y-124542622D01*
X135640832Y-124707313D01*
X136070284Y-124707687D01*
X136467189Y-124543689D01*
X136771122Y-124240286D01*
X136935813Y-123843668D01*
X136935834Y-123818589D01*
X137048184Y-123818687D01*
X137445089Y-123654689D01*
X137644024Y-123456100D01*
X139175500Y-123456100D01*
X139175500Y-123468190D01*
X139175500Y-123470810D01*
X139175500Y-123720809D01*
X139175500Y-123968190D01*
X139175500Y-123970809D01*
X139175500Y-124220809D01*
X139175500Y-124468190D01*
X139175500Y-124470809D01*
X139175500Y-124720809D01*
X139175500Y-124968190D01*
X139175500Y-124970809D01*
X139175500Y-125220809D01*
X139175500Y-125468190D01*
X139175500Y-125470809D01*
X139175500Y-125720809D01*
X139175500Y-125968190D01*
X139175500Y-125970809D01*
X139175500Y-126220809D01*
X139175500Y-126468190D01*
X139175500Y-126470809D01*
X139175500Y-126720809D01*
X139175500Y-126968190D01*
X139175500Y-126970809D01*
X139175500Y-127048290D01*
X139175500Y-127048290D01*
G37*
X139175500Y-127048290D02*
X138840967Y-126713757D01*
X138841187Y-126462216D01*
X138677189Y-126065311D01*
X138373786Y-125761378D01*
X137977168Y-125596687D01*
X137547716Y-125596313D01*
X137150811Y-125760311D01*
X136846878Y-126063714D01*
X136682187Y-126460332D01*
X136681813Y-126889784D01*
X136845811Y-127286689D01*
X136996800Y-127437942D01*
X136910378Y-127524214D01*
X136745687Y-127920832D01*
X136745313Y-128350284D01*
X136821429Y-128534500D01*
X136611810Y-128534500D01*
X136609191Y-128534500D01*
X136359191Y-128534500D01*
X136111810Y-128534500D01*
X136109191Y-128534500D01*
X135859191Y-128534500D01*
X135611810Y-128534500D01*
X135609191Y-128534500D01*
X135359191Y-128534500D01*
X135111810Y-128534500D01*
X135109191Y-128534500D01*
X134859191Y-128534500D01*
X134611810Y-128534500D01*
X134609191Y-128534500D01*
X134359191Y-128534500D01*
X134111810Y-128534500D01*
X134109191Y-128534500D01*
X133859191Y-128534500D01*
X133769710Y-128534500D01*
X134218355Y-128085855D01*
X134378030Y-127846885D01*
X134378030Y-127846884D01*
X134434100Y-127565000D01*
X134434100Y-124278319D01*
X134599422Y-124113286D01*
X134764113Y-123716668D01*
X134764322Y-123475887D01*
X134777142Y-123463067D01*
X134776813Y-123841784D01*
X134940811Y-124238689D01*
X135244214Y-124542622D01*
X135640832Y-124707313D01*
X136070284Y-124707687D01*
X136467189Y-124543689D01*
X136771122Y-124240286D01*
X136935813Y-123843668D01*
X136935834Y-123818589D01*
X137048184Y-123818687D01*
X137445089Y-123654689D01*
X137644024Y-123456100D01*
X139175500Y-123456100D01*
X139175500Y-123468190D01*
X139175500Y-123470810D01*
X139175500Y-123720809D01*
X139175500Y-123968190D01*
X139175500Y-123970809D01*
X139175500Y-124220809D01*
X139175500Y-124468190D01*
X139175500Y-124470809D01*
X139175500Y-124720809D01*
X139175500Y-124968190D01*
X139175500Y-124970809D01*
X139175500Y-125220809D01*
X139175500Y-125468190D01*
X139175500Y-125470809D01*
X139175500Y-125720809D01*
X139175500Y-125968190D01*
X139175500Y-125970809D01*
X139175500Y-126220809D01*
X139175500Y-126468190D01*
X139175500Y-126470809D01*
X139175500Y-126720809D01*
X139175500Y-126968190D01*
X139175500Y-126970809D01*
X139175500Y-127048290D01*
G36*
X146041900Y-144741475D02*
X146037802Y-144743173D01*
X145859173Y-144921801D01*
X145762500Y-145155190D01*
X145762500Y-145407809D01*
X145762500Y-145573290D01*
X145203855Y-145014645D01*
X145193386Y-145007650D01*
X145157827Y-144921802D01*
X144979199Y-144743173D01*
X144745810Y-144646500D01*
X144493191Y-144646500D01*
X144391210Y-144646500D01*
X144199855Y-144455145D01*
X143960885Y-144295470D01*
X143679000Y-144239400D01*
X143256394Y-144239400D01*
X143246827Y-144216302D01*
X143068199Y-144037673D01*
X142834810Y-143941000D01*
X142582191Y-143941000D01*
X141832191Y-143941000D01*
X141598802Y-144037673D01*
X141420173Y-144216301D01*
X141410605Y-144239400D01*
X141284834Y-144239400D01*
X141284834Y-141006889D01*
X140983271Y-140277051D01*
X140425366Y-139718171D01*
X139696055Y-139415335D01*
X138906369Y-139414646D01*
X138176531Y-139716209D01*
X137617651Y-140274114D01*
X137314815Y-141003425D01*
X137314126Y-141793111D01*
X137615689Y-142522949D01*
X138173594Y-143081829D01*
X138902905Y-143384665D01*
X139692591Y-143385354D01*
X140422429Y-143083791D01*
X140981309Y-142525886D01*
X141284145Y-141796575D01*
X141284834Y-141006889D01*
X141284834Y-144239400D01*
X138967609Y-144239400D01*
X136974100Y-142245890D01*
X136974100Y-138550500D01*
X136918030Y-138268615D01*
X136758355Y-138029645D01*
X135891074Y-137162364D01*
X135966757Y-136980100D01*
X135967242Y-136424339D01*
X135755010Y-135910697D01*
X135362370Y-135517371D01*
X134849100Y-135304243D01*
X134429832Y-135303877D01*
X137881355Y-131852355D01*
X138041030Y-131613385D01*
X138041030Y-131613384D01*
X138097100Y-131331500D01*
X138097100Y-131104500D01*
X138109190Y-131104500D01*
X138111809Y-131104500D01*
X138139250Y-131104500D01*
X138158653Y-131085096D01*
X138345198Y-131007827D01*
X138360499Y-130992525D01*
X138375801Y-131007827D01*
X138562346Y-131085096D01*
X138581750Y-131104500D01*
X138609190Y-131104500D01*
X138611810Y-131104500D01*
X138861809Y-131104500D01*
X139111809Y-131104500D01*
X139345198Y-131007827D01*
X139523827Y-130829199D01*
X139620500Y-130595810D01*
X139620500Y-130556100D01*
X140091890Y-130556100D01*
X141965900Y-132430110D01*
X141965900Y-132611105D01*
X141952500Y-132616655D01*
X141728809Y-132524000D01*
X141488250Y-132524000D01*
X141329500Y-132682750D01*
X141329500Y-133407000D01*
X141349500Y-133407000D01*
X141349500Y-133661000D01*
X141329500Y-133661000D01*
X141329500Y-134385250D01*
X141488250Y-134544000D01*
X141728809Y-134544000D01*
X141952499Y-134451344D01*
X141965900Y-134456894D01*
X141965900Y-134833605D01*
X141952500Y-134839155D01*
X141728809Y-134746500D01*
X141488250Y-134746500D01*
X141329500Y-134905250D01*
X141329500Y-135629500D01*
X141349500Y-135629500D01*
X141349500Y-135883500D01*
X141329500Y-135883500D01*
X141329500Y-136607750D01*
X141488250Y-136766500D01*
X141728809Y-136766500D01*
X141952499Y-136673844D01*
X141965900Y-136679394D01*
X141965900Y-137166200D01*
X141025710Y-137166200D01*
X140590526Y-136731016D01*
X140676191Y-136766500D01*
X140916750Y-136766500D01*
X141075500Y-136607750D01*
X141075500Y-135883500D01*
X141055500Y-135883500D01*
X141055500Y-135629500D01*
X141075500Y-135629500D01*
X141075500Y-134905250D01*
X140916750Y-134746500D01*
X140676191Y-134746500D01*
X140542800Y-134801752D01*
X140542800Y-134753200D01*
X140486730Y-134471315D01*
X140481378Y-134463305D01*
X140676191Y-134544000D01*
X140916750Y-134544000D01*
X141075500Y-134385250D01*
X141075500Y-133661000D01*
X141075500Y-133407000D01*
X141075500Y-132682750D01*
X140916750Y-132524000D01*
X140676191Y-132524000D01*
X140442802Y-132620673D01*
X140264173Y-132799301D01*
X140167500Y-133032690D01*
X140167500Y-133248250D01*
X140326250Y-133407000D01*
X141075500Y-133407000D01*
X141075500Y-133661000D01*
X140326250Y-133661000D01*
X140167500Y-133819750D01*
X140167500Y-134035310D01*
X140194002Y-134099292D01*
X139819055Y-133724345D01*
X139580085Y-133564670D01*
X139298200Y-133508600D01*
X138740079Y-133508600D01*
X138613689Y-133202711D01*
X138310286Y-132898778D01*
X137913668Y-132734087D01*
X137484216Y-132733713D01*
X137087311Y-132897711D01*
X136783378Y-133201114D01*
X136618687Y-133597732D01*
X136618313Y-134027184D01*
X136782311Y-134424089D01*
X137085714Y-134728022D01*
X137482332Y-134892713D01*
X137798914Y-134892988D01*
X137847915Y-134925730D01*
X138129800Y-134981800D01*
X138993090Y-134981800D01*
X139069600Y-135058310D01*
X139069600Y-136988400D01*
X139125670Y-137270285D01*
X139285345Y-137509255D01*
X140199745Y-138423655D01*
X140438715Y-138583330D01*
X140438716Y-138583330D01*
X140720600Y-138639400D01*
X142396690Y-138639400D01*
X146041900Y-142284610D01*
X146041900Y-144741475D01*
X146041900Y-144741475D01*
G37*
X146041900Y-144741475D02*
X146037802Y-144743173D01*
X145859173Y-144921801D01*
X145762500Y-145155190D01*
X145762500Y-145407809D01*
X145762500Y-145573290D01*
X145203855Y-145014645D01*
X145193386Y-145007650D01*
X145157827Y-144921802D01*
X144979199Y-144743173D01*
X144745810Y-144646500D01*
X144493191Y-144646500D01*
X144391210Y-144646500D01*
X144199855Y-144455145D01*
X143960885Y-144295470D01*
X143679000Y-144239400D01*
X143256394Y-144239400D01*
X143246827Y-144216302D01*
X143068199Y-144037673D01*
X142834810Y-143941000D01*
X142582191Y-143941000D01*
X141832191Y-143941000D01*
X141598802Y-144037673D01*
X141420173Y-144216301D01*
X141410605Y-144239400D01*
X141284834Y-144239400D01*
X141284834Y-141006889D01*
X140983271Y-140277051D01*
X140425366Y-139718171D01*
X139696055Y-139415335D01*
X138906369Y-139414646D01*
X138176531Y-139716209D01*
X137617651Y-140274114D01*
X137314815Y-141003425D01*
X137314126Y-141793111D01*
X137615689Y-142522949D01*
X138173594Y-143081829D01*
X138902905Y-143384665D01*
X139692591Y-143385354D01*
X140422429Y-143083791D01*
X140981309Y-142525886D01*
X141284145Y-141796575D01*
X141284834Y-141006889D01*
X141284834Y-144239400D01*
X138967609Y-144239400D01*
X136974100Y-142245890D01*
X136974100Y-138550500D01*
X136918030Y-138268615D01*
X136758355Y-138029645D01*
X135891074Y-137162364D01*
X135966757Y-136980100D01*
X135967242Y-136424339D01*
X135755010Y-135910697D01*
X135362370Y-135517371D01*
X134849100Y-135304243D01*
X134429832Y-135303877D01*
X137881355Y-131852355D01*
X138041030Y-131613385D01*
X138041030Y-131613384D01*
X138097100Y-131331500D01*
X138097100Y-131104500D01*
X138109190Y-131104500D01*
X138111809Y-131104500D01*
X138139250Y-131104500D01*
X138158653Y-131085096D01*
X138345198Y-131007827D01*
X138360499Y-130992525D01*
X138375801Y-131007827D01*
X138562346Y-131085096D01*
X138581750Y-131104500D01*
X138609190Y-131104500D01*
X138611810Y-131104500D01*
X138861809Y-131104500D01*
X139111809Y-131104500D01*
X139345198Y-131007827D01*
X139523827Y-130829199D01*
X139620500Y-130595810D01*
X139620500Y-130556100D01*
X140091890Y-130556100D01*
X141965900Y-132430110D01*
X141965900Y-132611105D01*
X141952500Y-132616655D01*
X141728809Y-132524000D01*
X141488250Y-132524000D01*
X141329500Y-132682750D01*
X141329500Y-133407000D01*
X141349500Y-133407000D01*
X141349500Y-133661000D01*
X141329500Y-133661000D01*
X141329500Y-134385250D01*
X141488250Y-134544000D01*
X141728809Y-134544000D01*
X141952499Y-134451344D01*
X141965900Y-134456894D01*
X141965900Y-134833605D01*
X141952500Y-134839155D01*
X141728809Y-134746500D01*
X141488250Y-134746500D01*
X141329500Y-134905250D01*
X141329500Y-135629500D01*
X141349500Y-135629500D01*
X141349500Y-135883500D01*
X141329500Y-135883500D01*
X141329500Y-136607750D01*
X141488250Y-136766500D01*
X141728809Y-136766500D01*
X141952499Y-136673844D01*
X141965900Y-136679394D01*
X141965900Y-137166200D01*
X141025710Y-137166200D01*
X140590526Y-136731016D01*
X140676191Y-136766500D01*
X140916750Y-136766500D01*
X141075500Y-136607750D01*
X141075500Y-135883500D01*
X141055500Y-135883500D01*
X141055500Y-135629500D01*
X141075500Y-135629500D01*
X141075500Y-134905250D01*
X140916750Y-134746500D01*
X140676191Y-134746500D01*
X140542800Y-134801752D01*
X140542800Y-134753200D01*
X140486730Y-134471315D01*
X140481378Y-134463305D01*
X140676191Y-134544000D01*
X140916750Y-134544000D01*
X141075500Y-134385250D01*
X141075500Y-133661000D01*
X141075500Y-133407000D01*
X141075500Y-132682750D01*
X140916750Y-132524000D01*
X140676191Y-132524000D01*
X140442802Y-132620673D01*
X140264173Y-132799301D01*
X140167500Y-133032690D01*
X140167500Y-133248250D01*
X140326250Y-133407000D01*
X141075500Y-133407000D01*
X141075500Y-133661000D01*
X140326250Y-133661000D01*
X140167500Y-133819750D01*
X140167500Y-134035310D01*
X140194002Y-134099292D01*
X139819055Y-133724345D01*
X139580085Y-133564670D01*
X139298200Y-133508600D01*
X138740079Y-133508600D01*
X138613689Y-133202711D01*
X138310286Y-132898778D01*
X137913668Y-132734087D01*
X137484216Y-132733713D01*
X137087311Y-132897711D01*
X136783378Y-133201114D01*
X136618687Y-133597732D01*
X136618313Y-134027184D01*
X136782311Y-134424089D01*
X137085714Y-134728022D01*
X137482332Y-134892713D01*
X137798914Y-134892988D01*
X137847915Y-134925730D01*
X138129800Y-134981800D01*
X138993090Y-134981800D01*
X139069600Y-135058310D01*
X139069600Y-136988400D01*
X139125670Y-137270285D01*
X139285345Y-137509255D01*
X140199745Y-138423655D01*
X140438715Y-138583330D01*
X140438716Y-138583330D01*
X140720600Y-138639400D01*
X142396690Y-138639400D01*
X146041900Y-142284610D01*
X146041900Y-144741475D01*
G36*
X156367677Y-151115000D02*
X154535006Y-151115000D01*
X154535006Y-147901759D01*
X154248686Y-147208809D01*
X153718979Y-146678178D01*
X153026531Y-146390648D01*
X152276759Y-146389994D01*
X151583809Y-146676314D01*
X151053178Y-147206021D01*
X150765648Y-147898469D01*
X150764994Y-148648241D01*
X151051314Y-149341191D01*
X151581021Y-149871822D01*
X152273469Y-150159352D01*
X153023241Y-150160006D01*
X153716191Y-149873686D01*
X154246822Y-149343979D01*
X154534352Y-148651531D01*
X154535006Y-147901759D01*
X154535006Y-151115000D01*
X149503000Y-151115000D01*
X149503000Y-146875309D01*
X149503000Y-146634750D01*
X149344250Y-146476000D01*
X148620000Y-146476000D01*
X148620000Y-147225250D01*
X148778750Y-147384000D01*
X148994310Y-147384000D01*
X149227699Y-147287327D01*
X149406327Y-147108698D01*
X149503000Y-146875309D01*
X149503000Y-151115000D01*
X142206500Y-151115000D01*
X142206500Y-147352250D01*
X142206500Y-146603000D01*
X141482250Y-146603000D01*
X141323500Y-146761750D01*
X141323500Y-147002309D01*
X141420173Y-147235698D01*
X141598801Y-147414327D01*
X141832190Y-147511000D01*
X142047750Y-147511000D01*
X142206500Y-147352250D01*
X142206500Y-151115000D01*
X135370608Y-151115000D01*
X129285874Y-151115000D01*
X129285874Y-141006889D01*
X128984311Y-140277051D01*
X128426406Y-139718171D01*
X127697095Y-139415335D01*
X126907409Y-139414646D01*
X126177571Y-139716209D01*
X125618691Y-140274114D01*
X125315855Y-141003425D01*
X125315166Y-141793111D01*
X125616729Y-142522949D01*
X126174634Y-143081829D01*
X126903945Y-143384665D01*
X127693631Y-143385354D01*
X128423469Y-143083791D01*
X128982349Y-142525886D01*
X129285185Y-141796575D01*
X129285874Y-141006889D01*
X129285874Y-151115000D01*
X125027000Y-151115000D01*
X125027000Y-148200000D01*
X125027000Y-113290025D01*
X125135301Y-113398327D01*
X125368690Y-113495000D01*
X125621309Y-113495000D01*
X126891309Y-113495000D01*
X127124698Y-113398327D01*
X127303327Y-113219699D01*
X127400000Y-112986310D01*
X127496673Y-113219698D01*
X127675301Y-113398327D01*
X127908690Y-113495000D01*
X128161309Y-113495000D01*
X129431309Y-113495000D01*
X129664698Y-113398327D01*
X129843327Y-113219699D01*
X129940000Y-112986310D01*
X129940000Y-112733691D01*
X129940000Y-111756600D01*
X131030000Y-111756600D01*
X131311885Y-111700530D01*
X131550855Y-111540855D01*
X133862242Y-109229467D01*
X134113784Y-109229687D01*
X134510689Y-109065689D01*
X134814622Y-108762286D01*
X134882124Y-108599722D01*
X134956673Y-108779698D01*
X134976974Y-108799999D01*
X134956673Y-108820301D01*
X134860000Y-109053690D01*
X134860000Y-109306309D01*
X134860000Y-112986309D01*
X134956673Y-113219698D01*
X135135301Y-113398327D01*
X135368690Y-113495000D01*
X135621309Y-113495000D01*
X136891309Y-113495000D01*
X137124698Y-113398327D01*
X137303327Y-113219699D01*
X137400000Y-112986310D01*
X137496673Y-113219698D01*
X137675301Y-113398327D01*
X137908690Y-113495000D01*
X138161309Y-113495000D01*
X139431309Y-113495000D01*
X139664698Y-113398327D01*
X139835657Y-113227367D01*
X140419190Y-113810900D01*
X137825005Y-113810900D01*
X137825000Y-113810899D01*
X137589883Y-113857667D01*
X137543115Y-113866970D01*
X137304145Y-114026645D01*
X136224645Y-115106145D01*
X136068387Y-115340000D01*
X136010750Y-115340000D01*
X135852000Y-115498750D01*
X135852000Y-116223000D01*
X135872000Y-116223000D01*
X135872000Y-116477000D01*
X135852000Y-116477000D01*
X135852000Y-117181250D01*
X135844500Y-117188750D01*
X135844500Y-117913000D01*
X135864500Y-117913000D01*
X135864500Y-118167000D01*
X135844500Y-118167000D01*
X135844500Y-118187000D01*
X135590500Y-118187000D01*
X135590500Y-118167000D01*
X135570500Y-118167000D01*
X135570500Y-117913000D01*
X135590500Y-117913000D01*
X135590500Y-117208750D01*
X135598000Y-117201250D01*
X135598000Y-116477000D01*
X135578000Y-116477000D01*
X135578000Y-116223000D01*
X135598000Y-116223000D01*
X135598000Y-115498750D01*
X135439250Y-115340000D01*
X135198691Y-115340000D01*
X134975000Y-115432655D01*
X134751310Y-115340000D01*
X134498691Y-115340000D01*
X133698691Y-115340000D01*
X133465302Y-115436673D01*
X133286673Y-115615301D01*
X133234049Y-115742345D01*
X133104145Y-115829145D01*
X132712757Y-116220532D01*
X132461216Y-116220313D01*
X132064311Y-116384311D01*
X131760378Y-116687714D01*
X131595687Y-117084332D01*
X131595313Y-117513784D01*
X131759311Y-117910689D01*
X132062714Y-118214622D01*
X132459332Y-118379313D01*
X132888784Y-118379687D01*
X133182500Y-118258325D01*
X133182500Y-118541309D01*
X133279173Y-118774698D01*
X133457801Y-118953327D01*
X133691190Y-119050000D01*
X133943809Y-119050000D01*
X134123900Y-119050000D01*
X134123900Y-119834500D01*
X134111810Y-119834500D01*
X134109191Y-119834500D01*
X133859191Y-119834500D01*
X133611810Y-119834500D01*
X133609191Y-119834500D01*
X133359191Y-119834500D01*
X133109191Y-119834500D01*
X132875802Y-119931173D01*
X132697173Y-120109801D01*
X132600500Y-120343190D01*
X132600500Y-120595809D01*
X132600500Y-121895809D01*
X132645536Y-122004535D01*
X132536810Y-121959500D01*
X132284191Y-121959500D01*
X130984191Y-121959500D01*
X130750802Y-122056173D01*
X130572173Y-122234801D01*
X130527125Y-122343555D01*
X130506806Y-122294500D01*
X130586000Y-122103310D01*
X130586000Y-121850691D01*
X130586000Y-121215691D01*
X130489327Y-120982302D01*
X130404525Y-120897500D01*
X130489327Y-120812698D01*
X130586000Y-120579309D01*
X130586000Y-120421250D01*
X130586000Y-119849750D01*
X130586000Y-119691691D01*
X130489327Y-119458302D01*
X130310699Y-119279673D01*
X130260006Y-119258675D01*
X130260006Y-116076759D01*
X129973686Y-115383809D01*
X129443979Y-114853178D01*
X128751531Y-114565648D01*
X128001759Y-114564994D01*
X127308809Y-114851314D01*
X126778178Y-115381021D01*
X126490648Y-116073469D01*
X126489994Y-116823241D01*
X126776314Y-117516191D01*
X127306021Y-118046822D01*
X127998469Y-118334352D01*
X128748241Y-118335006D01*
X129441191Y-118048686D01*
X129971822Y-117518979D01*
X130259352Y-116826531D01*
X130260006Y-116076759D01*
X130260006Y-119258675D01*
X130077310Y-119183000D01*
X129824691Y-119183000D01*
X129665250Y-119183000D01*
X129506500Y-119341750D01*
X129506500Y-120008500D01*
X130427250Y-120008500D01*
X130586000Y-119849750D01*
X130586000Y-120421250D01*
X130427250Y-120262500D01*
X129506500Y-120262500D01*
X129506500Y-120282500D01*
X129252500Y-120282500D01*
X129252500Y-120262500D01*
X129252500Y-120008500D01*
X129252500Y-119341750D01*
X129093750Y-119183000D01*
X128934309Y-119183000D01*
X128681690Y-119183000D01*
X128448301Y-119279673D01*
X128269673Y-119458302D01*
X128173000Y-119691691D01*
X128173000Y-119849750D01*
X128331750Y-120008500D01*
X129252500Y-120008500D01*
X129252500Y-120262500D01*
X128331750Y-120262500D01*
X128173000Y-120421250D01*
X128173000Y-120579309D01*
X128269673Y-120812698D01*
X128354474Y-120897499D01*
X128269673Y-120982301D01*
X128173000Y-121215690D01*
X128173000Y-121468309D01*
X128173000Y-122103309D01*
X128252193Y-122294499D01*
X128173000Y-122485690D01*
X128173000Y-122738309D01*
X128173000Y-123373309D01*
X128269673Y-123606698D01*
X128354474Y-123691499D01*
X128269673Y-123776301D01*
X128173000Y-124009690D01*
X128173000Y-124262309D01*
X128173000Y-124897309D01*
X128265345Y-125120249D01*
X128173000Y-125343190D01*
X128173000Y-125595809D01*
X128173000Y-126230809D01*
X128269673Y-126464198D01*
X128354474Y-126548999D01*
X128269673Y-126633801D01*
X128173000Y-126867190D01*
X128173000Y-127119809D01*
X128173000Y-127754809D01*
X128251393Y-127944067D01*
X128168500Y-128144190D01*
X128168500Y-128396809D01*
X128168500Y-129031809D01*
X128265173Y-129265198D01*
X128349974Y-129350000D01*
X128265173Y-129434802D01*
X128168500Y-129668191D01*
X128168500Y-129826250D01*
X128327250Y-129985000D01*
X129248000Y-129985000D01*
X129248000Y-129965000D01*
X129502000Y-129965000D01*
X129502000Y-129985000D01*
X130422750Y-129985000D01*
X130581500Y-129826250D01*
X130581500Y-129668191D01*
X130484827Y-129434802D01*
X130400025Y-129350000D01*
X130484827Y-129265199D01*
X130581500Y-129031810D01*
X130581500Y-128779191D01*
X130581500Y-128713525D01*
X130750801Y-128882827D01*
X130984190Y-128979500D01*
X131023900Y-128979500D01*
X131023900Y-128993500D01*
X131079970Y-129275385D01*
X131239645Y-129514355D01*
X131881400Y-130156110D01*
X131881400Y-130669500D01*
X131824250Y-130669500D01*
X131665500Y-130828250D01*
X131665500Y-131577500D01*
X131685500Y-131577500D01*
X131685500Y-131831500D01*
X131665500Y-131831500D01*
X131665500Y-131851500D01*
X131411500Y-131851500D01*
X131411500Y-131831500D01*
X131411500Y-131577500D01*
X131411500Y-130828250D01*
X131252750Y-130669500D01*
X131037190Y-130669500D01*
X130803801Y-130766173D01*
X130625173Y-130944802D01*
X130617750Y-130962722D01*
X130610327Y-130944802D01*
X130469775Y-130804249D01*
X130484827Y-130789198D01*
X130581500Y-130555809D01*
X130581500Y-130397750D01*
X130422750Y-130239000D01*
X129502000Y-130239000D01*
X129502000Y-130259000D01*
X129248000Y-130259000D01*
X129248000Y-130239000D01*
X128327250Y-130239000D01*
X128168500Y-130397750D01*
X128168500Y-130555809D01*
X128215592Y-130669500D01*
X128204750Y-130669500D01*
X128046000Y-130828250D01*
X128046000Y-131577500D01*
X128770250Y-131577500D01*
X128808000Y-131539750D01*
X128845750Y-131577500D01*
X129570000Y-131577500D01*
X129570000Y-131557500D01*
X129824000Y-131557500D01*
X129824000Y-131577500D01*
X130548250Y-131577500D01*
X130617750Y-131508000D01*
X130687250Y-131577500D01*
X131411500Y-131577500D01*
X131411500Y-131831500D01*
X130687250Y-131831500D01*
X130617750Y-131901000D01*
X130548250Y-131831500D01*
X129824000Y-131831500D01*
X129824000Y-131851500D01*
X129570000Y-131851500D01*
X129570000Y-131831500D01*
X128845750Y-131831500D01*
X128808000Y-131869250D01*
X128770250Y-131831500D01*
X128046000Y-131831500D01*
X128046000Y-131851500D01*
X127792000Y-131851500D01*
X127792000Y-131831500D01*
X127792000Y-131577500D01*
X127792000Y-130828250D01*
X127633250Y-130669500D01*
X127417690Y-130669500D01*
X127184301Y-130766173D01*
X127005673Y-130944802D01*
X126909000Y-131178191D01*
X126909000Y-131418750D01*
X127067750Y-131577500D01*
X127792000Y-131577500D01*
X127792000Y-131831500D01*
X127067750Y-131831500D01*
X126909000Y-131990250D01*
X126909000Y-132230809D01*
X127001655Y-132454499D01*
X126909000Y-132678190D01*
X126909000Y-132930809D01*
X126909000Y-133730809D01*
X127005673Y-133964198D01*
X127184301Y-134142827D01*
X127417690Y-134239500D01*
X127670309Y-134239500D01*
X128420309Y-134239500D01*
X128653698Y-134142827D01*
X128808000Y-133988525D01*
X128962301Y-134142827D01*
X129195690Y-134239500D01*
X129448309Y-134239500D01*
X130198309Y-134239500D01*
X130431698Y-134142827D01*
X130610327Y-133964199D01*
X130617750Y-133946277D01*
X130625173Y-133964198D01*
X130803801Y-134142827D01*
X131037190Y-134239500D01*
X131289809Y-134239500D01*
X132039809Y-134239500D01*
X132273198Y-134142827D01*
X132451827Y-133964199D01*
X132539816Y-133751773D01*
X132579355Y-133725355D01*
X132858033Y-133446676D01*
X132894714Y-133483422D01*
X133165448Y-133595841D01*
X131462145Y-135299145D01*
X131346831Y-135471722D01*
X131239697Y-135515990D01*
X130846371Y-135908630D01*
X130633243Y-136421900D01*
X130632758Y-136977661D01*
X130844990Y-137491303D01*
X131053832Y-137700510D01*
X130846371Y-137907610D01*
X130633243Y-138420880D01*
X130632758Y-138976641D01*
X130844990Y-139490283D01*
X131237630Y-139883609D01*
X131750900Y-140096737D01*
X132306661Y-140097222D01*
X132820303Y-139884990D01*
X133213629Y-139492350D01*
X133293394Y-139300252D01*
X133347603Y-139431123D01*
X133589787Y-139500588D01*
X134390395Y-138699980D01*
X134376252Y-138685837D01*
X134555857Y-138506232D01*
X134570000Y-138520375D01*
X134584142Y-138506232D01*
X134763747Y-138685837D01*
X134749605Y-138699980D01*
X134763747Y-138714122D01*
X134584142Y-138893727D01*
X134570000Y-138879585D01*
X133769392Y-139680193D01*
X133838857Y-139922377D01*
X134362302Y-140109124D01*
X134917368Y-140081342D01*
X135301143Y-139922377D01*
X135370607Y-139680195D01*
X135370608Y-139680196D01*
X135485618Y-139795206D01*
X135500900Y-139779924D01*
X135500900Y-142551000D01*
X135556970Y-142832885D01*
X135716645Y-143071855D01*
X138141645Y-145496855D01*
X138380615Y-145656530D01*
X138662500Y-145712600D01*
X141410605Y-145712600D01*
X141416155Y-145726000D01*
X141323500Y-145949691D01*
X141323500Y-146190250D01*
X141482250Y-146349000D01*
X142206500Y-146349000D01*
X142206500Y-146329000D01*
X142460500Y-146329000D01*
X142460500Y-146349000D01*
X143184750Y-146349000D01*
X143277000Y-146256750D01*
X143381250Y-146361000D01*
X143577887Y-146361000D01*
X143731190Y-146424500D01*
X143983809Y-146424500D01*
X144385500Y-146424500D01*
X144385500Y-146551500D01*
X143731191Y-146551500D01*
X143577888Y-146615000D01*
X143381250Y-146615000D01*
X143289000Y-146707250D01*
X143184750Y-146603000D01*
X142460500Y-146603000D01*
X142460500Y-147352250D01*
X142619250Y-147511000D01*
X142834810Y-147511000D01*
X143068199Y-147414327D01*
X143222500Y-147260025D01*
X143222500Y-147312809D01*
X143222500Y-147820809D01*
X143247900Y-147882129D01*
X143247900Y-148439552D01*
X142962275Y-148724680D01*
X142778210Y-149167959D01*
X142777791Y-149647935D01*
X142961082Y-150091535D01*
X143300180Y-150431225D01*
X143743459Y-150615290D01*
X144223435Y-150615709D01*
X144667035Y-150432418D01*
X145006725Y-150093320D01*
X145190790Y-149650041D01*
X145191209Y-149170065D01*
X145007918Y-148726465D01*
X144721100Y-148439146D01*
X144721100Y-148329500D01*
X144745809Y-148329500D01*
X144979198Y-148232827D01*
X145075007Y-148137017D01*
X145155385Y-148121030D01*
X145394355Y-147961355D01*
X145762500Y-147593210D01*
X145762500Y-147820809D01*
X145859173Y-148054198D01*
X146037801Y-148232827D01*
X146271190Y-148329500D01*
X146523809Y-148329500D01*
X147285809Y-148329500D01*
X147519198Y-148232827D01*
X147697827Y-148054199D01*
X147794500Y-147820810D01*
X147794500Y-147568191D01*
X147794500Y-147302321D01*
X147991690Y-147384000D01*
X148207250Y-147384000D01*
X148366000Y-147225250D01*
X148366000Y-146476000D01*
X147641750Y-146476000D01*
X147484110Y-146633639D01*
X147285810Y-146551500D01*
X147033191Y-146551500D01*
X146271191Y-146551500D01*
X146054600Y-146641215D01*
X146054600Y-146334785D01*
X146271190Y-146424500D01*
X146523809Y-146424500D01*
X147285809Y-146424500D01*
X147519198Y-146327827D01*
X147574925Y-146272100D01*
X147806500Y-146272100D01*
X148058371Y-146222000D01*
X148366000Y-146222000D01*
X148366000Y-146202000D01*
X148620000Y-146202000D01*
X148620000Y-146222000D01*
X149344250Y-146222000D01*
X149503000Y-146063250D01*
X149503000Y-145822691D01*
X149410344Y-145599000D01*
X149415894Y-145585600D01*
X151175000Y-145585600D01*
X151199000Y-145585600D01*
X154393890Y-145585600D01*
X155413400Y-146605110D01*
X155413400Y-148450000D01*
X155469470Y-148731885D01*
X155629145Y-148970855D01*
X156349000Y-149690710D01*
X156349000Y-151069909D01*
X156367677Y-151115000D01*
X156367677Y-151115000D01*
G37*
X156367677Y-151115000D02*
X154535006Y-151115000D01*
X154535006Y-147901759D01*
X154248686Y-147208809D01*
X153718979Y-146678178D01*
X153026531Y-146390648D01*
X152276759Y-146389994D01*
X151583809Y-146676314D01*
X151053178Y-147206021D01*
X150765648Y-147898469D01*
X150764994Y-148648241D01*
X151051314Y-149341191D01*
X151581021Y-149871822D01*
X152273469Y-150159352D01*
X153023241Y-150160006D01*
X153716191Y-149873686D01*
X154246822Y-149343979D01*
X154534352Y-148651531D01*
X154535006Y-147901759D01*
X154535006Y-151115000D01*
X149503000Y-151115000D01*
X149503000Y-146875309D01*
X149503000Y-146634750D01*
X149344250Y-146476000D01*
X148620000Y-146476000D01*
X148620000Y-147225250D01*
X148778750Y-147384000D01*
X148994310Y-147384000D01*
X149227699Y-147287327D01*
X149406327Y-147108698D01*
X149503000Y-146875309D01*
X149503000Y-151115000D01*
X142206500Y-151115000D01*
X142206500Y-147352250D01*
X142206500Y-146603000D01*
X141482250Y-146603000D01*
X141323500Y-146761750D01*
X141323500Y-147002309D01*
X141420173Y-147235698D01*
X141598801Y-147414327D01*
X141832190Y-147511000D01*
X142047750Y-147511000D01*
X142206500Y-147352250D01*
X142206500Y-151115000D01*
X135370608Y-151115000D01*
X129285874Y-151115000D01*
X129285874Y-141006889D01*
X128984311Y-140277051D01*
X128426406Y-139718171D01*
X127697095Y-139415335D01*
X126907409Y-139414646D01*
X126177571Y-139716209D01*
X125618691Y-140274114D01*
X125315855Y-141003425D01*
X125315166Y-141793111D01*
X125616729Y-142522949D01*
X126174634Y-143081829D01*
X126903945Y-143384665D01*
X127693631Y-143385354D01*
X128423469Y-143083791D01*
X128982349Y-142525886D01*
X129285185Y-141796575D01*
X129285874Y-141006889D01*
X129285874Y-151115000D01*
X125027000Y-151115000D01*
X125027000Y-148200000D01*
X125027000Y-113290025D01*
X125135301Y-113398327D01*
X125368690Y-113495000D01*
X125621309Y-113495000D01*
X126891309Y-113495000D01*
X127124698Y-113398327D01*
X127303327Y-113219699D01*
X127400000Y-112986310D01*
X127496673Y-113219698D01*
X127675301Y-113398327D01*
X127908690Y-113495000D01*
X128161309Y-113495000D01*
X129431309Y-113495000D01*
X129664698Y-113398327D01*
X129843327Y-113219699D01*
X129940000Y-112986310D01*
X129940000Y-112733691D01*
X129940000Y-111756600D01*
X131030000Y-111756600D01*
X131311885Y-111700530D01*
X131550855Y-111540855D01*
X133862242Y-109229467D01*
X134113784Y-109229687D01*
X134510689Y-109065689D01*
X134814622Y-108762286D01*
X134882124Y-108599722D01*
X134956673Y-108779698D01*
X134976974Y-108799999D01*
X134956673Y-108820301D01*
X134860000Y-109053690D01*
X134860000Y-109306309D01*
X134860000Y-112986309D01*
X134956673Y-113219698D01*
X135135301Y-113398327D01*
X135368690Y-113495000D01*
X135621309Y-113495000D01*
X136891309Y-113495000D01*
X137124698Y-113398327D01*
X137303327Y-113219699D01*
X137400000Y-112986310D01*
X137496673Y-113219698D01*
X137675301Y-113398327D01*
X137908690Y-113495000D01*
X138161309Y-113495000D01*
X139431309Y-113495000D01*
X139664698Y-113398327D01*
X139835657Y-113227367D01*
X140419190Y-113810900D01*
X137825005Y-113810900D01*
X137825000Y-113810899D01*
X137589883Y-113857667D01*
X137543115Y-113866970D01*
X137304145Y-114026645D01*
X136224645Y-115106145D01*
X136068387Y-115340000D01*
X136010750Y-115340000D01*
X135852000Y-115498750D01*
X135852000Y-116223000D01*
X135872000Y-116223000D01*
X135872000Y-116477000D01*
X135852000Y-116477000D01*
X135852000Y-117181250D01*
X135844500Y-117188750D01*
X135844500Y-117913000D01*
X135864500Y-117913000D01*
X135864500Y-118167000D01*
X135844500Y-118167000D01*
X135844500Y-118187000D01*
X135590500Y-118187000D01*
X135590500Y-118167000D01*
X135570500Y-118167000D01*
X135570500Y-117913000D01*
X135590500Y-117913000D01*
X135590500Y-117208750D01*
X135598000Y-117201250D01*
X135598000Y-116477000D01*
X135578000Y-116477000D01*
X135578000Y-116223000D01*
X135598000Y-116223000D01*
X135598000Y-115498750D01*
X135439250Y-115340000D01*
X135198691Y-115340000D01*
X134975000Y-115432655D01*
X134751310Y-115340000D01*
X134498691Y-115340000D01*
X133698691Y-115340000D01*
X133465302Y-115436673D01*
X133286673Y-115615301D01*
X133234049Y-115742345D01*
X133104145Y-115829145D01*
X132712757Y-116220532D01*
X132461216Y-116220313D01*
X132064311Y-116384311D01*
X131760378Y-116687714D01*
X131595687Y-117084332D01*
X131595313Y-117513784D01*
X131759311Y-117910689D01*
X132062714Y-118214622D01*
X132459332Y-118379313D01*
X132888784Y-118379687D01*
X133182500Y-118258325D01*
X133182500Y-118541309D01*
X133279173Y-118774698D01*
X133457801Y-118953327D01*
X133691190Y-119050000D01*
X133943809Y-119050000D01*
X134123900Y-119050000D01*
X134123900Y-119834500D01*
X134111810Y-119834500D01*
X134109191Y-119834500D01*
X133859191Y-119834500D01*
X133611810Y-119834500D01*
X133609191Y-119834500D01*
X133359191Y-119834500D01*
X133109191Y-119834500D01*
X132875802Y-119931173D01*
X132697173Y-120109801D01*
X132600500Y-120343190D01*
X132600500Y-120595809D01*
X132600500Y-121895809D01*
X132645536Y-122004535D01*
X132536810Y-121959500D01*
X132284191Y-121959500D01*
X130984191Y-121959500D01*
X130750802Y-122056173D01*
X130572173Y-122234801D01*
X130527125Y-122343555D01*
X130506806Y-122294500D01*
X130586000Y-122103310D01*
X130586000Y-121850691D01*
X130586000Y-121215691D01*
X130489327Y-120982302D01*
X130404525Y-120897500D01*
X130489327Y-120812698D01*
X130586000Y-120579309D01*
X130586000Y-120421250D01*
X130586000Y-119849750D01*
X130586000Y-119691691D01*
X130489327Y-119458302D01*
X130310699Y-119279673D01*
X130260006Y-119258675D01*
X130260006Y-116076759D01*
X129973686Y-115383809D01*
X129443979Y-114853178D01*
X128751531Y-114565648D01*
X128001759Y-114564994D01*
X127308809Y-114851314D01*
X126778178Y-115381021D01*
X126490648Y-116073469D01*
X126489994Y-116823241D01*
X126776314Y-117516191D01*
X127306021Y-118046822D01*
X127998469Y-118334352D01*
X128748241Y-118335006D01*
X129441191Y-118048686D01*
X129971822Y-117518979D01*
X130259352Y-116826531D01*
X130260006Y-116076759D01*
X130260006Y-119258675D01*
X130077310Y-119183000D01*
X129824691Y-119183000D01*
X129665250Y-119183000D01*
X129506500Y-119341750D01*
X129506500Y-120008500D01*
X130427250Y-120008500D01*
X130586000Y-119849750D01*
X130586000Y-120421250D01*
X130427250Y-120262500D01*
X129506500Y-120262500D01*
X129506500Y-120282500D01*
X129252500Y-120282500D01*
X129252500Y-120262500D01*
X129252500Y-120008500D01*
X129252500Y-119341750D01*
X129093750Y-119183000D01*
X128934309Y-119183000D01*
X128681690Y-119183000D01*
X128448301Y-119279673D01*
X128269673Y-119458302D01*
X128173000Y-119691691D01*
X128173000Y-119849750D01*
X128331750Y-120008500D01*
X129252500Y-120008500D01*
X129252500Y-120262500D01*
X128331750Y-120262500D01*
X128173000Y-120421250D01*
X128173000Y-120579309D01*
X128269673Y-120812698D01*
X128354474Y-120897499D01*
X128269673Y-120982301D01*
X128173000Y-121215690D01*
X128173000Y-121468309D01*
X128173000Y-122103309D01*
X128252193Y-122294499D01*
X128173000Y-122485690D01*
X128173000Y-122738309D01*
X128173000Y-123373309D01*
X128269673Y-123606698D01*
X128354474Y-123691499D01*
X128269673Y-123776301D01*
X128173000Y-124009690D01*
X128173000Y-124262309D01*
X128173000Y-124897309D01*
X128265345Y-125120249D01*
X128173000Y-125343190D01*
X128173000Y-125595809D01*
X128173000Y-126230809D01*
X128269673Y-126464198D01*
X128354474Y-126548999D01*
X128269673Y-126633801D01*
X128173000Y-126867190D01*
X128173000Y-127119809D01*
X128173000Y-127754809D01*
X128251393Y-127944067D01*
X128168500Y-128144190D01*
X128168500Y-128396809D01*
X128168500Y-129031809D01*
X128265173Y-129265198D01*
X128349974Y-129350000D01*
X128265173Y-129434802D01*
X128168500Y-129668191D01*
X128168500Y-129826250D01*
X128327250Y-129985000D01*
X129248000Y-129985000D01*
X129248000Y-129965000D01*
X129502000Y-129965000D01*
X129502000Y-129985000D01*
X130422750Y-129985000D01*
X130581500Y-129826250D01*
X130581500Y-129668191D01*
X130484827Y-129434802D01*
X130400025Y-129350000D01*
X130484827Y-129265199D01*
X130581500Y-129031810D01*
X130581500Y-128779191D01*
X130581500Y-128713525D01*
X130750801Y-128882827D01*
X130984190Y-128979500D01*
X131023900Y-128979500D01*
X131023900Y-128993500D01*
X131079970Y-129275385D01*
X131239645Y-129514355D01*
X131881400Y-130156110D01*
X131881400Y-130669500D01*
X131824250Y-130669500D01*
X131665500Y-130828250D01*
X131665500Y-131577500D01*
X131685500Y-131577500D01*
X131685500Y-131831500D01*
X131665500Y-131831500D01*
X131665500Y-131851500D01*
X131411500Y-131851500D01*
X131411500Y-131831500D01*
X131411500Y-131577500D01*
X131411500Y-130828250D01*
X131252750Y-130669500D01*
X131037190Y-130669500D01*
X130803801Y-130766173D01*
X130625173Y-130944802D01*
X130617750Y-130962722D01*
X130610327Y-130944802D01*
X130469775Y-130804249D01*
X130484827Y-130789198D01*
X130581500Y-130555809D01*
X130581500Y-130397750D01*
X130422750Y-130239000D01*
X129502000Y-130239000D01*
X129502000Y-130259000D01*
X129248000Y-130259000D01*
X129248000Y-130239000D01*
X128327250Y-130239000D01*
X128168500Y-130397750D01*
X128168500Y-130555809D01*
X128215592Y-130669500D01*
X128204750Y-130669500D01*
X128046000Y-130828250D01*
X128046000Y-131577500D01*
X128770250Y-131577500D01*
X128808000Y-131539750D01*
X128845750Y-131577500D01*
X129570000Y-131577500D01*
X129570000Y-131557500D01*
X129824000Y-131557500D01*
X129824000Y-131577500D01*
X130548250Y-131577500D01*
X130617750Y-131508000D01*
X130687250Y-131577500D01*
X131411500Y-131577500D01*
X131411500Y-131831500D01*
X130687250Y-131831500D01*
X130617750Y-131901000D01*
X130548250Y-131831500D01*
X129824000Y-131831500D01*
X129824000Y-131851500D01*
X129570000Y-131851500D01*
X129570000Y-131831500D01*
X128845750Y-131831500D01*
X128808000Y-131869250D01*
X128770250Y-131831500D01*
X128046000Y-131831500D01*
X128046000Y-131851500D01*
X127792000Y-131851500D01*
X127792000Y-131831500D01*
X127792000Y-131577500D01*
X127792000Y-130828250D01*
X127633250Y-130669500D01*
X127417690Y-130669500D01*
X127184301Y-130766173D01*
X127005673Y-130944802D01*
X126909000Y-131178191D01*
X126909000Y-131418750D01*
X127067750Y-131577500D01*
X127792000Y-131577500D01*
X127792000Y-131831500D01*
X127067750Y-131831500D01*
X126909000Y-131990250D01*
X126909000Y-132230809D01*
X127001655Y-132454499D01*
X126909000Y-132678190D01*
X126909000Y-132930809D01*
X126909000Y-133730809D01*
X127005673Y-133964198D01*
X127184301Y-134142827D01*
X127417690Y-134239500D01*
X127670309Y-134239500D01*
X128420309Y-134239500D01*
X128653698Y-134142827D01*
X128808000Y-133988525D01*
X128962301Y-134142827D01*
X129195690Y-134239500D01*
X129448309Y-134239500D01*
X130198309Y-134239500D01*
X130431698Y-134142827D01*
X130610327Y-133964199D01*
X130617750Y-133946277D01*
X130625173Y-133964198D01*
X130803801Y-134142827D01*
X131037190Y-134239500D01*
X131289809Y-134239500D01*
X132039809Y-134239500D01*
X132273198Y-134142827D01*
X132451827Y-133964199D01*
X132539816Y-133751773D01*
X132579355Y-133725355D01*
X132858033Y-133446676D01*
X132894714Y-133483422D01*
X133165448Y-133595841D01*
X131462145Y-135299145D01*
X131346831Y-135471722D01*
X131239697Y-135515990D01*
X130846371Y-135908630D01*
X130633243Y-136421900D01*
X130632758Y-136977661D01*
X130844990Y-137491303D01*
X131053832Y-137700510D01*
X130846371Y-137907610D01*
X130633243Y-138420880D01*
X130632758Y-138976641D01*
X130844990Y-139490283D01*
X131237630Y-139883609D01*
X131750900Y-140096737D01*
X132306661Y-140097222D01*
X132820303Y-139884990D01*
X133213629Y-139492350D01*
X133293394Y-139300252D01*
X133347603Y-139431123D01*
X133589787Y-139500588D01*
X134390395Y-138699980D01*
X134376252Y-138685837D01*
X134555857Y-138506232D01*
X134570000Y-138520375D01*
X134584142Y-138506232D01*
X134763747Y-138685837D01*
X134749605Y-138699980D01*
X134763747Y-138714122D01*
X134584142Y-138893727D01*
X134570000Y-138879585D01*
X133769392Y-139680193D01*
X133838857Y-139922377D01*
X134362302Y-140109124D01*
X134917368Y-140081342D01*
X135301143Y-139922377D01*
X135370607Y-139680195D01*
X135370608Y-139680196D01*
X135485618Y-139795206D01*
X135500900Y-139779924D01*
X135500900Y-142551000D01*
X135556970Y-142832885D01*
X135716645Y-143071855D01*
X138141645Y-145496855D01*
X138380615Y-145656530D01*
X138662500Y-145712600D01*
X141410605Y-145712600D01*
X141416155Y-145726000D01*
X141323500Y-145949691D01*
X141323500Y-146190250D01*
X141482250Y-146349000D01*
X142206500Y-146349000D01*
X142206500Y-146329000D01*
X142460500Y-146329000D01*
X142460500Y-146349000D01*
X143184750Y-146349000D01*
X143277000Y-146256750D01*
X143381250Y-146361000D01*
X143577887Y-146361000D01*
X143731190Y-146424500D01*
X143983809Y-146424500D01*
X144385500Y-146424500D01*
X144385500Y-146551500D01*
X143731191Y-146551500D01*
X143577888Y-146615000D01*
X143381250Y-146615000D01*
X143289000Y-146707250D01*
X143184750Y-146603000D01*
X142460500Y-146603000D01*
X142460500Y-147352250D01*
X142619250Y-147511000D01*
X142834810Y-147511000D01*
X143068199Y-147414327D01*
X143222500Y-147260025D01*
X143222500Y-147312809D01*
X143222500Y-147820809D01*
X143247900Y-147882129D01*
X143247900Y-148439552D01*
X142962275Y-148724680D01*
X142778210Y-149167959D01*
X142777791Y-149647935D01*
X142961082Y-150091535D01*
X143300180Y-150431225D01*
X143743459Y-150615290D01*
X144223435Y-150615709D01*
X144667035Y-150432418D01*
X145006725Y-150093320D01*
X145190790Y-149650041D01*
X145191209Y-149170065D01*
X145007918Y-148726465D01*
X144721100Y-148439146D01*
X144721100Y-148329500D01*
X144745809Y-148329500D01*
X144979198Y-148232827D01*
X145075007Y-148137017D01*
X145155385Y-148121030D01*
X145394355Y-147961355D01*
X145762500Y-147593210D01*
X145762500Y-147820809D01*
X145859173Y-148054198D01*
X146037801Y-148232827D01*
X146271190Y-148329500D01*
X146523809Y-148329500D01*
X147285809Y-148329500D01*
X147519198Y-148232827D01*
X147697827Y-148054199D01*
X147794500Y-147820810D01*
X147794500Y-147568191D01*
X147794500Y-147302321D01*
X147991690Y-147384000D01*
X148207250Y-147384000D01*
X148366000Y-147225250D01*
X148366000Y-146476000D01*
X147641750Y-146476000D01*
X147484110Y-146633639D01*
X147285810Y-146551500D01*
X147033191Y-146551500D01*
X146271191Y-146551500D01*
X146054600Y-146641215D01*
X146054600Y-146334785D01*
X146271190Y-146424500D01*
X146523809Y-146424500D01*
X147285809Y-146424500D01*
X147519198Y-146327827D01*
X147574925Y-146272100D01*
X147806500Y-146272100D01*
X148058371Y-146222000D01*
X148366000Y-146222000D01*
X148366000Y-146202000D01*
X148620000Y-146202000D01*
X148620000Y-146222000D01*
X149344250Y-146222000D01*
X149503000Y-146063250D01*
X149503000Y-145822691D01*
X149410344Y-145599000D01*
X149415894Y-145585600D01*
X151175000Y-145585600D01*
X151199000Y-145585600D01*
X154393890Y-145585600D01*
X155413400Y-146605110D01*
X155413400Y-148450000D01*
X155469470Y-148731885D01*
X155629145Y-148970855D01*
X156349000Y-149690710D01*
X156349000Y-151069909D01*
X156367677Y-151115000D01*
G36*
X159615000Y-104181086D02*
X159431310Y-104105000D01*
X159178691Y-104105000D01*
X158067440Y-104105000D01*
X158067440Y-97126979D01*
X157681563Y-96193085D01*
X156967673Y-95477948D01*
X156034454Y-95090441D01*
X155023979Y-95089560D01*
X154090085Y-95475437D01*
X153374948Y-96189327D01*
X152987441Y-97122546D01*
X152986560Y-98133021D01*
X153372437Y-99066915D01*
X154086327Y-99782052D01*
X155019546Y-100169559D01*
X156030021Y-100170440D01*
X156963915Y-99784563D01*
X157679052Y-99070673D01*
X158066559Y-98137454D01*
X158067440Y-97126979D01*
X158067440Y-104105000D01*
X157908691Y-104105000D01*
X157675302Y-104201673D01*
X157496673Y-104380301D01*
X157400000Y-104613690D01*
X157400000Y-104613691D01*
X157303327Y-104380302D01*
X157124699Y-104201673D01*
X156891310Y-104105000D01*
X156638691Y-104105000D01*
X155368691Y-104105000D01*
X155135302Y-104201673D01*
X154956673Y-104380301D01*
X154860000Y-104613690D01*
X154860000Y-104866309D01*
X154860000Y-105663666D01*
X154515668Y-105520687D01*
X154086216Y-105520313D01*
X153689311Y-105684311D01*
X153385378Y-105987714D01*
X153220687Y-106384332D01*
X153220313Y-106813784D01*
X153384311Y-107210689D01*
X153687714Y-107514622D01*
X154084332Y-107679313D01*
X154513784Y-107679687D01*
X154860000Y-107536633D01*
X154860000Y-108546309D01*
X154956673Y-108779698D01*
X154976974Y-108799999D01*
X154956673Y-108820301D01*
X154860000Y-109053690D01*
X154860000Y-109306309D01*
X154860000Y-112763400D01*
X149940000Y-112763400D01*
X149940000Y-112733691D01*
X149940000Y-111305750D01*
X149781250Y-111147000D01*
X148797000Y-111147000D01*
X148797000Y-111167000D01*
X148543000Y-111167000D01*
X148543000Y-111147000D01*
X147558750Y-111147000D01*
X147400000Y-111305750D01*
X147241250Y-111147000D01*
X146257000Y-111147000D01*
X146257000Y-111167000D01*
X146003000Y-111167000D01*
X146003000Y-111147000D01*
X145018750Y-111147000D01*
X144860000Y-111305750D01*
X144860000Y-112733691D01*
X144860000Y-112763400D01*
X141455110Y-112763400D01*
X139940000Y-111248290D01*
X139940000Y-109053691D01*
X139843327Y-108820302D01*
X139823025Y-108800000D01*
X139843327Y-108779699D01*
X139940000Y-108546310D01*
X139940000Y-108293691D01*
X139940000Y-104613691D01*
X139843327Y-104380302D01*
X139664699Y-104201673D01*
X139431310Y-104105000D01*
X139406600Y-104105000D01*
X139406600Y-101601000D01*
X139367907Y-101406479D01*
X139753900Y-101566757D01*
X140309661Y-101567242D01*
X140823303Y-101355010D01*
X141216629Y-100962370D01*
X141366605Y-100601185D01*
X141514990Y-100960303D01*
X141907630Y-101353629D01*
X142420900Y-101566757D01*
X142976661Y-101567242D01*
X143032471Y-101544181D01*
X145393400Y-103905110D01*
X145393400Y-104105000D01*
X145368691Y-104105000D01*
X145135302Y-104201673D01*
X144956673Y-104380301D01*
X144860000Y-104613690D01*
X144860000Y-104866309D01*
X144860000Y-108546309D01*
X144956673Y-108779698D01*
X144976974Y-108799999D01*
X144956673Y-108820301D01*
X144860000Y-109053690D01*
X144860000Y-109306309D01*
X144860000Y-110734250D01*
X145018750Y-110893000D01*
X146003000Y-110893000D01*
X146003000Y-110873000D01*
X146257000Y-110873000D01*
X146257000Y-110893000D01*
X147241250Y-110893000D01*
X147400000Y-110734250D01*
X147558750Y-110893000D01*
X148543000Y-110893000D01*
X148543000Y-110873000D01*
X148797000Y-110873000D01*
X148797000Y-110893000D01*
X149781250Y-110893000D01*
X149940000Y-110734250D01*
X149940000Y-109306309D01*
X149940000Y-109053690D01*
X149843327Y-108820301D01*
X149823025Y-108800000D01*
X149843327Y-108779699D01*
X149940000Y-108546310D01*
X149940000Y-108293691D01*
X149940000Y-104613691D01*
X149843327Y-104380302D01*
X149664699Y-104201673D01*
X149431310Y-104105000D01*
X149406600Y-104105000D01*
X149406600Y-101471610D01*
X149409698Y-101470327D01*
X149588327Y-101291699D01*
X149685000Y-101058310D01*
X149685000Y-100805691D01*
X149685000Y-99281691D01*
X149588327Y-99048302D01*
X149409699Y-98869673D01*
X149176310Y-98773000D01*
X148923691Y-98773000D01*
X147723386Y-98773000D01*
X148074629Y-98422370D01*
X148287757Y-97909100D01*
X148288242Y-97353339D01*
X148076010Y-96839697D01*
X147683370Y-96446371D01*
X147170100Y-96233243D01*
X146614339Y-96232758D01*
X146100697Y-96444990D01*
X145707371Y-96837630D01*
X145494243Y-97350900D01*
X145494240Y-97353336D01*
X145282010Y-96839697D01*
X144889370Y-96446371D01*
X144376100Y-96233243D01*
X143856499Y-96232789D01*
X142802855Y-95179145D01*
X142563885Y-95019470D01*
X142282000Y-94963400D01*
X136500005Y-94963400D01*
X136500000Y-94963399D01*
X136218116Y-95019469D01*
X135979145Y-95179145D01*
X132414988Y-98743301D01*
X132666559Y-98137454D01*
X132667440Y-97126979D01*
X132281563Y-96193085D01*
X131567673Y-95477948D01*
X130634454Y-95090441D01*
X129623979Y-95089560D01*
X128690085Y-95475437D01*
X127974948Y-96189327D01*
X127587441Y-97122546D01*
X127586560Y-98133021D01*
X127972437Y-99066915D01*
X128686327Y-99782052D01*
X129619546Y-100169559D01*
X130630021Y-100170440D01*
X131239809Y-99918480D01*
X129594890Y-101563400D01*
X127400000Y-101563400D01*
X127118115Y-101619470D01*
X126879145Y-101779145D01*
X125609145Y-103049145D01*
X125449470Y-103288115D01*
X125393400Y-103570000D01*
X125393400Y-104105000D01*
X125368691Y-104105000D01*
X125135302Y-104201673D01*
X125027000Y-104309974D01*
X125027000Y-91385000D01*
X159615000Y-91385000D01*
X159615000Y-104181086D01*
X159615000Y-104181086D01*
G37*
X159615000Y-104181086D02*
X159431310Y-104105000D01*
X159178691Y-104105000D01*
X158067440Y-104105000D01*
X158067440Y-97126979D01*
X157681563Y-96193085D01*
X156967673Y-95477948D01*
X156034454Y-95090441D01*
X155023979Y-95089560D01*
X154090085Y-95475437D01*
X153374948Y-96189327D01*
X152987441Y-97122546D01*
X152986560Y-98133021D01*
X153372437Y-99066915D01*
X154086327Y-99782052D01*
X155019546Y-100169559D01*
X156030021Y-100170440D01*
X156963915Y-99784563D01*
X157679052Y-99070673D01*
X158066559Y-98137454D01*
X158067440Y-97126979D01*
X158067440Y-104105000D01*
X157908691Y-104105000D01*
X157675302Y-104201673D01*
X157496673Y-104380301D01*
X157400000Y-104613690D01*
X157400000Y-104613691D01*
X157303327Y-104380302D01*
X157124699Y-104201673D01*
X156891310Y-104105000D01*
X156638691Y-104105000D01*
X155368691Y-104105000D01*
X155135302Y-104201673D01*
X154956673Y-104380301D01*
X154860000Y-104613690D01*
X154860000Y-104866309D01*
X154860000Y-105663666D01*
X154515668Y-105520687D01*
X154086216Y-105520313D01*
X153689311Y-105684311D01*
X153385378Y-105987714D01*
X153220687Y-106384332D01*
X153220313Y-106813784D01*
X153384311Y-107210689D01*
X153687714Y-107514622D01*
X154084332Y-107679313D01*
X154513784Y-107679687D01*
X154860000Y-107536633D01*
X154860000Y-108546309D01*
X154956673Y-108779698D01*
X154976974Y-108799999D01*
X154956673Y-108820301D01*
X154860000Y-109053690D01*
X154860000Y-109306309D01*
X154860000Y-112763400D01*
X149940000Y-112763400D01*
X149940000Y-112733691D01*
X149940000Y-111305750D01*
X149781250Y-111147000D01*
X148797000Y-111147000D01*
X148797000Y-111167000D01*
X148543000Y-111167000D01*
X148543000Y-111147000D01*
X147558750Y-111147000D01*
X147400000Y-111305750D01*
X147241250Y-111147000D01*
X146257000Y-111147000D01*
X146257000Y-111167000D01*
X146003000Y-111167000D01*
X146003000Y-111147000D01*
X145018750Y-111147000D01*
X144860000Y-111305750D01*
X144860000Y-112733691D01*
X144860000Y-112763400D01*
X141455110Y-112763400D01*
X139940000Y-111248290D01*
X139940000Y-109053691D01*
X139843327Y-108820302D01*
X139823025Y-108800000D01*
X139843327Y-108779699D01*
X139940000Y-108546310D01*
X139940000Y-108293691D01*
X139940000Y-104613691D01*
X139843327Y-104380302D01*
X139664699Y-104201673D01*
X139431310Y-104105000D01*
X139406600Y-104105000D01*
X139406600Y-101601000D01*
X139367907Y-101406479D01*
X139753900Y-101566757D01*
X140309661Y-101567242D01*
X140823303Y-101355010D01*
X141216629Y-100962370D01*
X141366605Y-100601185D01*
X141514990Y-100960303D01*
X141907630Y-101353629D01*
X142420900Y-101566757D01*
X142976661Y-101567242D01*
X143032471Y-101544181D01*
X145393400Y-103905110D01*
X145393400Y-104105000D01*
X145368691Y-104105000D01*
X145135302Y-104201673D01*
X144956673Y-104380301D01*
X144860000Y-104613690D01*
X144860000Y-104866309D01*
X144860000Y-108546309D01*
X144956673Y-108779698D01*
X144976974Y-108799999D01*
X144956673Y-108820301D01*
X144860000Y-109053690D01*
X144860000Y-109306309D01*
X144860000Y-110734250D01*
X145018750Y-110893000D01*
X146003000Y-110893000D01*
X146003000Y-110873000D01*
X146257000Y-110873000D01*
X146257000Y-110893000D01*
X147241250Y-110893000D01*
X147400000Y-110734250D01*
X147558750Y-110893000D01*
X148543000Y-110893000D01*
X148543000Y-110873000D01*
X148797000Y-110873000D01*
X148797000Y-110893000D01*
X149781250Y-110893000D01*
X149940000Y-110734250D01*
X149940000Y-109306309D01*
X149940000Y-109053690D01*
X149843327Y-108820301D01*
X149823025Y-108800000D01*
X149843327Y-108779699D01*
X149940000Y-108546310D01*
X149940000Y-108293691D01*
X149940000Y-104613691D01*
X149843327Y-104380302D01*
X149664699Y-104201673D01*
X149431310Y-104105000D01*
X149406600Y-104105000D01*
X149406600Y-101471610D01*
X149409698Y-101470327D01*
X149588327Y-101291699D01*
X149685000Y-101058310D01*
X149685000Y-100805691D01*
X149685000Y-99281691D01*
X149588327Y-99048302D01*
X149409699Y-98869673D01*
X149176310Y-98773000D01*
X148923691Y-98773000D01*
X147723386Y-98773000D01*
X148074629Y-98422370D01*
X148287757Y-97909100D01*
X148288242Y-97353339D01*
X148076010Y-96839697D01*
X147683370Y-96446371D01*
X147170100Y-96233243D01*
X146614339Y-96232758D01*
X146100697Y-96444990D01*
X145707371Y-96837630D01*
X145494243Y-97350900D01*
X145494240Y-97353336D01*
X145282010Y-96839697D01*
X144889370Y-96446371D01*
X144376100Y-96233243D01*
X143856499Y-96232789D01*
X142802855Y-95179145D01*
X142563885Y-95019470D01*
X142282000Y-94963400D01*
X136500005Y-94963400D01*
X136500000Y-94963399D01*
X136218116Y-95019469D01*
X135979145Y-95179145D01*
X132414988Y-98743301D01*
X132666559Y-98137454D01*
X132667440Y-97126979D01*
X132281563Y-96193085D01*
X131567673Y-95477948D01*
X130634454Y-95090441D01*
X129623979Y-95089560D01*
X128690085Y-95475437D01*
X127974948Y-96189327D01*
X127587441Y-97122546D01*
X127586560Y-98133021D01*
X127972437Y-99066915D01*
X128686327Y-99782052D01*
X129619546Y-100169559D01*
X130630021Y-100170440D01*
X131239809Y-99918480D01*
X129594890Y-101563400D01*
X127400000Y-101563400D01*
X127118115Y-101619470D01*
X126879145Y-101779145D01*
X125609145Y-103049145D01*
X125449470Y-103288115D01*
X125393400Y-103570000D01*
X125393400Y-104105000D01*
X125368691Y-104105000D01*
X125135302Y-104201673D01*
X125027000Y-104309974D01*
X125027000Y-91385000D01*
X159615000Y-91385000D01*
X159615000Y-104181086D01*
G36*
X159615000Y-139576406D02*
X159569271Y-139346511D01*
X159244415Y-138860330D01*
X158758234Y-138535474D01*
X158184745Y-138421400D01*
X157815255Y-138421400D01*
X157241766Y-138535474D01*
X156755585Y-138860330D01*
X156430729Y-139346511D01*
X156316655Y-139920000D01*
X156430729Y-140493489D01*
X156755585Y-140979670D01*
X157070365Y-141190000D01*
X156755585Y-141400330D01*
X156430729Y-141886511D01*
X156316655Y-142460000D01*
X156430729Y-143033489D01*
X156755585Y-143519670D01*
X157065069Y-143726460D01*
X156649268Y-144097964D01*
X156395291Y-144625209D01*
X156392642Y-144640974D01*
X156513783Y-144873000D01*
X157873000Y-144873000D01*
X157873000Y-144853000D01*
X158127000Y-144853000D01*
X158127000Y-144873000D01*
X158147000Y-144873000D01*
X158147000Y-145127000D01*
X158127000Y-145127000D01*
X158127000Y-145147000D01*
X157873000Y-145147000D01*
X157873000Y-145127000D01*
X156513783Y-145127000D01*
X156392642Y-145359026D01*
X156395291Y-145374791D01*
X156514989Y-145623279D01*
X155219855Y-144328145D01*
X154980885Y-144168470D01*
X154699000Y-144112400D01*
X154406500Y-144112400D01*
X154406500Y-138305809D01*
X154406500Y-138147750D01*
X154247750Y-137989000D01*
X153327000Y-137989000D01*
X153327000Y-138655750D01*
X153485750Y-138814500D01*
X153645191Y-138814500D01*
X153897810Y-138814500D01*
X154131199Y-138717827D01*
X154309827Y-138539198D01*
X154406500Y-138305809D01*
X154406500Y-144112400D01*
X153073000Y-144112400D01*
X153073000Y-138655750D01*
X153073000Y-137989000D01*
X152152250Y-137989000D01*
X151993500Y-138147750D01*
X151993500Y-138305809D01*
X152090173Y-138539198D01*
X152268801Y-138717827D01*
X152502190Y-138814500D01*
X152754809Y-138814500D01*
X152914250Y-138814500D01*
X153073000Y-138655750D01*
X153073000Y-144112400D01*
X151199000Y-144112400D01*
X151175000Y-144112400D01*
X149415894Y-144112400D01*
X149406327Y-144089302D01*
X149227699Y-143910673D01*
X148994310Y-143814000D01*
X148741691Y-143814000D01*
X147991691Y-143814000D01*
X147758302Y-143910673D01*
X147579673Y-144089301D01*
X147515100Y-144245193D01*
X147515100Y-141979500D01*
X147459030Y-141697615D01*
X147299355Y-141458645D01*
X145971118Y-140130408D01*
X146189622Y-139912286D01*
X146354313Y-139515668D01*
X146354687Y-139086216D01*
X146190689Y-138689311D01*
X146011600Y-138509909D01*
X146011600Y-136866610D01*
X151699710Y-131178500D01*
X151825309Y-131178500D01*
X152049000Y-131085844D01*
X152272691Y-131178500D01*
X152513250Y-131178500D01*
X152672000Y-131019750D01*
X152672000Y-130295500D01*
X152652000Y-130295500D01*
X152652000Y-130041500D01*
X152672000Y-130041500D01*
X152672000Y-129317250D01*
X152513250Y-129158500D01*
X152272691Y-129158500D01*
X152049000Y-129251155D01*
X152035600Y-129245605D01*
X152035600Y-127831000D01*
X151985000Y-127576614D01*
X151985000Y-121701310D01*
X151985000Y-121485750D01*
X151985000Y-120914250D01*
X151985000Y-120698690D01*
X151888327Y-120465301D01*
X151709698Y-120286673D01*
X151476309Y-120190000D01*
X151235750Y-120190000D01*
X151077000Y-120348750D01*
X151077000Y-121073000D01*
X151826250Y-121073000D01*
X151985000Y-120914250D01*
X151985000Y-121485750D01*
X151826250Y-121327000D01*
X151077000Y-121327000D01*
X151077000Y-122051250D01*
X151235750Y-122210000D01*
X151476309Y-122210000D01*
X151709698Y-122113327D01*
X151888327Y-121934699D01*
X151985000Y-121701310D01*
X151985000Y-127576614D01*
X151979530Y-127549115D01*
X151819855Y-127310145D01*
X150918855Y-126409145D01*
X150679885Y-126249470D01*
X150398000Y-126193400D01*
X150080587Y-126193400D01*
X150144000Y-126040309D01*
X150144000Y-125945750D01*
X149985250Y-125787000D01*
X149064500Y-125787000D01*
X149064500Y-125807000D01*
X148810500Y-125807000D01*
X148810500Y-125787000D01*
X147889750Y-125787000D01*
X147731000Y-125945750D01*
X147731000Y-126040309D01*
X147827673Y-126273698D01*
X147848974Y-126294999D01*
X147827673Y-126316301D01*
X147731000Y-126549690D01*
X147731000Y-126802309D01*
X147731000Y-127310309D01*
X147782409Y-127434422D01*
X147462820Y-127114275D01*
X147019541Y-126930210D01*
X146613565Y-126929855D01*
X144873810Y-125190100D01*
X145364552Y-125190100D01*
X145649680Y-125475725D01*
X146092959Y-125659790D01*
X146572935Y-125660209D01*
X147016535Y-125476918D01*
X147303853Y-125190100D01*
X147768109Y-125190100D01*
X147731000Y-125279691D01*
X147731000Y-125374250D01*
X147889750Y-125533000D01*
X148810500Y-125533000D01*
X148810500Y-125513000D01*
X149064500Y-125513000D01*
X149064500Y-125533000D01*
X149985250Y-125533000D01*
X150144000Y-125374250D01*
X150144000Y-125279691D01*
X150047327Y-125046302D01*
X150026025Y-125025000D01*
X150047327Y-125003699D01*
X150144000Y-124770310D01*
X150144000Y-124517691D01*
X150144000Y-124009691D01*
X150047327Y-123776302D01*
X149868699Y-123597673D01*
X149635310Y-123501000D01*
X149382691Y-123501000D01*
X148239691Y-123501000D01*
X148006302Y-123597673D01*
X147887074Y-123716900D01*
X147303447Y-123716900D01*
X147145812Y-123558990D01*
X147195699Y-123538327D01*
X147374327Y-123359698D01*
X147471000Y-123126309D01*
X147471000Y-122885750D01*
X147312250Y-122727000D01*
X146588000Y-122727000D01*
X146588000Y-122747000D01*
X146334000Y-122747000D01*
X146334000Y-122727000D01*
X145609750Y-122727000D01*
X145572000Y-122764750D01*
X145534250Y-122727000D01*
X144810000Y-122727000D01*
X144810000Y-123476250D01*
X144968750Y-123635000D01*
X145184310Y-123635000D01*
X145417699Y-123538327D01*
X145572000Y-123384025D01*
X145634746Y-123446771D01*
X145364146Y-123716900D01*
X144162610Y-123716900D01*
X144009306Y-123563596D01*
X144181690Y-123635000D01*
X144397250Y-123635000D01*
X144556000Y-123476250D01*
X144556000Y-122727000D01*
X143831750Y-122727000D01*
X143794000Y-122764750D01*
X143756250Y-122727000D01*
X143032000Y-122727000D01*
X143032000Y-122747000D01*
X142778000Y-122747000D01*
X142778000Y-122727000D01*
X142053750Y-122727000D01*
X141895000Y-122885750D01*
X141895000Y-122982900D01*
X141745500Y-122982900D01*
X141745500Y-122970810D01*
X141745500Y-122968190D01*
X141745500Y-122718191D01*
X141745500Y-122476210D01*
X141901230Y-122320480D01*
X142053750Y-122473000D01*
X142778000Y-122473000D01*
X142778000Y-122453000D01*
X143032000Y-122453000D01*
X143032000Y-122473000D01*
X143756250Y-122473000D01*
X143794000Y-122435250D01*
X143831750Y-122473000D01*
X144556000Y-122473000D01*
X144556000Y-122453000D01*
X144810000Y-122453000D01*
X144810000Y-122473000D01*
X145534250Y-122473000D01*
X145572000Y-122435250D01*
X145609750Y-122473000D01*
X146334000Y-122473000D01*
X146334000Y-122453000D01*
X146588000Y-122453000D01*
X146588000Y-122473000D01*
X147312250Y-122473000D01*
X147471000Y-122314250D01*
X147471000Y-122073691D01*
X147378344Y-121850000D01*
X147471000Y-121626310D01*
X147471000Y-121373691D01*
X147471000Y-120573691D01*
X147374327Y-120340302D01*
X147195699Y-120161673D01*
X146962310Y-120065000D01*
X146709691Y-120065000D01*
X145959691Y-120065000D01*
X145726302Y-120161673D01*
X145571999Y-120315974D01*
X145417699Y-120161673D01*
X145184310Y-120065000D01*
X144931691Y-120065000D01*
X144181691Y-120065000D01*
X143948302Y-120161673D01*
X143793999Y-120315974D01*
X143639699Y-120161673D01*
X143406310Y-120065000D01*
X143153691Y-120065000D01*
X142531000Y-120065000D01*
X142531000Y-119557310D01*
X142531000Y-119341750D01*
X142372250Y-119183000D01*
X141623000Y-119183000D01*
X141623000Y-119907250D01*
X141781750Y-120066000D01*
X142022309Y-120066000D01*
X142255698Y-119969327D01*
X142434327Y-119790699D01*
X142531000Y-119557310D01*
X142531000Y-120065000D01*
X142403691Y-120065000D01*
X142170302Y-120161673D01*
X141991673Y-120340301D01*
X141974027Y-120382900D01*
X139710809Y-120382900D01*
X140027710Y-120066000D01*
X140522309Y-120066000D01*
X140746000Y-119973344D01*
X140969691Y-120066000D01*
X141210250Y-120066000D01*
X141369000Y-119907250D01*
X141369000Y-119183000D01*
X141349000Y-119183000D01*
X141349000Y-118929000D01*
X141369000Y-118929000D01*
X141369000Y-118909000D01*
X141623000Y-118909000D01*
X141623000Y-118929000D01*
X142372250Y-118929000D01*
X142531000Y-118770250D01*
X142531000Y-118554690D01*
X142434327Y-118321301D01*
X142255698Y-118142673D01*
X142090607Y-118074290D01*
X146432580Y-118074290D01*
X148022354Y-119664064D01*
X148014970Y-119675115D01*
X147958900Y-119957000D01*
X147958900Y-120008500D01*
X148014970Y-120290385D01*
X148174645Y-120529355D01*
X148413615Y-120689030D01*
X148418591Y-120690019D01*
X148415000Y-120698690D01*
X148415000Y-120951309D01*
X148415000Y-121701309D01*
X148511673Y-121934698D01*
X148690301Y-122113327D01*
X148923690Y-122210000D01*
X149176309Y-122210000D01*
X149976309Y-122210000D01*
X150200000Y-122117344D01*
X150423691Y-122210000D01*
X150664250Y-122210000D01*
X150823000Y-122051250D01*
X150823000Y-121327000D01*
X150803000Y-121327000D01*
X150803000Y-121073000D01*
X150823000Y-121073000D01*
X150823000Y-120348750D01*
X150664250Y-120190000D01*
X150423691Y-120190000D01*
X150200000Y-120282655D01*
X150186600Y-120277105D01*
X150186600Y-120050000D01*
X150130530Y-119768116D01*
X150130530Y-119768115D01*
X149970855Y-119529145D01*
X147206490Y-116764780D01*
X147206490Y-115284100D01*
X150033510Y-115284100D01*
X150033510Y-115465019D01*
X150033510Y-117565599D01*
X150130183Y-117798988D01*
X150308811Y-117977617D01*
X150542200Y-118074290D01*
X150794819Y-118074290D01*
X154112440Y-118074290D01*
X154813400Y-118775250D01*
X154813400Y-120277105D01*
X154800000Y-120282655D01*
X154576309Y-120190000D01*
X154335750Y-120190000D01*
X154177000Y-120348750D01*
X154177000Y-121073000D01*
X154197000Y-121073000D01*
X154197000Y-121327000D01*
X154177000Y-121327000D01*
X154177000Y-122051250D01*
X154335750Y-122210000D01*
X154576309Y-122210000D01*
X154799999Y-122117344D01*
X155023690Y-122210000D01*
X155276309Y-122210000D01*
X156076309Y-122210000D01*
X156309698Y-122113327D01*
X156313400Y-122109625D01*
X156313400Y-123692374D01*
X156218699Y-123597673D01*
X155985310Y-123501000D01*
X155732691Y-123501000D01*
X155573250Y-123501000D01*
X155414500Y-123659750D01*
X155414500Y-124263000D01*
X155434500Y-124263000D01*
X155434500Y-124517000D01*
X155414500Y-124517000D01*
X155414500Y-124537000D01*
X155160500Y-124537000D01*
X155160500Y-124517000D01*
X155160500Y-124263000D01*
X155160500Y-123659750D01*
X155001750Y-123501000D01*
X154842309Y-123501000D01*
X154589690Y-123501000D01*
X154356301Y-123597673D01*
X154177673Y-123776302D01*
X154081000Y-124009691D01*
X154081000Y-124104250D01*
X154239750Y-124263000D01*
X155160500Y-124263000D01*
X155160500Y-124517000D01*
X154239750Y-124517000D01*
X154081000Y-124675750D01*
X154081000Y-124770309D01*
X154177673Y-125003698D01*
X154198974Y-125024999D01*
X154177673Y-125046301D01*
X154081000Y-125279690D01*
X154081000Y-125532309D01*
X154081000Y-126040309D01*
X154177673Y-126273698D01*
X154198974Y-126294999D01*
X154177673Y-126316301D01*
X154081000Y-126549690D01*
X154081000Y-126802309D01*
X154081000Y-127310309D01*
X154177673Y-127543698D01*
X154198974Y-127564999D01*
X154177673Y-127586301D01*
X154081000Y-127819690D01*
X154081000Y-128072309D01*
X154081000Y-128580309D01*
X154177673Y-128813698D01*
X154356301Y-128992327D01*
X154589690Y-129089000D01*
X154842309Y-129089000D01*
X155985309Y-129089000D01*
X156218698Y-128992327D01*
X156397327Y-128813699D01*
X156494000Y-128580310D01*
X156494000Y-128327691D01*
X156494000Y-127819691D01*
X156430587Y-127666600D01*
X156670000Y-127666600D01*
X156951885Y-127610530D01*
X157190855Y-127450855D01*
X159320855Y-125320855D01*
X159480530Y-125081885D01*
X159536600Y-124800000D01*
X159536600Y-117498432D01*
X159615000Y-117465957D01*
X159615000Y-132500779D01*
X159554327Y-132354302D01*
X159375699Y-132175673D01*
X159142310Y-132079000D01*
X158889691Y-132079000D01*
X156857691Y-132079000D01*
X156624302Y-132175673D01*
X156445673Y-132354301D01*
X156349000Y-132587690D01*
X156349000Y-132840309D01*
X156349000Y-134872309D01*
X156445673Y-135105698D01*
X156624301Y-135284327D01*
X156675371Y-135305481D01*
X156474675Y-135605845D01*
X156468135Y-135638723D01*
X154262527Y-135613501D01*
X154131199Y-135482173D01*
X153923000Y-135395934D01*
X153923000Y-122051250D01*
X153923000Y-121327000D01*
X153923000Y-121073000D01*
X153923000Y-120348750D01*
X153764250Y-120190000D01*
X153523691Y-120190000D01*
X153290302Y-120286673D01*
X153111673Y-120465301D01*
X153015000Y-120698690D01*
X153015000Y-120914250D01*
X153173750Y-121073000D01*
X153923000Y-121073000D01*
X153923000Y-121327000D01*
X153173750Y-121327000D01*
X153015000Y-121485750D01*
X153015000Y-121701310D01*
X153111673Y-121934699D01*
X153290302Y-122113327D01*
X153523691Y-122210000D01*
X153764250Y-122210000D01*
X153923000Y-122051250D01*
X153923000Y-135395934D01*
X153897810Y-135385500D01*
X153834000Y-135385500D01*
X153834000Y-130669810D01*
X153834000Y-130454250D01*
X153834000Y-129882750D01*
X153834000Y-129667190D01*
X153737327Y-129433801D01*
X153558698Y-129255173D01*
X153325309Y-129158500D01*
X153084750Y-129158500D01*
X152926000Y-129317250D01*
X152926000Y-130041500D01*
X153675250Y-130041500D01*
X153834000Y-129882750D01*
X153834000Y-130454250D01*
X153675250Y-130295500D01*
X152926000Y-130295500D01*
X152926000Y-131019750D01*
X153084750Y-131178500D01*
X153325309Y-131178500D01*
X153558698Y-131081827D01*
X153737327Y-130903199D01*
X153834000Y-130669810D01*
X153834000Y-135385500D01*
X153645191Y-135385500D01*
X152502191Y-135385500D01*
X152268802Y-135482173D01*
X152090173Y-135660801D01*
X151993500Y-135894190D01*
X151993500Y-136146809D01*
X151993500Y-136781809D01*
X152090173Y-137015198D01*
X152174974Y-137100000D01*
X152090173Y-137184802D01*
X151993500Y-137418191D01*
X151993500Y-137576250D01*
X152152250Y-137735000D01*
X153073000Y-137735000D01*
X153073000Y-137715000D01*
X153327000Y-137715000D01*
X153327000Y-137735000D01*
X154247750Y-137735000D01*
X154406500Y-137576250D01*
X154406500Y-137418191D01*
X154309827Y-137184802D01*
X154225025Y-137100000D01*
X154238501Y-137086523D01*
X156594486Y-137113465D01*
X156832567Y-137469778D01*
X157368190Y-137827670D01*
X158000000Y-137953345D01*
X158631810Y-137827670D01*
X159167433Y-137469778D01*
X159525325Y-136934155D01*
X159615000Y-136483328D01*
X159615000Y-139576406D01*
X159615000Y-139576406D01*
G37*
X159615000Y-139576406D02*
X159569271Y-139346511D01*
X159244415Y-138860330D01*
X158758234Y-138535474D01*
X158184745Y-138421400D01*
X157815255Y-138421400D01*
X157241766Y-138535474D01*
X156755585Y-138860330D01*
X156430729Y-139346511D01*
X156316655Y-139920000D01*
X156430729Y-140493489D01*
X156755585Y-140979670D01*
X157070365Y-141190000D01*
X156755585Y-141400330D01*
X156430729Y-141886511D01*
X156316655Y-142460000D01*
X156430729Y-143033489D01*
X156755585Y-143519670D01*
X157065069Y-143726460D01*
X156649268Y-144097964D01*
X156395291Y-144625209D01*
X156392642Y-144640974D01*
X156513783Y-144873000D01*
X157873000Y-144873000D01*
X157873000Y-144853000D01*
X158127000Y-144853000D01*
X158127000Y-144873000D01*
X158147000Y-144873000D01*
X158147000Y-145127000D01*
X158127000Y-145127000D01*
X158127000Y-145147000D01*
X157873000Y-145147000D01*
X157873000Y-145127000D01*
X156513783Y-145127000D01*
X156392642Y-145359026D01*
X156395291Y-145374791D01*
X156514989Y-145623279D01*
X155219855Y-144328145D01*
X154980885Y-144168470D01*
X154699000Y-144112400D01*
X154406500Y-144112400D01*
X154406500Y-138305809D01*
X154406500Y-138147750D01*
X154247750Y-137989000D01*
X153327000Y-137989000D01*
X153327000Y-138655750D01*
X153485750Y-138814500D01*
X153645191Y-138814500D01*
X153897810Y-138814500D01*
X154131199Y-138717827D01*
X154309827Y-138539198D01*
X154406500Y-138305809D01*
X154406500Y-144112400D01*
X153073000Y-144112400D01*
X153073000Y-138655750D01*
X153073000Y-137989000D01*
X152152250Y-137989000D01*
X151993500Y-138147750D01*
X151993500Y-138305809D01*
X152090173Y-138539198D01*
X152268801Y-138717827D01*
X152502190Y-138814500D01*
X152754809Y-138814500D01*
X152914250Y-138814500D01*
X153073000Y-138655750D01*
X153073000Y-144112400D01*
X151199000Y-144112400D01*
X151175000Y-144112400D01*
X149415894Y-144112400D01*
X149406327Y-144089302D01*
X149227699Y-143910673D01*
X148994310Y-143814000D01*
X148741691Y-143814000D01*
X147991691Y-143814000D01*
X147758302Y-143910673D01*
X147579673Y-144089301D01*
X147515100Y-144245193D01*
X147515100Y-141979500D01*
X147459030Y-141697615D01*
X147299355Y-141458645D01*
X145971118Y-140130408D01*
X146189622Y-139912286D01*
X146354313Y-139515668D01*
X146354687Y-139086216D01*
X146190689Y-138689311D01*
X146011600Y-138509909D01*
X146011600Y-136866610D01*
X151699710Y-131178500D01*
X151825309Y-131178500D01*
X152049000Y-131085844D01*
X152272691Y-131178500D01*
X152513250Y-131178500D01*
X152672000Y-131019750D01*
X152672000Y-130295500D01*
X152652000Y-130295500D01*
X152652000Y-130041500D01*
X152672000Y-130041500D01*
X152672000Y-129317250D01*
X152513250Y-129158500D01*
X152272691Y-129158500D01*
X152049000Y-129251155D01*
X152035600Y-129245605D01*
X152035600Y-127831000D01*
X151985000Y-127576614D01*
X151985000Y-121701310D01*
X151985000Y-121485750D01*
X151985000Y-120914250D01*
X151985000Y-120698690D01*
X151888327Y-120465301D01*
X151709698Y-120286673D01*
X151476309Y-120190000D01*
X151235750Y-120190000D01*
X151077000Y-120348750D01*
X151077000Y-121073000D01*
X151826250Y-121073000D01*
X151985000Y-120914250D01*
X151985000Y-121485750D01*
X151826250Y-121327000D01*
X151077000Y-121327000D01*
X151077000Y-122051250D01*
X151235750Y-122210000D01*
X151476309Y-122210000D01*
X151709698Y-122113327D01*
X151888327Y-121934699D01*
X151985000Y-121701310D01*
X151985000Y-127576614D01*
X151979530Y-127549115D01*
X151819855Y-127310145D01*
X150918855Y-126409145D01*
X150679885Y-126249470D01*
X150398000Y-126193400D01*
X150080587Y-126193400D01*
X150144000Y-126040309D01*
X150144000Y-125945750D01*
X149985250Y-125787000D01*
X149064500Y-125787000D01*
X149064500Y-125807000D01*
X148810500Y-125807000D01*
X148810500Y-125787000D01*
X147889750Y-125787000D01*
X147731000Y-125945750D01*
X147731000Y-126040309D01*
X147827673Y-126273698D01*
X147848974Y-126294999D01*
X147827673Y-126316301D01*
X147731000Y-126549690D01*
X147731000Y-126802309D01*
X147731000Y-127310309D01*
X147782409Y-127434422D01*
X147462820Y-127114275D01*
X147019541Y-126930210D01*
X146613565Y-126929855D01*
X144873810Y-125190100D01*
X145364552Y-125190100D01*
X145649680Y-125475725D01*
X146092959Y-125659790D01*
X146572935Y-125660209D01*
X147016535Y-125476918D01*
X147303853Y-125190100D01*
X147768109Y-125190100D01*
X147731000Y-125279691D01*
X147731000Y-125374250D01*
X147889750Y-125533000D01*
X148810500Y-125533000D01*
X148810500Y-125513000D01*
X149064500Y-125513000D01*
X149064500Y-125533000D01*
X149985250Y-125533000D01*
X150144000Y-125374250D01*
X150144000Y-125279691D01*
X150047327Y-125046302D01*
X150026025Y-125025000D01*
X150047327Y-125003699D01*
X150144000Y-124770310D01*
X150144000Y-124517691D01*
X150144000Y-124009691D01*
X150047327Y-123776302D01*
X149868699Y-123597673D01*
X149635310Y-123501000D01*
X149382691Y-123501000D01*
X148239691Y-123501000D01*
X148006302Y-123597673D01*
X147887074Y-123716900D01*
X147303447Y-123716900D01*
X147145812Y-123558990D01*
X147195699Y-123538327D01*
X147374327Y-123359698D01*
X147471000Y-123126309D01*
X147471000Y-122885750D01*
X147312250Y-122727000D01*
X146588000Y-122727000D01*
X146588000Y-122747000D01*
X146334000Y-122747000D01*
X146334000Y-122727000D01*
X145609750Y-122727000D01*
X145572000Y-122764750D01*
X145534250Y-122727000D01*
X144810000Y-122727000D01*
X144810000Y-123476250D01*
X144968750Y-123635000D01*
X145184310Y-123635000D01*
X145417699Y-123538327D01*
X145572000Y-123384025D01*
X145634746Y-123446771D01*
X145364146Y-123716900D01*
X144162610Y-123716900D01*
X144009306Y-123563596D01*
X144181690Y-123635000D01*
X144397250Y-123635000D01*
X144556000Y-123476250D01*
X144556000Y-122727000D01*
X143831750Y-122727000D01*
X143794000Y-122764750D01*
X143756250Y-122727000D01*
X143032000Y-122727000D01*
X143032000Y-122747000D01*
X142778000Y-122747000D01*
X142778000Y-122727000D01*
X142053750Y-122727000D01*
X141895000Y-122885750D01*
X141895000Y-122982900D01*
X141745500Y-122982900D01*
X141745500Y-122970810D01*
X141745500Y-122968190D01*
X141745500Y-122718191D01*
X141745500Y-122476210D01*
X141901230Y-122320480D01*
X142053750Y-122473000D01*
X142778000Y-122473000D01*
X142778000Y-122453000D01*
X143032000Y-122453000D01*
X143032000Y-122473000D01*
X143756250Y-122473000D01*
X143794000Y-122435250D01*
X143831750Y-122473000D01*
X144556000Y-122473000D01*
X144556000Y-122453000D01*
X144810000Y-122453000D01*
X144810000Y-122473000D01*
X145534250Y-122473000D01*
X145572000Y-122435250D01*
X145609750Y-122473000D01*
X146334000Y-122473000D01*
X146334000Y-122453000D01*
X146588000Y-122453000D01*
X146588000Y-122473000D01*
X147312250Y-122473000D01*
X147471000Y-122314250D01*
X147471000Y-122073691D01*
X147378344Y-121850000D01*
X147471000Y-121626310D01*
X147471000Y-121373691D01*
X147471000Y-120573691D01*
X147374327Y-120340302D01*
X147195699Y-120161673D01*
X146962310Y-120065000D01*
X146709691Y-120065000D01*
X145959691Y-120065000D01*
X145726302Y-120161673D01*
X145571999Y-120315974D01*
X145417699Y-120161673D01*
X145184310Y-120065000D01*
X144931691Y-120065000D01*
X144181691Y-120065000D01*
X143948302Y-120161673D01*
X143793999Y-120315974D01*
X143639699Y-120161673D01*
X143406310Y-120065000D01*
X143153691Y-120065000D01*
X142531000Y-120065000D01*
X142531000Y-119557310D01*
X142531000Y-119341750D01*
X142372250Y-119183000D01*
X141623000Y-119183000D01*
X141623000Y-119907250D01*
X141781750Y-120066000D01*
X142022309Y-120066000D01*
X142255698Y-119969327D01*
X142434327Y-119790699D01*
X142531000Y-119557310D01*
X142531000Y-120065000D01*
X142403691Y-120065000D01*
X142170302Y-120161673D01*
X141991673Y-120340301D01*
X141974027Y-120382900D01*
X139710809Y-120382900D01*
X140027710Y-120066000D01*
X140522309Y-120066000D01*
X140746000Y-119973344D01*
X140969691Y-120066000D01*
X141210250Y-120066000D01*
X141369000Y-119907250D01*
X141369000Y-119183000D01*
X141349000Y-119183000D01*
X141349000Y-118929000D01*
X141369000Y-118929000D01*
X141369000Y-118909000D01*
X141623000Y-118909000D01*
X141623000Y-118929000D01*
X142372250Y-118929000D01*
X142531000Y-118770250D01*
X142531000Y-118554690D01*
X142434327Y-118321301D01*
X142255698Y-118142673D01*
X142090607Y-118074290D01*
X146432580Y-118074290D01*
X148022354Y-119664064D01*
X148014970Y-119675115D01*
X147958900Y-119957000D01*
X147958900Y-120008500D01*
X148014970Y-120290385D01*
X148174645Y-120529355D01*
X148413615Y-120689030D01*
X148418591Y-120690019D01*
X148415000Y-120698690D01*
X148415000Y-120951309D01*
X148415000Y-121701309D01*
X148511673Y-121934698D01*
X148690301Y-122113327D01*
X148923690Y-122210000D01*
X149176309Y-122210000D01*
X149976309Y-122210000D01*
X150200000Y-122117344D01*
X150423691Y-122210000D01*
X150664250Y-122210000D01*
X150823000Y-122051250D01*
X150823000Y-121327000D01*
X150803000Y-121327000D01*
X150803000Y-121073000D01*
X150823000Y-121073000D01*
X150823000Y-120348750D01*
X150664250Y-120190000D01*
X150423691Y-120190000D01*
X150200000Y-120282655D01*
X150186600Y-120277105D01*
X150186600Y-120050000D01*
X150130530Y-119768116D01*
X150130530Y-119768115D01*
X149970855Y-119529145D01*
X147206490Y-116764780D01*
X147206490Y-115284100D01*
X150033510Y-115284100D01*
X150033510Y-115465019D01*
X150033510Y-117565599D01*
X150130183Y-117798988D01*
X150308811Y-117977617D01*
X150542200Y-118074290D01*
X150794819Y-118074290D01*
X154112440Y-118074290D01*
X154813400Y-118775250D01*
X154813400Y-120277105D01*
X154800000Y-120282655D01*
X154576309Y-120190000D01*
X154335750Y-120190000D01*
X154177000Y-120348750D01*
X154177000Y-121073000D01*
X154197000Y-121073000D01*
X154197000Y-121327000D01*
X154177000Y-121327000D01*
X154177000Y-122051250D01*
X154335750Y-122210000D01*
X154576309Y-122210000D01*
X154799999Y-122117344D01*
X155023690Y-122210000D01*
X155276309Y-122210000D01*
X156076309Y-122210000D01*
X156309698Y-122113327D01*
X156313400Y-122109625D01*
X156313400Y-123692374D01*
X156218699Y-123597673D01*
X155985310Y-123501000D01*
X155732691Y-123501000D01*
X155573250Y-123501000D01*
X155414500Y-123659750D01*
X155414500Y-124263000D01*
X155434500Y-124263000D01*
X155434500Y-124517000D01*
X155414500Y-124517000D01*
X155414500Y-124537000D01*
X155160500Y-124537000D01*
X155160500Y-124517000D01*
X155160500Y-124263000D01*
X155160500Y-123659750D01*
X155001750Y-123501000D01*
X154842309Y-123501000D01*
X154589690Y-123501000D01*
X154356301Y-123597673D01*
X154177673Y-123776302D01*
X154081000Y-124009691D01*
X154081000Y-124104250D01*
X154239750Y-124263000D01*
X155160500Y-124263000D01*
X155160500Y-124517000D01*
X154239750Y-124517000D01*
X154081000Y-124675750D01*
X154081000Y-124770309D01*
X154177673Y-125003698D01*
X154198974Y-125024999D01*
X154177673Y-125046301D01*
X154081000Y-125279690D01*
X154081000Y-125532309D01*
X154081000Y-126040309D01*
X154177673Y-126273698D01*
X154198974Y-126294999D01*
X154177673Y-126316301D01*
X154081000Y-126549690D01*
X154081000Y-126802309D01*
X154081000Y-127310309D01*
X154177673Y-127543698D01*
X154198974Y-127564999D01*
X154177673Y-127586301D01*
X154081000Y-127819690D01*
X154081000Y-128072309D01*
X154081000Y-128580309D01*
X154177673Y-128813698D01*
X154356301Y-128992327D01*
X154589690Y-129089000D01*
X154842309Y-129089000D01*
X155985309Y-129089000D01*
X156218698Y-128992327D01*
X156397327Y-128813699D01*
X156494000Y-128580310D01*
X156494000Y-128327691D01*
X156494000Y-127819691D01*
X156430587Y-127666600D01*
X156670000Y-127666600D01*
X156951885Y-127610530D01*
X157190855Y-127450855D01*
X159320855Y-125320855D01*
X159480530Y-125081885D01*
X159536600Y-124800000D01*
X159536600Y-117498432D01*
X159615000Y-117465957D01*
X159615000Y-132500779D01*
X159554327Y-132354302D01*
X159375699Y-132175673D01*
X159142310Y-132079000D01*
X158889691Y-132079000D01*
X156857691Y-132079000D01*
X156624302Y-132175673D01*
X156445673Y-132354301D01*
X156349000Y-132587690D01*
X156349000Y-132840309D01*
X156349000Y-134872309D01*
X156445673Y-135105698D01*
X156624301Y-135284327D01*
X156675371Y-135305481D01*
X156474675Y-135605845D01*
X156468135Y-135638723D01*
X154262527Y-135613501D01*
X154131199Y-135482173D01*
X153923000Y-135395934D01*
X153923000Y-122051250D01*
X153923000Y-121327000D01*
X153923000Y-121073000D01*
X153923000Y-120348750D01*
X153764250Y-120190000D01*
X153523691Y-120190000D01*
X153290302Y-120286673D01*
X153111673Y-120465301D01*
X153015000Y-120698690D01*
X153015000Y-120914250D01*
X153173750Y-121073000D01*
X153923000Y-121073000D01*
X153923000Y-121327000D01*
X153173750Y-121327000D01*
X153015000Y-121485750D01*
X153015000Y-121701310D01*
X153111673Y-121934699D01*
X153290302Y-122113327D01*
X153523691Y-122210000D01*
X153764250Y-122210000D01*
X153923000Y-122051250D01*
X153923000Y-135395934D01*
X153897810Y-135385500D01*
X153834000Y-135385500D01*
X153834000Y-130669810D01*
X153834000Y-130454250D01*
X153834000Y-129882750D01*
X153834000Y-129667190D01*
X153737327Y-129433801D01*
X153558698Y-129255173D01*
X153325309Y-129158500D01*
X153084750Y-129158500D01*
X152926000Y-129317250D01*
X152926000Y-130041500D01*
X153675250Y-130041500D01*
X153834000Y-129882750D01*
X153834000Y-130454250D01*
X153675250Y-130295500D01*
X152926000Y-130295500D01*
X152926000Y-131019750D01*
X153084750Y-131178500D01*
X153325309Y-131178500D01*
X153558698Y-131081827D01*
X153737327Y-130903199D01*
X153834000Y-130669810D01*
X153834000Y-135385500D01*
X153645191Y-135385500D01*
X152502191Y-135385500D01*
X152268802Y-135482173D01*
X152090173Y-135660801D01*
X151993500Y-135894190D01*
X151993500Y-136146809D01*
X151993500Y-136781809D01*
X152090173Y-137015198D01*
X152174974Y-137100000D01*
X152090173Y-137184802D01*
X151993500Y-137418191D01*
X151993500Y-137576250D01*
X152152250Y-137735000D01*
X153073000Y-137735000D01*
X153073000Y-137715000D01*
X153327000Y-137715000D01*
X153327000Y-137735000D01*
X154247750Y-137735000D01*
X154406500Y-137576250D01*
X154406500Y-137418191D01*
X154309827Y-137184802D01*
X154225025Y-137100000D01*
X154238501Y-137086523D01*
X156594486Y-137113465D01*
X156832567Y-137469778D01*
X157368190Y-137827670D01*
X158000000Y-137953345D01*
X158631810Y-137827670D01*
X159167433Y-137469778D01*
X159525325Y-136934155D01*
X159615000Y-136483328D01*
X159615000Y-139576406D01*
M02*
