M48
;DRILL file {kicad (2014-10-22 BZR 5216)-product} date Tue 10 Feb 2015 01:21:29 PM EST
;FORMAT={-:-/ absolute / inch / decimal}
FMAT,2
INCH,TZ
T1C0.025
T2C0.032
T3C0.040
T4C0.091
T5C0.098
T6C0.120
%
G90
G05
M72
T1
X5.1791Y-5.123
X5.2234Y-4.6181
X5.2402Y-4.0551
X5.247Y-4.5049
X5.2562Y-5.2192
X5.2632Y-4.8622
X5.2717Y-4.2579
X5.3487Y-4.8672
X5.3872Y-4.8322
X5.4192Y-5.2072
X5.4212Y-5.2682
X5.4237Y-4.9872
X5.4262Y-5.0447
X5.4487Y-4.6747
X5.6319Y-4.376
X5.6687Y-5.8822
X5.7165Y-5.626
X5.7195Y-5.4843
X5.7612Y-4.8997
X5.7787Y-5.0447
X5.7862Y-5.1297
X5.8307Y-5.6322
X5.8412Y-5.1647
X6.0748Y-4.1969
X6.1831Y-4.6516
T2
X5.198Y-5.3819
X5.198Y-5.4606
X5.298Y-5.3819
X5.298Y-5.4606
T3
X5.4031Y-3.9437
X5.4581Y-3.8437
X5.5131Y-3.9437
X5.5681Y-3.8437
X5.6181Y-3.9437
X5.6731Y-3.8437
X5.7281Y-3.9437
X5.7831Y-3.8437
X5.8381Y-3.9437
X6.2205Y-5.265
X6.2205Y-5.365
X6.2205Y-5.5087
X6.2205Y-5.6087
X6.2205Y-5.7087
X6.2205Y-5.8087
X6.2205Y-5.9087
T4
X5.0118Y-5.5669
X5.4842Y-5.5669
T5
X5.0541Y-4.5846
X6.0098Y-5.8376
T6
X5.1231Y-3.8437
X6.1231Y-3.8437
T0
M30
