%FSLAX46Y46*%
G04 Gerber Fmt 4.6, Leading zero omitted, Abs format (unit mm)*
G04 Created by KiCad (PCBNEW (2014-10-22 BZR 5216)-product) date Tue 10 Feb 2015 01:20:12 PM EST*
%MOMM*%
G01*
G04 APERTURE LIST*
%ADD10C,0.100000*%
%ADD11C,0.200000*%
%ADD12C,0.300000*%
%ADD13C,0.150000*%
%ADD14C,0.114300*%
%ADD15C,0.127000*%
%ADD16C,0.125000*%
G04 APERTURE END LIST*
D10*
D11*
X128240476Y-124633333D02*
X127859524Y-124633333D01*
X128316667Y-124861905D02*
X128050000Y-124061905D01*
X127783333Y-124861905D01*
X128240476Y-125933333D02*
X127859524Y-125933333D01*
X128316667Y-126161905D02*
X128050000Y-125361905D01*
X127783333Y-126161905D01*
X125011905Y-119390477D02*
X126311905Y-119390477D01*
X125011905Y-119947620D02*
X125692857Y-119947620D01*
X125816667Y-119885715D01*
X125878571Y-119761905D01*
X125878571Y-119576191D01*
X125816667Y-119452382D01*
X125754762Y-119390477D01*
X125878571Y-120380953D02*
X125878571Y-120876191D01*
X126311905Y-120566667D02*
X125197619Y-120566667D01*
X125073810Y-120628572D01*
X125011905Y-120752381D01*
X125011905Y-120876191D01*
X125878571Y-121123810D02*
X125878571Y-121619048D01*
X126311905Y-121309524D02*
X125197619Y-121309524D01*
X125073810Y-121371429D01*
X125011905Y-121495238D01*
X125011905Y-121619048D01*
X125878571Y-122052381D02*
X124578571Y-122052381D01*
X125816667Y-122052381D02*
X125878571Y-122176190D01*
X125878571Y-122423809D01*
X125816667Y-122547619D01*
X125754762Y-122609524D01*
X125630952Y-122671428D01*
X125259524Y-122671428D01*
X125135714Y-122609524D01*
X125073810Y-122547619D01*
X125011905Y-122423809D01*
X125011905Y-122176190D01*
X125073810Y-122052381D01*
X125135714Y-123228571D02*
X125073810Y-123290476D01*
X125011905Y-123228571D01*
X125073810Y-123166666D01*
X125135714Y-123228571D01*
X125011905Y-123228571D01*
X125816667Y-123228571D02*
X125754762Y-123290476D01*
X125692857Y-123228571D01*
X125754762Y-123166666D01*
X125816667Y-123228571D01*
X125692857Y-123228571D01*
X126373810Y-124776190D02*
X124702381Y-123661905D01*
X126373810Y-126138095D02*
X124702381Y-125023810D01*
X125073810Y-127128572D02*
X125011905Y-127004762D01*
X125011905Y-126757143D01*
X125073810Y-126633334D01*
X125135714Y-126571429D01*
X125259524Y-126509524D01*
X125630952Y-126509524D01*
X125754762Y-126571429D01*
X125816667Y-126633334D01*
X125878571Y-126757143D01*
X125878571Y-127004762D01*
X125816667Y-127128572D01*
X125011905Y-128242858D02*
X125692857Y-128242858D01*
X125816667Y-128180953D01*
X125878571Y-128057143D01*
X125878571Y-127809524D01*
X125816667Y-127685715D01*
X125073810Y-128242858D02*
X125011905Y-128119048D01*
X125011905Y-127809524D01*
X125073810Y-127685715D01*
X125197619Y-127623810D01*
X125321429Y-127623810D01*
X125445238Y-127685715D01*
X125507143Y-127809524D01*
X125507143Y-128119048D01*
X125569048Y-128242858D01*
X125878571Y-128861905D02*
X125011905Y-128861905D01*
X125754762Y-128861905D02*
X125816667Y-128923810D01*
X125878571Y-129047619D01*
X125878571Y-129233333D01*
X125816667Y-129357143D01*
X125692857Y-129419048D01*
X125011905Y-129419048D01*
X125878571Y-129852381D02*
X125878571Y-130347619D01*
X126311905Y-130038095D02*
X125197619Y-130038095D01*
X125073810Y-130100000D01*
X125011905Y-130223809D01*
X125011905Y-130347619D01*
X125011905Y-131338095D02*
X125692857Y-131338095D01*
X125816667Y-131276190D01*
X125878571Y-131152380D01*
X125878571Y-130904761D01*
X125816667Y-130780952D01*
X125073810Y-131338095D02*
X125011905Y-131214285D01*
X125011905Y-130904761D01*
X125073810Y-130780952D01*
X125197619Y-130719047D01*
X125321429Y-130719047D01*
X125445238Y-130780952D01*
X125507143Y-130904761D01*
X125507143Y-131214285D01*
X125569048Y-131338095D01*
X125073810Y-132514285D02*
X125011905Y-132390475D01*
X125011905Y-132142856D01*
X125073810Y-132019047D01*
X125135714Y-131957142D01*
X125259524Y-131895237D01*
X125630952Y-131895237D01*
X125754762Y-131957142D01*
X125816667Y-132019047D01*
X125878571Y-132142856D01*
X125878571Y-132390475D01*
X125816667Y-132514285D01*
X125878571Y-132885714D02*
X125878571Y-133380952D01*
X126311905Y-133071428D02*
X125197619Y-133071428D01*
X125073810Y-133133333D01*
X125011905Y-133257142D01*
X125011905Y-133380952D01*
X125135714Y-133814285D02*
X125073810Y-133876190D01*
X125011905Y-133814285D01*
X125073810Y-133752380D01*
X125135714Y-133814285D01*
X125011905Y-133814285D01*
X125011905Y-134433333D02*
X125878571Y-134433333D01*
X126311905Y-134433333D02*
X126250000Y-134371428D01*
X126188095Y-134433333D01*
X126250000Y-134495238D01*
X126311905Y-134433333D01*
X126188095Y-134433333D01*
X125011905Y-135238095D02*
X125073810Y-135114286D01*
X125135714Y-135052381D01*
X125259524Y-134990476D01*
X125630952Y-134990476D01*
X125754762Y-135052381D01*
X125816667Y-135114286D01*
X125878571Y-135238095D01*
X125878571Y-135423809D01*
X125816667Y-135547619D01*
X125754762Y-135609524D01*
X125630952Y-135671428D01*
X125259524Y-135671428D01*
X125135714Y-135609524D01*
X125073810Y-135547619D01*
X125011905Y-135423809D01*
X125011905Y-135238095D01*
D12*
X155392857Y-137035714D02*
X155464286Y-136821428D01*
X155535714Y-136750000D01*
X155678571Y-136678571D01*
X155892857Y-136678571D01*
X156035714Y-136750000D01*
X156107143Y-136821428D01*
X156178571Y-136964286D01*
X156178571Y-137535714D01*
X154678571Y-137535714D01*
X154678571Y-137035714D01*
X154750000Y-136892857D01*
X154821429Y-136821428D01*
X154964286Y-136750000D01*
X155107143Y-136750000D01*
X155250000Y-136821428D01*
X155321429Y-136892857D01*
X155392857Y-137035714D01*
X155392857Y-137535714D01*
X154678571Y-135750000D02*
X154678571Y-135464286D01*
X154750000Y-135321428D01*
X154892857Y-135178571D01*
X155178571Y-135107143D01*
X155678571Y-135107143D01*
X155964286Y-135178571D01*
X156107143Y-135321428D01*
X156178571Y-135464286D01*
X156178571Y-135750000D01*
X156107143Y-135892857D01*
X155964286Y-136035714D01*
X155678571Y-136107143D01*
X155178571Y-136107143D01*
X154892857Y-136035714D01*
X154750000Y-135892857D01*
X154678571Y-135750000D01*
X154678571Y-134178571D02*
X154678571Y-133892857D01*
X154750000Y-133749999D01*
X154892857Y-133607142D01*
X155178571Y-133535714D01*
X155678571Y-133535714D01*
X155964286Y-133607142D01*
X156107143Y-133749999D01*
X156178571Y-133892857D01*
X156178571Y-134178571D01*
X156107143Y-134321428D01*
X155964286Y-134464285D01*
X155678571Y-134535714D01*
X155178571Y-134535714D01*
X154892857Y-134464285D01*
X154750000Y-134321428D01*
X154678571Y-134178571D01*
X154678571Y-133107142D02*
X154678571Y-132249999D01*
X156178571Y-132678570D02*
X154678571Y-132678570D01*
X156132143Y-143785714D02*
X156203571Y-143571428D01*
X156203571Y-143214285D01*
X156132143Y-143071428D01*
X156060714Y-142999999D01*
X155917857Y-142928571D01*
X155775000Y-142928571D01*
X155632143Y-142999999D01*
X155560714Y-143071428D01*
X155489286Y-143214285D01*
X155417857Y-143499999D01*
X155346429Y-143642857D01*
X155275000Y-143714285D01*
X155132143Y-143785714D01*
X154989286Y-143785714D01*
X154846429Y-143714285D01*
X154775000Y-143642857D01*
X154703571Y-143499999D01*
X154703571Y-143142857D01*
X154775000Y-142928571D01*
X154703571Y-142428571D02*
X156203571Y-142071428D01*
X155132143Y-141785714D01*
X156203571Y-141500000D01*
X154703571Y-141142857D01*
X156203571Y-140571428D02*
X154703571Y-140571428D01*
X154703571Y-140214285D01*
X154775000Y-140000000D01*
X154917857Y-139857142D01*
X155060714Y-139785714D01*
X155346429Y-139714285D01*
X155560714Y-139714285D01*
X155846429Y-139785714D01*
X155989286Y-139857142D01*
X156132143Y-140000000D01*
X156203571Y-140214285D01*
X156203571Y-140571428D01*
D11*
X159614286Y-129993809D02*
X159676190Y-130055714D01*
X159738095Y-130241428D01*
X159738095Y-130365238D01*
X159676190Y-130550952D01*
X159552381Y-130674761D01*
X159428571Y-130736666D01*
X159180952Y-130798571D01*
X158995238Y-130798571D01*
X158747619Y-130736666D01*
X158623810Y-130674761D01*
X158500000Y-130550952D01*
X158438095Y-130365238D01*
X158438095Y-130241428D01*
X158500000Y-130055714D01*
X158561905Y-129993809D01*
X159366667Y-129498571D02*
X159366667Y-128879523D01*
X159738095Y-129622380D02*
X158438095Y-129189047D01*
X159738095Y-128755714D01*
X159738095Y-128322380D02*
X158438095Y-128322380D01*
X159738095Y-127579523D01*
X158438095Y-127579523D01*
X158871429Y-127146189D02*
X158871429Y-126650951D01*
X158438095Y-126960475D02*
X159552381Y-126960475D01*
X159676190Y-126898570D01*
X159738095Y-126774761D01*
X159738095Y-126650951D01*
X159738095Y-125660475D02*
X159057143Y-125660475D01*
X158933333Y-125722380D01*
X158871429Y-125846190D01*
X158871429Y-126093809D01*
X158933333Y-126217618D01*
X159676190Y-125660475D02*
X159738095Y-125784285D01*
X159738095Y-126093809D01*
X159676190Y-126217618D01*
X159552381Y-126279523D01*
X159428571Y-126279523D01*
X159304762Y-126217618D01*
X159242857Y-126093809D01*
X159242857Y-125784285D01*
X159180952Y-125660475D01*
X159676190Y-124484285D02*
X159738095Y-124608095D01*
X159738095Y-124855714D01*
X159676190Y-124979523D01*
X159614286Y-125041428D01*
X159490476Y-125103333D01*
X159119048Y-125103333D01*
X158995238Y-125041428D01*
X158933333Y-124979523D01*
X158871429Y-124855714D01*
X158871429Y-124608095D01*
X158933333Y-124484285D01*
X158871429Y-124112856D02*
X158871429Y-123617618D01*
X158438095Y-123927142D02*
X159552381Y-123927142D01*
X159676190Y-123865237D01*
X159738095Y-123741428D01*
X159738095Y-123617618D01*
X158438095Y-122379523D02*
X159738095Y-121946190D01*
X158438095Y-121512857D01*
X159738095Y-120398571D02*
X159738095Y-121141428D01*
X159738095Y-120769999D02*
X158438095Y-120769999D01*
X158623810Y-120893809D01*
X158747619Y-121017618D01*
X158809524Y-121141428D01*
X159614286Y-119841428D02*
X159676190Y-119779523D01*
X159738095Y-119841428D01*
X159676190Y-119903333D01*
X159614286Y-119841428D01*
X159738095Y-119841428D01*
X158438095Y-118974761D02*
X158438095Y-118850952D01*
X158500000Y-118727142D01*
X158561905Y-118665237D01*
X158685714Y-118603333D01*
X158933333Y-118541428D01*
X159242857Y-118541428D01*
X159490476Y-118603333D01*
X159614286Y-118665237D01*
X159676190Y-118727142D01*
X159738095Y-118850952D01*
X159738095Y-118974761D01*
X159676190Y-119098571D01*
X159614286Y-119160475D01*
X159490476Y-119222380D01*
X159242857Y-119284285D01*
X158933333Y-119284285D01*
X158685714Y-119222380D01*
X158561905Y-119160475D01*
X158500000Y-119098571D01*
X158438095Y-118974761D01*
X156628571Y-103628571D02*
X156685714Y-103685714D01*
X156742857Y-103857143D01*
X156742857Y-103971429D01*
X156685714Y-104142857D01*
X156571429Y-104257143D01*
X156457143Y-104314286D01*
X156228571Y-104371429D01*
X156057143Y-104371429D01*
X155828571Y-104314286D01*
X155714286Y-104257143D01*
X155600000Y-104142857D01*
X155542857Y-103971429D01*
X155542857Y-103857143D01*
X155600000Y-103685714D01*
X155657143Y-103628571D01*
X155542857Y-103285714D02*
X155542857Y-102600000D01*
X156742857Y-102942857D02*
X155542857Y-102942857D01*
X156114286Y-102200000D02*
X156114286Y-101800000D01*
X156742857Y-101628571D02*
X156742857Y-102200000D01*
X155542857Y-102200000D01*
X155542857Y-101628571D01*
D12*
X150650000Y-111600000D02*
X150578571Y-111742857D01*
X150578571Y-111957143D01*
X150650000Y-112171428D01*
X150792857Y-112314286D01*
X150935714Y-112385714D01*
X151221429Y-112457143D01*
X151435714Y-112457143D01*
X151721429Y-112385714D01*
X151864286Y-112314286D01*
X152007143Y-112171428D01*
X152078571Y-111957143D01*
X152078571Y-111814286D01*
X152007143Y-111600000D01*
X151935714Y-111528571D01*
X151435714Y-111528571D01*
X151435714Y-111814286D01*
X152078571Y-110885714D02*
X150578571Y-110885714D01*
X152078571Y-110028571D01*
X150578571Y-110028571D01*
X152078571Y-109314285D02*
X150578571Y-109314285D01*
X150578571Y-108957142D01*
X150650000Y-108742857D01*
X150792857Y-108599999D01*
X150935714Y-108528571D01*
X151221429Y-108457142D01*
X151435714Y-108457142D01*
X151721429Y-108528571D01*
X151864286Y-108599999D01*
X152007143Y-108742857D01*
X152078571Y-108957142D01*
X152078571Y-109314285D01*
X152078571Y-106671428D02*
X150578571Y-106671428D01*
X150578571Y-106100000D01*
X150650000Y-105957142D01*
X150721429Y-105885714D01*
X150864286Y-105814285D01*
X151078571Y-105814285D01*
X151221429Y-105885714D01*
X151292857Y-105957142D01*
X151364286Y-106100000D01*
X151364286Y-106671428D01*
X152078571Y-105171428D02*
X151078571Y-105171428D01*
X150578571Y-105171428D02*
X150650000Y-105242857D01*
X150721429Y-105171428D01*
X150650000Y-105100000D01*
X150578571Y-105171428D01*
X150721429Y-105171428D01*
X151078571Y-104457142D02*
X152078571Y-104457142D01*
X151221429Y-104457142D02*
X151150000Y-104385714D01*
X151078571Y-104242856D01*
X151078571Y-104028571D01*
X151150000Y-103885714D01*
X151292857Y-103814285D01*
X152078571Y-103814285D01*
X141935714Y-112028571D02*
X142007143Y-112100000D01*
X142078571Y-112314286D01*
X142078571Y-112457143D01*
X142007143Y-112671428D01*
X141864286Y-112814286D01*
X141721429Y-112885714D01*
X141435714Y-112957143D01*
X141221429Y-112957143D01*
X140935714Y-112885714D01*
X140792857Y-112814286D01*
X140650000Y-112671428D01*
X140578571Y-112457143D01*
X140578571Y-112314286D01*
X140650000Y-112100000D01*
X140721429Y-112028571D01*
X141650000Y-111457143D02*
X141650000Y-110742857D01*
X142078571Y-111600000D02*
X140578571Y-111100000D01*
X142078571Y-110600000D01*
X142078571Y-110100000D02*
X140578571Y-110100000D01*
X142078571Y-109242857D01*
X140578571Y-109242857D01*
X142078571Y-107814285D02*
X142078571Y-108528571D01*
X140578571Y-108528571D01*
X142078571Y-106171428D02*
X140578571Y-106171428D01*
X140578571Y-105600000D01*
X140650000Y-105457142D01*
X140721429Y-105385714D01*
X140864286Y-105314285D01*
X141078571Y-105314285D01*
X141221429Y-105385714D01*
X141292857Y-105457142D01*
X141364286Y-105600000D01*
X141364286Y-106171428D01*
X142078571Y-104671428D02*
X141078571Y-104671428D01*
X140578571Y-104671428D02*
X140650000Y-104742857D01*
X140721429Y-104671428D01*
X140650000Y-104600000D01*
X140578571Y-104671428D01*
X140721429Y-104671428D01*
X141078571Y-103957142D02*
X142078571Y-103957142D01*
X141221429Y-103957142D02*
X141150000Y-103885714D01*
X141078571Y-103742856D01*
X141078571Y-103528571D01*
X141150000Y-103385714D01*
X141292857Y-103314285D01*
X142078571Y-103314285D01*
X131935714Y-112207143D02*
X132007143Y-112278572D01*
X132078571Y-112492858D01*
X132078571Y-112635715D01*
X132007143Y-112850000D01*
X131864286Y-112992858D01*
X131721429Y-113064286D01*
X131435714Y-113135715D01*
X131221429Y-113135715D01*
X130935714Y-113064286D01*
X130792857Y-112992858D01*
X130650000Y-112850000D01*
X130578571Y-112635715D01*
X130578571Y-112492858D01*
X130650000Y-112278572D01*
X130721429Y-112207143D01*
X131650000Y-111635715D02*
X131650000Y-110921429D01*
X132078571Y-111778572D02*
X130578571Y-111278572D01*
X132078571Y-110778572D01*
X132078571Y-110278572D02*
X130578571Y-110278572D01*
X132078571Y-109421429D01*
X130578571Y-109421429D01*
X132078571Y-108707143D02*
X130578571Y-108707143D01*
X131292857Y-108707143D02*
X131292857Y-107850000D01*
X132078571Y-107850000D02*
X130578571Y-107850000D01*
X132078571Y-105992857D02*
X130578571Y-105992857D01*
X130578571Y-105421429D01*
X130650000Y-105278571D01*
X130721429Y-105207143D01*
X130864286Y-105135714D01*
X131078571Y-105135714D01*
X131221429Y-105207143D01*
X131292857Y-105278571D01*
X131364286Y-105421429D01*
X131364286Y-105992857D01*
X132078571Y-104492857D02*
X131078571Y-104492857D01*
X130578571Y-104492857D02*
X130650000Y-104564286D01*
X130721429Y-104492857D01*
X130650000Y-104421429D01*
X130578571Y-104492857D01*
X130721429Y-104492857D01*
X131078571Y-103778571D02*
X132078571Y-103778571D01*
X131221429Y-103778571D02*
X131150000Y-103707143D01*
X131078571Y-103564285D01*
X131078571Y-103350000D01*
X131150000Y-103207143D01*
X131292857Y-103135714D01*
X132078571Y-103135714D01*
X145378571Y-103999999D02*
X145378571Y-103071428D01*
X145950000Y-103571428D01*
X145950000Y-103357142D01*
X146021429Y-103214285D01*
X146092857Y-103142856D01*
X146235714Y-103071428D01*
X146592857Y-103071428D01*
X146735714Y-103142856D01*
X146807143Y-103214285D01*
X146878571Y-103357142D01*
X146878571Y-103785714D01*
X146807143Y-103928571D01*
X146735714Y-103999999D01*
X149278571Y-103071428D02*
X149278571Y-103928571D01*
X149278571Y-103499999D02*
X147778571Y-103499999D01*
X147992857Y-103642856D01*
X148135714Y-103785714D01*
X148207143Y-103928571D01*
X135521429Y-103928571D02*
X135450000Y-103857142D01*
X135378571Y-103714285D01*
X135378571Y-103357142D01*
X135450000Y-103214285D01*
X135521429Y-103142856D01*
X135664286Y-103071428D01*
X135807143Y-103071428D01*
X136021429Y-103142856D01*
X136878571Y-103999999D01*
X136878571Y-103071428D01*
X137778571Y-103142856D02*
X137778571Y-103857142D01*
X138492857Y-103928571D01*
X138421429Y-103857142D01*
X138350000Y-103714285D01*
X138350000Y-103357142D01*
X138421429Y-103214285D01*
X138492857Y-103142856D01*
X138635714Y-103071428D01*
X138992857Y-103071428D01*
X139135714Y-103142856D01*
X139207143Y-103214285D01*
X139278571Y-103357142D01*
X139278571Y-103714285D01*
X139207143Y-103857142D01*
X139135714Y-103928571D01*
X125578571Y-103999999D02*
X125578571Y-102999999D01*
X127078571Y-103642856D01*
X127978571Y-103999999D02*
X127978571Y-103071428D01*
X128550000Y-103571428D01*
X128550000Y-103357142D01*
X128621429Y-103214285D01*
X128692857Y-103142856D01*
X128835714Y-103071428D01*
X129192857Y-103071428D01*
X129335714Y-103142856D01*
X129407143Y-103214285D01*
X129478571Y-103357142D01*
X129478571Y-103785714D01*
X129407143Y-103928571D01*
X129335714Y-103999999D01*
D13*
X159108400Y-101186000D02*
X159108400Y-90873600D01*
X126545600Y-101160600D02*
X126545600Y-90900000D01*
X126571000Y-90873600D02*
X159070000Y-90873600D01*
X126571000Y-101186000D02*
X159083000Y-101186000D01*
X159270000Y-135000000D02*
X156730000Y-135000000D01*
X159270000Y-132460000D02*
X156730000Y-132460000D01*
X156730000Y-132460000D02*
X156730000Y-135000000D01*
X156730000Y-135000000D02*
X156730000Y-137540000D01*
X156730000Y-137540000D02*
X159270000Y-137540000D01*
X159270000Y-137540000D02*
X159270000Y-132460000D01*
X127204000Y-151687000D02*
X139396000Y-151687000D01*
X139396000Y-151687000D02*
X139396000Y-134669000D01*
X139396000Y-134669000D02*
X127204000Y-134669000D01*
X127204000Y-134669000D02*
X127204000Y-151687000D01*
X156730000Y-148810000D02*
X156730000Y-138650000D01*
X156730000Y-138650000D02*
X159270000Y-138650000D01*
X159270000Y-138650000D02*
X159270000Y-148810000D01*
X156730000Y-151350000D02*
X156730000Y-148810000D01*
X156730000Y-148810000D02*
X159270000Y-148810000D01*
X156730000Y-151350000D02*
X159270000Y-151350000D01*
X159270000Y-151350000D02*
X159270000Y-148810000D01*
X153835000Y-135957000D02*
X153835000Y-138243000D01*
X153835000Y-138243000D02*
X152565000Y-138243000D01*
X152565000Y-138243000D02*
X152565000Y-135957000D01*
X152565000Y-135957000D02*
X153835000Y-135957000D01*
X144787719Y-149409000D02*
G75*
G03X144787719Y-149409000I-803219J0D01*
G01*
X147581719Y-128136500D02*
G75*
G03X147581719Y-128136500I-803219J0D01*
G01*
X147137219Y-124453500D02*
G75*
G03X147137219Y-124453500I-803219J0D01*
G01*
X139735500Y-121844500D02*
X139210500Y-121844500D01*
X139735500Y-129094500D02*
X139210500Y-129094500D01*
X132485500Y-129094500D02*
X133010500Y-129094500D01*
X132485500Y-121844500D02*
X133010500Y-121844500D01*
X139735500Y-121844500D02*
X139735500Y-122369500D01*
X132485500Y-121844500D02*
X132485500Y-122369500D01*
X132485500Y-129094500D02*
X132485500Y-128569500D01*
X139735500Y-129094500D02*
X139735500Y-128569500D01*
X139210500Y-121844500D02*
X139210500Y-120469500D01*
X146397500Y-148012000D02*
X144619500Y-148012000D01*
X144619500Y-148012000D02*
X144619500Y-144964000D01*
X144619500Y-144964000D02*
X146397500Y-144964000D01*
X146397500Y-144964000D02*
X146397500Y-148012000D01*
X154398500Y-123755000D02*
X154398500Y-128835000D01*
X154398500Y-128835000D02*
X149826500Y-128835000D01*
X149826500Y-128835000D02*
X149826500Y-123755000D01*
X149826500Y-123755000D02*
X154398500Y-123755000D01*
X152874500Y-123755000D02*
X152874500Y-124263000D01*
X152874500Y-124263000D02*
X151604500Y-124263000D01*
X151604500Y-124263000D02*
X151604500Y-123755000D01*
X142770380Y-118888360D02*
X154469620Y-118888360D01*
X154469620Y-113889640D02*
X142770380Y-113889640D01*
X154469620Y-118888360D02*
X154469620Y-118040000D01*
X154469620Y-113889640D02*
X154469620Y-114738000D01*
X142770380Y-118888360D02*
X142770380Y-118040000D01*
X142770380Y-113889640D02*
X142770380Y-114738000D01*
X143505000Y-121500000D02*
X143505000Y-122200000D01*
X142305000Y-122200000D02*
X142305000Y-121500000D01*
X145283000Y-121500000D02*
X145283000Y-122200000D01*
X144083000Y-122200000D02*
X144083000Y-121500000D01*
X147061000Y-121500000D02*
X147061000Y-122200000D01*
X145861000Y-122200000D02*
X145861000Y-121500000D01*
X130938500Y-132804500D02*
X130938500Y-132104500D01*
X132138500Y-132104500D02*
X132138500Y-132804500D01*
X149850000Y-120600000D02*
X150550000Y-120600000D01*
X150550000Y-121800000D02*
X149850000Y-121800000D01*
X129097000Y-132804500D02*
X129097000Y-132104500D01*
X130297000Y-132104500D02*
X130297000Y-132804500D01*
X127319000Y-132804500D02*
X127319000Y-132104500D01*
X128519000Y-132104500D02*
X128519000Y-132804500D01*
X134617500Y-117440000D02*
X135317500Y-117440000D01*
X135317500Y-118640000D02*
X134617500Y-118640000D01*
X155150000Y-121800000D02*
X154450000Y-121800000D01*
X154450000Y-120600000D02*
X155150000Y-120600000D01*
X134625000Y-115750000D02*
X135325000Y-115750000D01*
X135325000Y-116950000D02*
X134625000Y-116950000D01*
X142302500Y-134134000D02*
X141602500Y-134134000D01*
X141602500Y-132934000D02*
X142302500Y-132934000D01*
X142302500Y-136356500D02*
X141602500Y-136356500D01*
X141602500Y-135156500D02*
X142302500Y-135156500D01*
X140396000Y-118456000D02*
X141096000Y-118456000D01*
X141096000Y-119656000D02*
X140396000Y-119656000D01*
X142933500Y-145376000D02*
X142933500Y-146076000D01*
X141733500Y-146076000D02*
X141733500Y-145376000D01*
X149093000Y-145249000D02*
X149093000Y-145949000D01*
X147893000Y-145949000D02*
X147893000Y-145249000D01*
X152399000Y-130768500D02*
X151699000Y-130768500D01*
X151699000Y-129568500D02*
X152399000Y-129568500D01*
X128744500Y-124834500D02*
X128744500Y-122548500D01*
X128744500Y-122548500D02*
X130014500Y-122548500D01*
X130014500Y-122548500D02*
X130014500Y-124834500D01*
X130014500Y-124834500D02*
X128744500Y-124834500D01*
X130014500Y-125406000D02*
X130014500Y-127692000D01*
X130014500Y-127692000D02*
X128744500Y-127692000D01*
X128744500Y-127692000D02*
X128744500Y-125406000D01*
X128744500Y-125406000D02*
X130014500Y-125406000D01*
X130014500Y-119754500D02*
X130014500Y-122040500D01*
X130014500Y-122040500D02*
X128744500Y-122040500D01*
X128744500Y-122040500D02*
X128744500Y-119754500D01*
X128744500Y-119754500D02*
X130014500Y-119754500D01*
X128740000Y-130493000D02*
X128740000Y-128207000D01*
X128740000Y-128207000D02*
X130010000Y-128207000D01*
X130010000Y-128207000D02*
X130010000Y-130493000D01*
X130010000Y-130493000D02*
X128740000Y-130493000D01*
X158165000Y-116943000D02*
X158165000Y-114657000D01*
X158165000Y-114657000D02*
X159435000Y-114657000D01*
X159435000Y-114657000D02*
X159435000Y-116943000D01*
X159435000Y-116943000D02*
X158165000Y-116943000D01*
X134868780Y-149689860D02*
X135229460Y-151160520D01*
X135229460Y-151160520D02*
X135508860Y-150098800D01*
X135508860Y-150098800D02*
X135818740Y-151170680D01*
X135818740Y-151170680D02*
X136159100Y-149720340D01*
X133448920Y-150380740D02*
X134238860Y-150370580D01*
X134238860Y-150370580D02*
X134249020Y-150380740D01*
X134249020Y-150380740D02*
X134249020Y-150370580D01*
X134289660Y-149659380D02*
X134289660Y-151201160D01*
X133400660Y-149649220D02*
X133400660Y-151218940D01*
X133400660Y-151218940D02*
X133410820Y-151208780D01*
X132849480Y-149750820D02*
X132498960Y-149669540D01*
X132498960Y-149669540D02*
X132178920Y-149659380D01*
X132178920Y-149659380D02*
X131940160Y-149860040D01*
X131940160Y-149860040D02*
X131909680Y-150129280D01*
X131909680Y-150129280D02*
X132150980Y-150370580D01*
X132150980Y-150370580D02*
X132539600Y-150500120D01*
X132539600Y-150500120D02*
X132719940Y-150660140D01*
X132719940Y-150660140D02*
X132760580Y-150959860D01*
X132760580Y-150959860D02*
X132529440Y-151180840D01*
X132529440Y-151180840D02*
X132209400Y-151208780D01*
X132209400Y-151208780D02*
X131858880Y-151099560D01*
X130820020Y-149649220D02*
X130571100Y-149669540D01*
X130571100Y-149669540D02*
X130329800Y-149910840D01*
X130329800Y-149910840D02*
X130240900Y-150401060D01*
X130240900Y-150401060D02*
X130268840Y-150749040D01*
X130268840Y-150749040D02*
X130469500Y-151069080D01*
X130469500Y-151069080D02*
X130720960Y-151191000D01*
X130720960Y-151191000D02*
X131030840Y-151119880D01*
X131030840Y-151119880D02*
X131249280Y-150939540D01*
X131249280Y-150939540D02*
X131320400Y-150479800D01*
X131320400Y-150479800D02*
X131269600Y-150070860D01*
X131269600Y-150070860D02*
X131160380Y-149788920D01*
X131160380Y-149788920D02*
X130799700Y-149659380D01*
X131419460Y-147929640D02*
X131160380Y-148490980D01*
X131160380Y-148490980D02*
X131698860Y-149009140D01*
X131698860Y-149009140D02*
X132219560Y-148739900D01*
X132219560Y-148739900D02*
X132498960Y-148899920D01*
X133939140Y-148879600D02*
X134269340Y-148689100D01*
X134269340Y-148689100D02*
X134708760Y-149019300D01*
X134708760Y-149019300D02*
X135181200Y-148529080D01*
X135181200Y-148529080D02*
X134899260Y-148049020D01*
X134899260Y-148049020D02*
X135089760Y-147579120D01*
X135089760Y-147579120D02*
X135699360Y-147391160D01*
X135699360Y-147391160D02*
X135699360Y-146710440D01*
X135699360Y-146710440D02*
X135140560Y-146570740D01*
X135140560Y-146570740D02*
X134939900Y-145999240D01*
X134939900Y-145999240D02*
X135209140Y-145529340D01*
X135209140Y-145529340D02*
X134739240Y-145018800D01*
X134739240Y-145018800D02*
X134221080Y-145280420D01*
X134221080Y-145280420D02*
X133751180Y-145079760D01*
X133751180Y-145079760D02*
X133581000Y-144538740D01*
X133581000Y-144538740D02*
X132890120Y-144520960D01*
X132890120Y-144520960D02*
X132679300Y-145069600D01*
X132679300Y-145069600D02*
X132260200Y-145239780D01*
X132260200Y-145239780D02*
X131709020Y-144970540D01*
X131709020Y-144970540D02*
X131190860Y-145498860D01*
X131190860Y-145498860D02*
X131439780Y-146039880D01*
X131439780Y-146039880D02*
X131269600Y-146519940D01*
X131269600Y-146519940D02*
X130720960Y-146619000D01*
X130720960Y-146619000D02*
X130710800Y-147320040D01*
X130710800Y-147320040D02*
X131269600Y-147520700D01*
X131269600Y-147520700D02*
X131409300Y-147919480D01*
X133550520Y-147899160D02*
X133850240Y-147749300D01*
X133850240Y-147749300D02*
X134050900Y-147551180D01*
X134050900Y-147551180D02*
X134200760Y-147149860D01*
X134200760Y-147149860D02*
X134200760Y-146751080D01*
X134200760Y-146751080D02*
X134050900Y-146400560D01*
X134050900Y-146400560D02*
X133598780Y-146050040D01*
X133598780Y-146050040D02*
X133149200Y-145999240D01*
X133149200Y-145999240D02*
X132750420Y-146100840D01*
X132750420Y-146100840D02*
X132349100Y-146448820D01*
X132349100Y-146448820D02*
X132199240Y-146900940D01*
X132199240Y-146900940D02*
X132250040Y-147398780D01*
X132250040Y-147398780D02*
X132498960Y-147701040D01*
X132498960Y-147701040D02*
X132849480Y-147899160D01*
X132849480Y-147899160D02*
X132498960Y-148899920D01*
X133550520Y-147899160D02*
X133949300Y-148899920D01*
X124761905Y-92002381D02*
X124761905Y-91002381D01*
X125142858Y-91002381D01*
X125238096Y-91050000D01*
X125285715Y-91097619D01*
X125333334Y-91192857D01*
X125333334Y-91335714D01*
X125285715Y-91430952D01*
X125238096Y-91478571D01*
X125142858Y-91526190D01*
X124761905Y-91526190D01*
X125666667Y-91002381D02*
X126285715Y-91002381D01*
X125952381Y-91383333D01*
X126095239Y-91383333D01*
X126190477Y-91430952D01*
X126238096Y-91478571D01*
X126285715Y-91573810D01*
X126285715Y-91811905D01*
X126238096Y-91907143D01*
X126190477Y-91954762D01*
X126095239Y-92002381D01*
X125809524Y-92002381D01*
X125714286Y-91954762D01*
X125666667Y-91907143D01*
X157166667Y-131177381D02*
X157166667Y-131891667D01*
X157119047Y-132034524D01*
X157023809Y-132129762D01*
X156880952Y-132177381D01*
X156785714Y-132177381D01*
X157642857Y-132177381D02*
X157642857Y-131177381D01*
X158023810Y-131177381D01*
X158119048Y-131225000D01*
X158166667Y-131272619D01*
X158214286Y-131367857D01*
X158214286Y-131510714D01*
X158166667Y-131605952D01*
X158119048Y-131653571D01*
X158023810Y-131701190D01*
X157642857Y-131701190D01*
X159166667Y-132177381D02*
X158595238Y-132177381D01*
X158880952Y-132177381D02*
X158880952Y-131177381D01*
X158785714Y-131320238D01*
X158690476Y-131415476D01*
X158595238Y-131463095D01*
X125411905Y-151477381D02*
X125411905Y-150477381D01*
X125792858Y-150477381D01*
X125888096Y-150525000D01*
X125935715Y-150572619D01*
X125983334Y-150667857D01*
X125983334Y-150810714D01*
X125935715Y-150905952D01*
X125888096Y-150953571D01*
X125792858Y-151001190D01*
X125411905Y-151001190D01*
X126935715Y-151477381D02*
X126364286Y-151477381D01*
X126650000Y-151477381D02*
X126650000Y-150477381D01*
X126554762Y-150620238D01*
X126459524Y-150715476D01*
X126364286Y-150763095D01*
X154836905Y-151402381D02*
X154836905Y-150402381D01*
X155217858Y-150402381D01*
X155313096Y-150450000D01*
X155360715Y-150497619D01*
X155408334Y-150592857D01*
X155408334Y-150735714D01*
X155360715Y-150830952D01*
X155313096Y-150878571D01*
X155217858Y-150926190D01*
X154836905Y-150926190D01*
X155789286Y-150497619D02*
X155836905Y-150450000D01*
X155932143Y-150402381D01*
X156170239Y-150402381D01*
X156265477Y-150450000D01*
X156313096Y-150497619D01*
X156360715Y-150592857D01*
X156360715Y-150688095D01*
X156313096Y-150830952D01*
X155741667Y-151402381D01*
X156360715Y-151402381D01*
D14*
X153132800Y-135626310D02*
X152980400Y-135384405D01*
X152871543Y-135626310D02*
X152871543Y-135118310D01*
X153045715Y-135118310D01*
X153089257Y-135142500D01*
X153111029Y-135166690D01*
X153132800Y-135215071D01*
X153132800Y-135287643D01*
X153111029Y-135336024D01*
X153089257Y-135360214D01*
X153045715Y-135384405D01*
X152871543Y-135384405D01*
X153568229Y-135626310D02*
X153306972Y-135626310D01*
X153437600Y-135626310D02*
X153437600Y-135118310D01*
X153394057Y-135190881D01*
X153350515Y-135239262D01*
X153306972Y-135263452D01*
D15*
X143458952Y-150421810D02*
X143749238Y-150421810D01*
X143604095Y-150929810D02*
X143604095Y-150421810D01*
X143918571Y-150929810D02*
X143918571Y-150421810D01*
X144112095Y-150421810D01*
X144160476Y-150446000D01*
X144184667Y-150470190D01*
X144208857Y-150518571D01*
X144208857Y-150591143D01*
X144184667Y-150639524D01*
X144160476Y-150663714D01*
X144112095Y-150687905D01*
X143918571Y-150687905D01*
X144692667Y-150929810D02*
X144402381Y-150929810D01*
X144547524Y-150929810D02*
X144547524Y-150421810D01*
X144499143Y-150494381D01*
X144450762Y-150542762D01*
X144402381Y-150566952D01*
X146158952Y-129121810D02*
X146449238Y-129121810D01*
X146304095Y-129629810D02*
X146304095Y-129121810D01*
X146618571Y-129629810D02*
X146618571Y-129121810D01*
X146812095Y-129121810D01*
X146860476Y-129146000D01*
X146884667Y-129170190D01*
X146908857Y-129218571D01*
X146908857Y-129291143D01*
X146884667Y-129339524D01*
X146860476Y-129363714D01*
X146812095Y-129387905D01*
X146618571Y-129387905D01*
X147102381Y-129170190D02*
X147126571Y-129146000D01*
X147174952Y-129121810D01*
X147295905Y-129121810D01*
X147344286Y-129146000D01*
X147368476Y-129170190D01*
X147392667Y-129218571D01*
X147392667Y-129266952D01*
X147368476Y-129339524D01*
X147078190Y-129629810D01*
X147392667Y-129629810D01*
X145658952Y-125421810D02*
X145949238Y-125421810D01*
X145804095Y-125929810D02*
X145804095Y-125421810D01*
X146118571Y-125929810D02*
X146118571Y-125421810D01*
X146312095Y-125421810D01*
X146360476Y-125446000D01*
X146384667Y-125470190D01*
X146408857Y-125518571D01*
X146408857Y-125591143D01*
X146384667Y-125639524D01*
X146360476Y-125663714D01*
X146312095Y-125687905D01*
X146118571Y-125687905D01*
X146578190Y-125421810D02*
X146892667Y-125421810D01*
X146723333Y-125615333D01*
X146795905Y-125615333D01*
X146844286Y-125639524D01*
X146868476Y-125663714D01*
X146892667Y-125712095D01*
X146892667Y-125833048D01*
X146868476Y-125881429D01*
X146844286Y-125905619D01*
X146795905Y-125929810D01*
X146650762Y-125929810D01*
X146602381Y-125905619D01*
X146578190Y-125881429D01*
D13*
X139638095Y-120452381D02*
X139638095Y-121261905D01*
X139685714Y-121357143D01*
X139733333Y-121404762D01*
X139828571Y-121452381D01*
X140019048Y-121452381D01*
X140114286Y-121404762D01*
X140161905Y-121357143D01*
X140209524Y-121261905D01*
X140209524Y-120452381D01*
X141209524Y-121452381D02*
X140638095Y-121452381D01*
X140923809Y-121452381D02*
X140923809Y-120452381D01*
X140828571Y-120595238D01*
X140733333Y-120690476D01*
X140638095Y-120738095D01*
X144713095Y-143702381D02*
X144713095Y-144511905D01*
X144760714Y-144607143D01*
X144808333Y-144654762D01*
X144903571Y-144702381D01*
X145094048Y-144702381D01*
X145189286Y-144654762D01*
X145236905Y-144607143D01*
X145284524Y-144511905D01*
X145284524Y-143702381D01*
X145713095Y-143797619D02*
X145760714Y-143750000D01*
X145855952Y-143702381D01*
X146094048Y-143702381D01*
X146189286Y-143750000D01*
X146236905Y-143797619D01*
X146284524Y-143892857D01*
X146284524Y-143988095D01*
X146236905Y-144130952D01*
X145665476Y-144702381D01*
X146284524Y-144702381D01*
X149838095Y-122452381D02*
X149838095Y-123261905D01*
X149885714Y-123357143D01*
X149933333Y-123404762D01*
X150028571Y-123452381D01*
X150219048Y-123452381D01*
X150314286Y-123404762D01*
X150361905Y-123357143D01*
X150409524Y-123261905D01*
X150409524Y-122452381D01*
X150790476Y-122452381D02*
X151409524Y-122452381D01*
X151076190Y-122833333D01*
X151219048Y-122833333D01*
X151314286Y-122880952D01*
X151361905Y-122928571D01*
X151409524Y-123023810D01*
X151409524Y-123261905D01*
X151361905Y-123357143D01*
X151314286Y-123404762D01*
X151219048Y-123452381D01*
X150933333Y-123452381D01*
X150838095Y-123404762D01*
X150790476Y-123357143D01*
X141015476Y-113852381D02*
X141682143Y-114852381D01*
X141682143Y-113852381D02*
X141015476Y-114852381D01*
X142586905Y-114852381D02*
X142015476Y-114852381D01*
X142301190Y-114852381D02*
X142301190Y-113852381D01*
X142205952Y-113995238D01*
X142110714Y-114090476D01*
X142015476Y-114138095D01*
X142733334Y-124357143D02*
X142685715Y-124404762D01*
X142542858Y-124452381D01*
X142447620Y-124452381D01*
X142304762Y-124404762D01*
X142209524Y-124309524D01*
X142161905Y-124214286D01*
X142114286Y-124023810D01*
X142114286Y-123880952D01*
X142161905Y-123690476D01*
X142209524Y-123595238D01*
X142304762Y-123500000D01*
X142447620Y-123452381D01*
X142542858Y-123452381D01*
X142685715Y-123500000D01*
X142733334Y-123547619D01*
X143685715Y-124452381D02*
X143114286Y-124452381D01*
X143400000Y-124452381D02*
X143400000Y-123452381D01*
X143304762Y-123595238D01*
X143209524Y-123690476D01*
X143114286Y-123738095D01*
X144433334Y-120107143D02*
X144385715Y-120154762D01*
X144242858Y-120202381D01*
X144147620Y-120202381D01*
X144004762Y-120154762D01*
X143909524Y-120059524D01*
X143861905Y-119964286D01*
X143814286Y-119773810D01*
X143814286Y-119630952D01*
X143861905Y-119440476D01*
X143909524Y-119345238D01*
X144004762Y-119250000D01*
X144147620Y-119202381D01*
X144242858Y-119202381D01*
X144385715Y-119250000D01*
X144433334Y-119297619D01*
X144814286Y-119297619D02*
X144861905Y-119250000D01*
X144957143Y-119202381D01*
X145195239Y-119202381D01*
X145290477Y-119250000D01*
X145338096Y-119297619D01*
X145385715Y-119392857D01*
X145385715Y-119488095D01*
X145338096Y-119630952D01*
X144766667Y-120202381D01*
X145385715Y-120202381D01*
X146283334Y-120107143D02*
X146235715Y-120154762D01*
X146092858Y-120202381D01*
X145997620Y-120202381D01*
X145854762Y-120154762D01*
X145759524Y-120059524D01*
X145711905Y-119964286D01*
X145664286Y-119773810D01*
X145664286Y-119630952D01*
X145711905Y-119440476D01*
X145759524Y-119345238D01*
X145854762Y-119250000D01*
X145997620Y-119202381D01*
X146092858Y-119202381D01*
X146235715Y-119250000D01*
X146283334Y-119297619D01*
X146616667Y-119202381D02*
X147235715Y-119202381D01*
X146902381Y-119583333D01*
X147045239Y-119583333D01*
X147140477Y-119630952D01*
X147188096Y-119678571D01*
X147235715Y-119773810D01*
X147235715Y-120011905D01*
X147188096Y-120107143D01*
X147140477Y-120154762D01*
X147045239Y-120202381D01*
X146759524Y-120202381D01*
X146664286Y-120154762D01*
X146616667Y-120107143D01*
D16*
X131466667Y-134468571D02*
X131442857Y-134492381D01*
X131371429Y-134516190D01*
X131323810Y-134516190D01*
X131252381Y-134492381D01*
X131204762Y-134444762D01*
X131180953Y-134397143D01*
X131157143Y-134301905D01*
X131157143Y-134230476D01*
X131180953Y-134135238D01*
X131204762Y-134087619D01*
X131252381Y-134040000D01*
X131323810Y-134016190D01*
X131371429Y-134016190D01*
X131442857Y-134040000D01*
X131466667Y-134063810D01*
X131895238Y-134182857D02*
X131895238Y-134516190D01*
X131776191Y-133992381D02*
X131657143Y-134349524D01*
X131966667Y-134349524D01*
D13*
X150033334Y-120157143D02*
X149985715Y-120204762D01*
X149842858Y-120252381D01*
X149747620Y-120252381D01*
X149604762Y-120204762D01*
X149509524Y-120109524D01*
X149461905Y-120014286D01*
X149414286Y-119823810D01*
X149414286Y-119680952D01*
X149461905Y-119490476D01*
X149509524Y-119395238D01*
X149604762Y-119300000D01*
X149747620Y-119252381D01*
X149842858Y-119252381D01*
X149985715Y-119300000D01*
X150033334Y-119347619D01*
X150938096Y-119252381D02*
X150461905Y-119252381D01*
X150414286Y-119728571D01*
X150461905Y-119680952D01*
X150557143Y-119633333D01*
X150795239Y-119633333D01*
X150890477Y-119680952D01*
X150938096Y-119728571D01*
X150985715Y-119823810D01*
X150985715Y-120061905D01*
X150938096Y-120157143D01*
X150890477Y-120204762D01*
X150795239Y-120252381D01*
X150557143Y-120252381D01*
X150461905Y-120204762D01*
X150414286Y-120157143D01*
D16*
X129636667Y-134468571D02*
X129612857Y-134492381D01*
X129541429Y-134516190D01*
X129493810Y-134516190D01*
X129422381Y-134492381D01*
X129374762Y-134444762D01*
X129350953Y-134397143D01*
X129327143Y-134301905D01*
X129327143Y-134230476D01*
X129350953Y-134135238D01*
X129374762Y-134087619D01*
X129422381Y-134040000D01*
X129493810Y-134016190D01*
X129541429Y-134016190D01*
X129612857Y-134040000D01*
X129636667Y-134063810D01*
X130065238Y-134016190D02*
X129970000Y-134016190D01*
X129922381Y-134040000D01*
X129898572Y-134063810D01*
X129850953Y-134135238D01*
X129827143Y-134230476D01*
X129827143Y-134420952D01*
X129850953Y-134468571D01*
X129874762Y-134492381D01*
X129922381Y-134516190D01*
X130017619Y-134516190D01*
X130065238Y-134492381D01*
X130089048Y-134468571D01*
X130112857Y-134420952D01*
X130112857Y-134301905D01*
X130089048Y-134254286D01*
X130065238Y-134230476D01*
X130017619Y-134206667D01*
X129922381Y-134206667D01*
X129874762Y-134230476D01*
X129850953Y-134254286D01*
X129827143Y-134301905D01*
X127916667Y-134478571D02*
X127892857Y-134502381D01*
X127821429Y-134526190D01*
X127773810Y-134526190D01*
X127702381Y-134502381D01*
X127654762Y-134454762D01*
X127630953Y-134407143D01*
X127607143Y-134311905D01*
X127607143Y-134240476D01*
X127630953Y-134145238D01*
X127654762Y-134097619D01*
X127702381Y-134050000D01*
X127773810Y-134026190D01*
X127821429Y-134026190D01*
X127892857Y-134050000D01*
X127916667Y-134073810D01*
X128083334Y-134026190D02*
X128416667Y-134026190D01*
X128202381Y-134526190D01*
D13*
X132283334Y-118957143D02*
X132235715Y-119004762D01*
X132092858Y-119052381D01*
X131997620Y-119052381D01*
X131854762Y-119004762D01*
X131759524Y-118909524D01*
X131711905Y-118814286D01*
X131664286Y-118623810D01*
X131664286Y-118480952D01*
X131711905Y-118290476D01*
X131759524Y-118195238D01*
X131854762Y-118100000D01*
X131997620Y-118052381D01*
X132092858Y-118052381D01*
X132235715Y-118100000D01*
X132283334Y-118147619D01*
X132854762Y-118480952D02*
X132759524Y-118433333D01*
X132711905Y-118385714D01*
X132664286Y-118290476D01*
X132664286Y-118242857D01*
X132711905Y-118147619D01*
X132759524Y-118100000D01*
X132854762Y-118052381D01*
X133045239Y-118052381D01*
X133140477Y-118100000D01*
X133188096Y-118147619D01*
X133235715Y-118242857D01*
X133235715Y-118290476D01*
X133188096Y-118385714D01*
X133140477Y-118433333D01*
X133045239Y-118480952D01*
X132854762Y-118480952D01*
X132759524Y-118528571D01*
X132711905Y-118576190D01*
X132664286Y-118671429D01*
X132664286Y-118861905D01*
X132711905Y-118957143D01*
X132759524Y-119004762D01*
X132854762Y-119052381D01*
X133045239Y-119052381D01*
X133140477Y-119004762D01*
X133188096Y-118957143D01*
X133235715Y-118861905D01*
X133235715Y-118671429D01*
X133188096Y-118576190D01*
X133140477Y-118528571D01*
X133045239Y-118480952D01*
X154633334Y-120157143D02*
X154585715Y-120204762D01*
X154442858Y-120252381D01*
X154347620Y-120252381D01*
X154204762Y-120204762D01*
X154109524Y-120109524D01*
X154061905Y-120014286D01*
X154014286Y-119823810D01*
X154014286Y-119680952D01*
X154061905Y-119490476D01*
X154109524Y-119395238D01*
X154204762Y-119300000D01*
X154347620Y-119252381D01*
X154442858Y-119252381D01*
X154585715Y-119300000D01*
X154633334Y-119347619D01*
X155109524Y-120252381D02*
X155300000Y-120252381D01*
X155395239Y-120204762D01*
X155442858Y-120157143D01*
X155538096Y-120014286D01*
X155585715Y-119823810D01*
X155585715Y-119442857D01*
X155538096Y-119347619D01*
X155490477Y-119300000D01*
X155395239Y-119252381D01*
X155204762Y-119252381D01*
X155109524Y-119300000D01*
X155061905Y-119347619D01*
X155014286Y-119442857D01*
X155014286Y-119680952D01*
X155061905Y-119776190D01*
X155109524Y-119823810D01*
X155204762Y-119871429D01*
X155395239Y-119871429D01*
X155490477Y-119823810D01*
X155538096Y-119776190D01*
X155585715Y-119680952D01*
X134707143Y-115257143D02*
X134659524Y-115304762D01*
X134516667Y-115352381D01*
X134421429Y-115352381D01*
X134278571Y-115304762D01*
X134183333Y-115209524D01*
X134135714Y-115114286D01*
X134088095Y-114923810D01*
X134088095Y-114780952D01*
X134135714Y-114590476D01*
X134183333Y-114495238D01*
X134278571Y-114400000D01*
X134421429Y-114352381D01*
X134516667Y-114352381D01*
X134659524Y-114400000D01*
X134707143Y-114447619D01*
X135659524Y-115352381D02*
X135088095Y-115352381D01*
X135373809Y-115352381D02*
X135373809Y-114352381D01*
X135278571Y-114495238D01*
X135183333Y-114590476D01*
X135088095Y-114638095D01*
X136278571Y-114352381D02*
X136373810Y-114352381D01*
X136469048Y-114400000D01*
X136516667Y-114447619D01*
X136564286Y-114542857D01*
X136611905Y-114733333D01*
X136611905Y-114971429D01*
X136564286Y-115161905D01*
X136516667Y-115257143D01*
X136469048Y-115304762D01*
X136373810Y-115352381D01*
X136278571Y-115352381D01*
X136183333Y-115304762D01*
X136135714Y-115257143D01*
X136088095Y-115161905D01*
X136040476Y-114971429D01*
X136040476Y-114733333D01*
X136088095Y-114542857D01*
X136135714Y-114447619D01*
X136183333Y-114400000D01*
X136278571Y-114352381D01*
X144257143Y-133857143D02*
X144209524Y-133904762D01*
X144066667Y-133952381D01*
X143971429Y-133952381D01*
X143828571Y-133904762D01*
X143733333Y-133809524D01*
X143685714Y-133714286D01*
X143638095Y-133523810D01*
X143638095Y-133380952D01*
X143685714Y-133190476D01*
X143733333Y-133095238D01*
X143828571Y-133000000D01*
X143971429Y-132952381D01*
X144066667Y-132952381D01*
X144209524Y-133000000D01*
X144257143Y-133047619D01*
X145209524Y-133952381D02*
X144638095Y-133952381D01*
X144923809Y-133952381D02*
X144923809Y-132952381D01*
X144828571Y-133095238D01*
X144733333Y-133190476D01*
X144638095Y-133238095D01*
X146161905Y-133952381D02*
X145590476Y-133952381D01*
X145876190Y-133952381D02*
X145876190Y-132952381D01*
X145780952Y-133095238D01*
X145685714Y-133190476D01*
X145590476Y-133238095D01*
X144257143Y-136157143D02*
X144209524Y-136204762D01*
X144066667Y-136252381D01*
X143971429Y-136252381D01*
X143828571Y-136204762D01*
X143733333Y-136109524D01*
X143685714Y-136014286D01*
X143638095Y-135823810D01*
X143638095Y-135680952D01*
X143685714Y-135490476D01*
X143733333Y-135395238D01*
X143828571Y-135300000D01*
X143971429Y-135252381D01*
X144066667Y-135252381D01*
X144209524Y-135300000D01*
X144257143Y-135347619D01*
X145209524Y-136252381D02*
X144638095Y-136252381D01*
X144923809Y-136252381D02*
X144923809Y-135252381D01*
X144828571Y-135395238D01*
X144733333Y-135490476D01*
X144638095Y-135538095D01*
X145590476Y-135347619D02*
X145638095Y-135300000D01*
X145733333Y-135252381D01*
X145971429Y-135252381D01*
X146066667Y-135300000D01*
X146114286Y-135347619D01*
X146161905Y-135442857D01*
X146161905Y-135538095D01*
X146114286Y-135680952D01*
X145542857Y-136252381D01*
X146161905Y-136252381D01*
X138557143Y-117857143D02*
X138509524Y-117904762D01*
X138366667Y-117952381D01*
X138271429Y-117952381D01*
X138128571Y-117904762D01*
X138033333Y-117809524D01*
X137985714Y-117714286D01*
X137938095Y-117523810D01*
X137938095Y-117380952D01*
X137985714Y-117190476D01*
X138033333Y-117095238D01*
X138128571Y-117000000D01*
X138271429Y-116952381D01*
X138366667Y-116952381D01*
X138509524Y-117000000D01*
X138557143Y-117047619D01*
X139509524Y-117952381D02*
X138938095Y-117952381D01*
X139223809Y-117952381D02*
X139223809Y-116952381D01*
X139128571Y-117095238D01*
X139033333Y-117190476D01*
X138938095Y-117238095D01*
X139842857Y-116952381D02*
X140461905Y-116952381D01*
X140128571Y-117333333D01*
X140271429Y-117333333D01*
X140366667Y-117380952D01*
X140414286Y-117428571D01*
X140461905Y-117523810D01*
X140461905Y-117761905D01*
X140414286Y-117857143D01*
X140366667Y-117904762D01*
X140271429Y-117952381D01*
X139985714Y-117952381D01*
X139890476Y-117904762D01*
X139842857Y-117857143D01*
X141632143Y-144007143D02*
X141584524Y-144054762D01*
X141441667Y-144102381D01*
X141346429Y-144102381D01*
X141203571Y-144054762D01*
X141108333Y-143959524D01*
X141060714Y-143864286D01*
X141013095Y-143673810D01*
X141013095Y-143530952D01*
X141060714Y-143340476D01*
X141108333Y-143245238D01*
X141203571Y-143150000D01*
X141346429Y-143102381D01*
X141441667Y-143102381D01*
X141584524Y-143150000D01*
X141632143Y-143197619D01*
X142584524Y-144102381D02*
X142013095Y-144102381D01*
X142298809Y-144102381D02*
X142298809Y-143102381D01*
X142203571Y-143245238D01*
X142108333Y-143340476D01*
X142013095Y-143388095D01*
X143441667Y-143435714D02*
X143441667Y-144102381D01*
X143203571Y-143054762D02*
X142965476Y-143769048D01*
X143584524Y-143769048D01*
X150032143Y-145082143D02*
X149984524Y-145129762D01*
X149841667Y-145177381D01*
X149746429Y-145177381D01*
X149603571Y-145129762D01*
X149508333Y-145034524D01*
X149460714Y-144939286D01*
X149413095Y-144748810D01*
X149413095Y-144605952D01*
X149460714Y-144415476D01*
X149508333Y-144320238D01*
X149603571Y-144225000D01*
X149746429Y-144177381D01*
X149841667Y-144177381D01*
X149984524Y-144225000D01*
X150032143Y-144272619D01*
X150984524Y-145177381D02*
X150413095Y-145177381D01*
X150698809Y-145177381D02*
X150698809Y-144177381D01*
X150603571Y-144320238D01*
X150508333Y-144415476D01*
X150413095Y-144463095D01*
X151889286Y-144177381D02*
X151413095Y-144177381D01*
X151365476Y-144653571D01*
X151413095Y-144605952D01*
X151508333Y-144558333D01*
X151746429Y-144558333D01*
X151841667Y-144605952D01*
X151889286Y-144653571D01*
X151936905Y-144748810D01*
X151936905Y-144986905D01*
X151889286Y-145082143D01*
X151841667Y-145129762D01*
X151746429Y-145177381D01*
X151508333Y-145177381D01*
X151413095Y-145129762D01*
X151365476Y-145082143D01*
X151357143Y-132057143D02*
X151309524Y-132104762D01*
X151166667Y-132152381D01*
X151071429Y-132152381D01*
X150928571Y-132104762D01*
X150833333Y-132009524D01*
X150785714Y-131914286D01*
X150738095Y-131723810D01*
X150738095Y-131580952D01*
X150785714Y-131390476D01*
X150833333Y-131295238D01*
X150928571Y-131200000D01*
X151071429Y-131152381D01*
X151166667Y-131152381D01*
X151309524Y-131200000D01*
X151357143Y-131247619D01*
X152309524Y-132152381D02*
X151738095Y-132152381D01*
X152023809Y-132152381D02*
X152023809Y-131152381D01*
X151928571Y-131295238D01*
X151833333Y-131390476D01*
X151738095Y-131438095D01*
X153166667Y-131152381D02*
X152976190Y-131152381D01*
X152880952Y-131200000D01*
X152833333Y-131247619D01*
X152738095Y-131390476D01*
X152690476Y-131580952D01*
X152690476Y-131961905D01*
X152738095Y-132057143D01*
X152785714Y-132104762D01*
X152880952Y-132152381D01*
X153071429Y-132152381D01*
X153166667Y-132104762D01*
X153214286Y-132057143D01*
X153261905Y-131961905D01*
X153261905Y-131723810D01*
X153214286Y-131628571D01*
X153166667Y-131580952D01*
X153071429Y-131533333D01*
X152880952Y-131533333D01*
X152785714Y-131580952D01*
X152738095Y-131628571D01*
X152690476Y-131723810D01*
X126961905Y-123452381D02*
X126961905Y-122452381D01*
X127200000Y-122452381D01*
X127342858Y-122500000D01*
X127438096Y-122595238D01*
X127485715Y-122690476D01*
X127533334Y-122880952D01*
X127533334Y-123023810D01*
X127485715Y-123214286D01*
X127438096Y-123309524D01*
X127342858Y-123404762D01*
X127200000Y-123452381D01*
X126961905Y-123452381D01*
X128485715Y-123452381D02*
X127914286Y-123452381D01*
X128200000Y-123452381D02*
X128200000Y-122452381D01*
X128104762Y-122595238D01*
X128009524Y-122690476D01*
X127914286Y-122738095D01*
X126971905Y-127712381D02*
X126971905Y-126712381D01*
X127210000Y-126712381D01*
X127352858Y-126760000D01*
X127448096Y-126855238D01*
X127495715Y-126950476D01*
X127543334Y-127140952D01*
X127543334Y-127283810D01*
X127495715Y-127474286D01*
X127448096Y-127569524D01*
X127352858Y-127664762D01*
X127210000Y-127712381D01*
X126971905Y-127712381D01*
X127924286Y-126807619D02*
X127971905Y-126760000D01*
X128067143Y-126712381D01*
X128305239Y-126712381D01*
X128400477Y-126760000D01*
X128448096Y-126807619D01*
X128495715Y-126902857D01*
X128495715Y-126998095D01*
X128448096Y-127140952D01*
X127876667Y-127712381D01*
X128495715Y-127712381D01*
X127483334Y-120602381D02*
X127150000Y-120126190D01*
X126911905Y-120602381D02*
X126911905Y-119602381D01*
X127292858Y-119602381D01*
X127388096Y-119650000D01*
X127435715Y-119697619D01*
X127483334Y-119792857D01*
X127483334Y-119935714D01*
X127435715Y-120030952D01*
X127388096Y-120078571D01*
X127292858Y-120126190D01*
X126911905Y-120126190D01*
X127864286Y-119697619D02*
X127911905Y-119650000D01*
X128007143Y-119602381D01*
X128245239Y-119602381D01*
X128340477Y-119650000D01*
X128388096Y-119697619D01*
X128435715Y-119792857D01*
X128435715Y-119888095D01*
X128388096Y-120030952D01*
X127816667Y-120602381D01*
X128435715Y-120602381D01*
X127533334Y-130552381D02*
X127200000Y-130076190D01*
X126961905Y-130552381D02*
X126961905Y-129552381D01*
X127342858Y-129552381D01*
X127438096Y-129600000D01*
X127485715Y-129647619D01*
X127533334Y-129742857D01*
X127533334Y-129885714D01*
X127485715Y-129980952D01*
X127438096Y-130028571D01*
X127342858Y-130076190D01*
X126961905Y-130076190D01*
X127866667Y-129552381D02*
X128485715Y-129552381D01*
X128152381Y-129933333D01*
X128295239Y-129933333D01*
X128390477Y-129980952D01*
X128438096Y-130028571D01*
X128485715Y-130123810D01*
X128485715Y-130361905D01*
X128438096Y-130457143D01*
X128390477Y-130504762D01*
X128295239Y-130552381D01*
X128009524Y-130552381D01*
X127914286Y-130504762D01*
X127866667Y-130457143D01*
X158633334Y-114327381D02*
X158300000Y-113851190D01*
X158061905Y-114327381D02*
X158061905Y-113327381D01*
X158442858Y-113327381D01*
X158538096Y-113375000D01*
X158585715Y-113422619D01*
X158633334Y-113517857D01*
X158633334Y-113660714D01*
X158585715Y-113755952D01*
X158538096Y-113803571D01*
X158442858Y-113851190D01*
X158061905Y-113851190D01*
X159490477Y-113660714D02*
X159490477Y-114327381D01*
X159252381Y-113279762D02*
X159014286Y-113994048D01*
X159633334Y-113994048D01*
M02*
